<?xml version="1.0" encoding="UTF-8"?>
<!-- Generator: visioncortex VTracer 0.6.3 -->
<svg version="1.1" xmlns="http://www.w3.org/2000/svg" width="1280" height="1280">
<path d="M0 0 C1.31 -0 1.31 -0 2.65 -0.01 C3.61 -0.01 4.57 -0 5.55 -0 C6.56 -0 7.57 -0.01 8.61 -0.01 C11.96 -0.01 15.3 -0.01 18.65 -0.01 C20.97 -0.01 23.29 -0.01 25.61 -0.01 C30.48 -0.01 35.34 -0.01 40.21 -0 C46.45 0 52.7 -0 58.94 -0.01 C63.73 -0.01 68.52 -0.01 73.32 -0.01 C75.62 -0.01 77.92 -0.01 80.23 -0.01 C83.44 -0.01 86.66 -0.01 89.87 -0 C91.31 -0.01 91.31 -0.01 92.77 -0.01 C93.65 -0.01 94.52 -0 95.42 0 C96.18 0 96.94 0 97.73 0 C99.71 0.13 99.71 0.13 102.71 1.13 C104.94 1.29 107.17 1.4 109.4 1.5 C124.77 2.33 140.09 4.43 155.18 7.44 C158.58 8.1 161.97 8.63 165.4 9.13 C170.87 9.94 176.2 11.11 181.57 12.4 C184.57 13.09 187.56 13.66 190.59 14.19 C194.73 14.91 198.67 15.95 202.71 17.13 C206.04 17.84 209.37 18.5 212.71 19.13 C212.71 19.79 212.71 20.45 212.71 21.13 C213.7 20.8 214.69 20.47 215.71 20.13 C217.4 20.74 219.06 21.42 220.71 22.13 C222.56 22.61 224.41 23.07 226.27 23.5 C232.55 25.03 238.6 27.03 244.71 29.13 C247.17 29.94 249.63 30.75 252.09 31.56 C263.1 35.24 273.97 39.14 284.68 43.63 C293.52 47.38 293.52 47.38 302.71 50.13 C302.71 50.79 302.71 51.45 302.71 52.13 C303.52 52.31 303.52 52.31 304.34 52.5 C311.58 54.41 317.89 57.59 324.51 60.99 C328.66 63.12 332.86 65.11 337.09 67.06 C338.04 67.51 338.04 67.51 339.01 67.96 C339.6 68.23 340.19 68.5 340.8 68.78 C343.68 70.11 346.06 71.36 348.71 73.13 C349.37 73.46 350.03 73.79 350.71 74.13 C350.71 74.79 350.71 75.45 350.71 76.13 C351.43 76.23 352.16 76.34 352.9 76.44 C355.98 77.19 358 78.35 360.65 80.06 C364.28 82.34 367.6 83.86 371.71 85.13 C372.04 85.79 372.37 86.45 372.71 87.13 C374.41 88.14 376.15 89.09 377.9 90 C381.09 91.69 384.19 93.36 387.15 95.44 C389.54 97.22 389.54 97.22 391.96 97.69 C393.71 98.13 393.71 98.13 395.71 101.13 C396.7 101.46 397.69 101.79 398.71 102.13 C398.71 102.79 398.71 103.45 398.71 104.13 C399.27 104.4 399.84 104.68 400.41 104.96 C402.8 106.17 405.13 107.45 407.46 108.75 C408.26 109.2 409.06 109.64 409.88 110.1 C410.49 110.44 411.09 110.78 411.71 111.13 C411.71 111.79 411.71 112.45 411.71 113.13 C412.29 113.23 412.87 113.33 413.46 113.44 C416.07 114.24 417.66 115.36 419.71 117.13 C420.04 117.79 420.37 118.45 420.71 119.13 C421.7 119.44 422.69 119.75 423.71 120.06 C424.7 120.42 425.69 120.77 426.71 121.13 C427.04 122.12 427.37 123.11 427.71 124.13 C429.4 125.44 429.4 125.44 431.46 126.56 C436.82 129.67 441.39 133.68 446.15 137.63 C448.99 139.97 451.73 142.14 454.84 144.13 C458.51 146.68 461.4 149.76 464.47 153.01 C466.59 155.18 466.59 155.18 469.04 156.46 C472.86 158.85 475.73 162.01 478.84 165.25 C480.06 166.53 481.29 167.8 482.53 169.07 C483.07 169.63 483.61 170.2 484.16 170.78 C485.78 172.37 485.78 172.37 488.71 173.13 C488.71 174.12 488.71 175.11 488.71 176.13 C489.37 176.13 490.03 176.13 490.71 176.13 C491.52 177.1 492.32 178.07 493.15 179.06 C495.42 182.32 495.42 182.32 498.71 183.13 C499.41 184.44 500.07 185.78 500.71 187.13 C502.33 189.02 502.33 189.02 504.23 190.84 C504.92 191.53 505.62 192.21 506.33 192.92 C507.05 193.63 507.78 194.34 508.52 195.06 C509.24 195.77 509.95 196.47 510.68 197.2 C512.69 199.18 514.7 201.15 516.71 203.13 C519.52 205.89 522.22 208.64 524.71 211.69 C526.6 213.96 528.2 215.5 530.59 217.31 C531.29 217.91 531.99 218.51 532.71 219.13 C532.71 220.45 532.71 221.77 532.71 223.13 C533.57 223.5 533.57 223.5 534.45 223.89 C537.01 225.29 538.77 226.89 540.84 228.94 C541.52 229.61 542.2 230.27 542.91 230.96 C544.84 233.28 545.64 235.33 546.71 238.13 C548.11 240.12 548.11 240.12 549.71 241.88 C550.23 242.47 550.74 243.06 551.27 243.67 C552.67 245.24 552.67 245.24 554.71 246.13 C555.12 246.83 555.54 247.53 555.96 248.25 C557.82 251.31 559.94 253.82 562.31 256.48 C564.58 259.15 565.71 260.55 565.71 264.13 C566.37 264.46 567.03 264.79 567.71 265.13 C570.47 266.51 571.17 268.5 572.71 271.13 C573.37 271.79 574.03 272.45 574.71 273.13 C574.9 274.09 574.9 274.09 575.09 275.06 C575.54 277.3 575.54 277.3 577.65 278.56 C580.2 280.49 580.61 282.18 581.71 285.13 C582.69 286.15 583.69 287.15 584.71 288.13 C585.38 289.46 586.04 290.79 586.71 292.13 C587.21 292.6 587.7 293.08 588.21 293.56 C590.11 295.54 590.7 297.6 591.71 300.13 C592.19 300.59 592.66 301.06 593.15 301.54 C594.86 303.28 595.69 304.85 596.71 307.06 C598.51 310.8 600.62 313.82 603.27 317 C604.71 319.13 604.71 319.13 605.71 322.19 C606.74 325.21 607.5 326 609.71 328.13 C611.87 331.88 612.71 333.73 612.71 338.13 C613.37 338.13 614.03 338.13 614.71 338.13 C614.98 338.85 615.25 339.57 615.52 340.31 C616.64 343.14 616.64 343.14 618.21 345.63 C619.68 348.08 620.65 350.48 621.71 353.13 C622.21 353.95 622.7 354.78 623.21 355.63 C624.68 358.08 625.65 360.48 626.71 363.13 C627.21 363.91 627.7 364.69 628.21 365.5 C629.99 368.61 630.73 371.69 631.71 375.13 C632.68 376.81 633.67 378.48 634.71 380.13 C635.38 381.79 636.04 383.46 636.71 385.13 C637.23 385.91 637.74 386.69 638.27 387.5 C640.02 390.69 640.23 393.56 640.71 397.13 C641.37 397.46 642.03 397.79 642.71 398.13 C642.71 399.78 642.71 401.43 642.71 403.13 C643.37 403.13 644.03 403.13 644.71 403.13 C644.98 404.18 645.25 405.23 645.52 406.31 C646.51 410.04 646.51 410.04 648.27 412.69 C649.94 415.52 650.22 417.9 650.71 421.13 C651.37 422.12 652.03 423.11 652.71 424.13 C653.4 426.36 654.04 428.62 654.65 430.88 C656.19 436.55 656.19 436.55 658.34 442 C660.24 446.33 661.22 450.73 662.17 455.35 C663.1 459.79 664.31 463.86 665.98 468.07 C667.05 471.1 667.67 474.19 668.28 477.34 C668.55 479.14 668.55 479.14 669.71 480.13 C669.99 482.38 670.16 484.64 670.33 486.9 C670.6 489.41 670.6 489.41 672.71 492.13 C673.09 494.13 673.09 494.13 673.27 496.25 C673.28 499.9 673.28 499.9 674.71 501.13 C675 503.9 675.16 506.68 675.33 509.46 C675.55 512.35 675.55 512.35 677.71 515.13 C678.09 517.57 678.09 517.57 678.27 520.25 C678.26 523.5 678.26 523.5 679.71 526.13 C680 529.36 680.16 532.59 680.33 535.83 C680.55 539.05 680.55 539.05 681.71 541.56 C683.04 544.96 683.13 548.28 683.27 551.88 C683.08 556.36 683.08 556.36 684.71 560.13 C684.83 561.59 684.89 563.07 684.92 564.54 C684.95 565.45 684.98 566.35 685.01 567.29 C685.06 569.2 685.1 571.1 685.14 573.01 C685.17 573.93 685.2 574.84 685.23 575.79 C685.25 576.62 685.27 577.45 685.29 578.31 C685.62 581.32 685.62 581.32 687.21 584.67 C689.08 589.56 689.13 594.09 689.1 599.27 C689.1 600.25 689.11 601.24 689.12 602.25 C689.13 605.48 689.12 608.71 689.11 611.94 C689.11 614.2 689.11 616.45 689.12 618.71 C689.12 623.43 689.12 628.15 689.1 632.87 C689.09 638.91 689.1 644.95 689.11 650.99 C689.12 655.64 689.12 660.3 689.11 664.96 C689.11 667.18 689.11 669.41 689.12 671.64 C689.13 674.75 689.12 677.87 689.1 680.98 C689.11 681.89 689.11 682.81 689.12 683.75 C689.06 689.58 687.93 693.74 685.71 699.13 C685.44 701.86 685.51 704.51 685.65 707.25 C685.88 712.35 685.39 716.29 683.71 721.13 C683.36 724.94 683.21 728.74 683.05 732.57 C682.73 735.91 682 738.08 680.71 741.13 C680.3 743.88 680.3 743.88 680.15 746.69 C679.93 749.98 679.53 752.94 678.71 756.13 C678.46 758.39 678.27 760.64 678.09 762.91 C677.71 765.13 677.71 765.13 676.7 767.12 C675.56 769.43 675.41 771.13 675.27 773.69 C674.13 787.71 674.13 787.71 670.71 791.13 C670.5 792.62 670.34 794.12 670.21 795.63 C669.82 800.02 669.82 800.02 668.71 801.13 C668.39 802.47 668.1 803.83 667.84 805.19 C667.18 808.3 666.39 811.18 665.21 814.13 C663.86 817.54 663.06 820.9 662.31 824.49 C658.97 839.24 658.97 839.24 655.71 844.13 C655.2 846.03 654.75 847.95 654.34 849.88 C653.47 853.55 652.63 856.71 650.65 859.94 C648.59 863.33 647.67 866.29 646.71 870.13 C646.34 871.44 645.97 872.75 645.59 874.06 C645.3 875.08 645.01 876.09 644.71 877.13 C644.05 877.13 643.39 877.13 642.71 877.13 C642.71 878.78 642.71 880.43 642.71 882.13 C642.05 882.13 641.39 882.13 640.71 882.13 C640.38 884.44 640.05 886.75 639.71 889.13 C639.05 889.13 638.39 889.13 637.71 889.13 C637.75 889.91 637.79 890.69 637.84 891.5 C637.71 894.13 637.71 894.13 635.71 896.13 C634.66 898.78 633.67 901.44 632.71 904.13 C632.15 905.63 631.59 907.13 631.02 908.63 C630.37 910.36 630.37 910.36 629.71 912.13 C629.05 912.13 628.39 912.13 627.71 912.13 C627.53 913.21 627.53 913.21 627.34 914.31 C626.72 917.08 625.83 919.52 624.71 922.13 C624.05 922.13 623.39 922.13 622.71 922.13 C622.53 923.21 622.53 923.21 622.34 924.31 C621.72 927.08 620.83 929.52 619.71 932.13 C619.05 932.13 618.39 932.13 617.71 932.13 C617.53 933.21 617.53 933.21 617.34 934.31 C616.72 937.08 615.83 939.52 614.71 942.13 C614.05 942.13 613.39 942.13 612.71 942.13 C612.61 942.89 612.5 943.65 612.4 944.44 C611.64 947.42 610.86 948.06 608.71 950.13 C608.04 951.79 607.37 953.46 606.71 955.13 C605.74 957.02 604.74 958.89 603.71 960.75 C602.94 962.16 602.94 962.16 602.15 963.6 C601.08 965.49 599.91 967.32 598.71 969.13 C597.72 969.13 596.73 969.13 595.71 969.13 C596.04 970.12 596.37 971.11 596.71 972.13 C595.18 975.81 593.56 978.39 590.71 981.13 C589.02 983.73 587.61 986.33 586.27 989.13 C584.69 992.17 582.9 994.49 580.71 997.13 C578.42 1000.19 576.22 1003.27 574.27 1006.56 C572.49 1009.49 570.47 1012.15 568.39 1014.87 C565.97 1018.12 563.7 1021.48 561.42 1024.83 C559.69 1027.16 557.78 1029.09 555.71 1031.13 C555.28 1031.87 554.84 1032.61 554.4 1033.38 C552.37 1036.68 549.91 1039.35 547.33 1042.22 C545.61 1044.13 545.61 1044.13 544.27 1046.63 C541.75 1050.67 538.33 1054.03 534.71 1057.13 C534.05 1057.13 533.39 1057.13 532.71 1057.13 C532.66 1057.82 532.62 1058.52 532.57 1059.24 C531.39 1063.22 528.89 1065.49 526 1068.32 C525.41 1068.92 524.81 1069.52 524.2 1070.14 C522.23 1072.11 520.25 1074.08 518.26 1076.04 C516.89 1077.41 515.51 1078.78 514.14 1080.16 C511.26 1083.04 508.37 1085.91 505.48 1088.77 C501.77 1092.44 498.09 1096.12 494.4 1099.81 C491.57 1102.64 488.72 1105.48 485.88 1108.31 C484.52 1109.66 483.16 1111.02 481.8 1112.37 C479.89 1114.28 477.98 1116.17 476.07 1118.06 C475.51 1118.62 474.95 1119.18 474.38 1119.75 C471.06 1123.02 467.66 1125.61 463.71 1128.13 C462.34 1129.44 461 1130.79 459.71 1132.19 C456.57 1135.43 453.77 1137.14 449.71 1139.13 C447.87 1140.83 446.16 1142.61 444.44 1144.42 C442.1 1146.73 439.48 1148.38 436.71 1150.13 C435.89 1150.79 435.06 1151.45 434.21 1152.13 C431.48 1154.31 428.62 1156.19 425.71 1158.13 C423.19 1160.1 420.72 1162.12 418.27 1164.19 C415.71 1166.13 415.71 1166.13 412.9 1167.5 C409.52 1169.22 406.78 1171.28 403.79 1173.58 C401.15 1175.54 398.4 1177.26 395.59 1178.97 C393.88 1180.03 392.2 1181.14 390.52 1182.25 C387.96 1183.96 385.36 1185.55 382.71 1187.13 C381.85 1187.66 380.99 1188.19 380.11 1188.73 C379.25 1189.25 378.4 1189.78 377.52 1190.31 C376.66 1190.84 375.8 1191.37 374.92 1191.92 C372.71 1193.13 372.71 1193.13 370.71 1193.13 C370.05 1194.12 369.39 1195.11 368.71 1196.13 C367.05 1196.82 365.39 1197.48 363.71 1198.13 C362.2 1199.15 362.2 1199.15 360.65 1200.19 C358.05 1201.9 356.61 1202.43 353.71 1203.13 C353.33 1203.55 352.94 1203.98 352.54 1204.42 C349.91 1206.88 346.8 1208.26 343.59 1209.81 C342.89 1210.16 342.18 1210.5 341.46 1210.86 C316.8 1222.93 316.8 1222.93 306.02 1227.19 C303.57 1228.13 303.57 1228.13 300.84 1229.69 C297.42 1231.26 294.44 1231.75 290.71 1232.13 C290.71 1232.79 290.71 1233.45 290.71 1234.13 C278.71 1238.13 278.71 1238.13 275.53 1239.14 C272.53 1240.11 272.53 1240.11 269.21 1242 C264.37 1244.51 259.22 1245.76 253.98 1247.19 C251.47 1247.91 249.2 1248.67 246.84 1249.75 C242.5 1251.66 238.11 1252.63 233.48 1253.59 C229.05 1254.52 224.98 1255.72 220.77 1257.4 C217.74 1258.47 214.65 1259.08 211.5 1259.7 C209.7 1259.97 209.7 1259.97 208.71 1261.13 C206.46 1261.41 204.2 1261.57 201.94 1261.75 C199.43 1262.02 199.43 1262.02 196.71 1264.13 C194.38 1264.49 192.05 1264.82 189.71 1265.13 C189.38 1265.46 189.05 1265.79 188.71 1266.13 C185.97 1266.41 183.23 1266.58 180.47 1266.75 C177.73 1267.12 176.15 1267.89 173.71 1269.13 C171.17 1269.51 171.17 1269.51 168.52 1269.69 C165.31 1269.68 165.31 1269.68 162.71 1271.13 C159.48 1271.41 156.25 1271.58 153.01 1271.75 C149.79 1271.97 149.79 1271.97 147.27 1273.13 C143.88 1274.45 140.56 1274.55 136.96 1274.69 C132.47 1274.5 132.47 1274.5 128.71 1276.13 C127.16 1276.25 125.6 1276.31 124.05 1276.34 C123.09 1276.37 122.13 1276.39 121.14 1276.42 C119.13 1276.48 117.11 1276.52 115.1 1276.56 C114.13 1276.59 113.17 1276.62 112.17 1276.65 C111.29 1276.67 110.41 1276.69 109.51 1276.71 C106.57 1277 106.57 1277 103.66 1278.63 C99.05 1280.64 94.65 1280.55 89.68 1280.52 C88.7 1280.52 87.71 1280.53 86.7 1280.53 C83.47 1280.54 80.23 1280.54 77 1280.53 C74.74 1280.53 72.48 1280.53 70.22 1280.53 C65.5 1280.54 60.77 1280.53 56.04 1280.52 C50 1280.5 43.95 1280.51 37.9 1280.53 C33.24 1280.54 28.58 1280.54 23.92 1280.53 C21.69 1280.53 19.46 1280.53 17.23 1280.54 C14.11 1280.54 10.99 1280.53 7.87 1280.52 C6.96 1280.52 6.04 1280.53 5.1 1280.53 C-0.72 1280.48 -4.93 1279.4 -10.29 1277.13 C-13.05 1276.66 -13.05 1276.66 -15.63 1276.65 C-16.55 1276.62 -17.46 1276.59 -18.41 1276.56 C-19.34 1276.54 -20.27 1276.52 -21.23 1276.5 C-23.11 1276.45 -24.99 1276.4 -26.88 1276.34 C-27.7 1276.32 -28.53 1276.3 -29.37 1276.28 C-31.29 1276.13 -31.29 1276.13 -32.29 1275.13 C-35.38 1274.89 -38.47 1274.73 -41.57 1274.61 C-45.58 1274.4 -48.61 1273.68 -52.29 1272.13 C-54.2 1271.87 -56.12 1271.69 -58.04 1271.56 C-63.19 1271.23 -63.19 1271.23 -64.29 1270.13 C-67.29 1269.84 -70.3 1269.68 -73.31 1269.51 C-76.18 1269.14 -77.78 1268.47 -80.29 1267.13 C-82.28 1266.72 -82.28 1266.72 -84.29 1266.56 C-87.05 1266.3 -89.6 1265.83 -92.29 1265.13 C-94.65 1264.62 -97 1264.12 -99.36 1263.63 C-101.29 1263.13 -101.29 1263.13 -102.29 1262.13 C-103.78 1261.92 -105.29 1261.76 -106.79 1261.63 C-111.18 1261.24 -111.18 1261.24 -112.29 1260.13 C-113.64 1259.8 -114.99 1259.52 -116.35 1259.25 C-119.51 1258.59 -122.42 1257.77 -125.41 1256.56 C-129.05 1255.12 -132.4 1254.53 -136.29 1254.13 C-136.29 1253.47 -136.29 1252.81 -136.29 1252.13 C-136.91 1252.1 -137.52 1252.08 -138.16 1252.05 C-143.73 1251.68 -147.88 1250.62 -152.87 1248.17 C-155.66 1246.97 -158.39 1246.3 -161.35 1245.63 C-165.82 1244.59 -169.54 1243.22 -173.56 1241.03 C-176.04 1239.73 -178.62 1238.96 -181.29 1238.13 C-183.32 1237.37 -185.34 1236.59 -187.36 1235.81 C-189.32 1235.12 -191.27 1234.6 -193.29 1234.13 C-193.29 1233.47 -193.29 1232.81 -193.29 1232.13 C-194.49 1232.04 -195.68 1231.96 -196.91 1231.88 C-201.24 1231.35 -203.72 1229.66 -207.29 1227.13 C-208.69 1226.55 -210.11 1226.01 -211.54 1225.5 C-215.29 1224.13 -215.29 1224.13 -217.29 1222.13 C-218.94 1221.66 -220.58 1221.2 -222.24 1220.76 C-226.12 1219.56 -229.71 1217.71 -233.35 1215.94 C-234.18 1215.54 -235.01 1215.14 -235.86 1214.73 C-238.34 1213.54 -240.81 1212.33 -243.29 1211.13 C-244.68 1210.46 -246.07 1209.79 -247.46 1209.12 C-248.7 1208.52 -249.93 1207.92 -251.16 1207.31 C-252.23 1206.79 -253.3 1206.27 -254.41 1205.73 C-257.32 1204.11 -259.74 1202.27 -262.29 1200.13 C-265.54 1197.99 -268.82 1196.49 -272.4 1195.01 C-275.19 1193.71 -277.72 1192.06 -280.3 1190.39 C-282.2 1189.18 -284.13 1188.09 -286.1 1187 C-288.72 1185.46 -290.21 1184.21 -292.29 1182.13 C-293.16 1181.8 -294.02 1181.47 -294.91 1181.13 C-295.7 1180.8 -296.48 1180.47 -297.29 1180.13 C-297.62 1179.14 -297.95 1178.15 -298.29 1177.13 C-300.28 1176.43 -302.28 1175.77 -304.29 1175.13 C-305.31 1174.15 -306.31 1173.15 -307.29 1172.13 C-308.16 1171.8 -309.02 1171.47 -309.91 1171.13 C-310.7 1170.8 -311.48 1170.47 -312.29 1170.13 C-312.62 1169.14 -312.95 1168.15 -313.29 1167.13 C-314.13 1166.86 -314.98 1166.59 -315.85 1166.31 C-319.6 1165.02 -321.92 1163.33 -325 1160.91 C-328.54 1158.15 -332.22 1155.57 -335.87 1152.96 C-337.87 1151.44 -339.54 1149.91 -341.29 1148.13 C-342.03 1147.71 -342.77 1147.3 -343.54 1146.88 C-346.06 1145.27 -347.69 1143.77 -349.73 1141.63 C-351.91 1139.37 -353.29 1138.13 -356.16 1136.75 C-360.28 1134.61 -362.93 1131.58 -366.13 1128.26 C-368.63 1125.79 -371.32 1124.02 -374.29 1122.13 C-377.06 1119.91 -379.82 1117.68 -382.29 1115.13 C-382.29 1114.47 -382.29 1113.81 -382.29 1113.13 C-382.87 1112.86 -383.44 1112.59 -384.04 1112.31 C-387.44 1110.52 -389.75 1109.05 -391.73 1105.69 C-393.52 1102.75 -395.58 1101.2 -398.29 1099.13 C-398.62 1098.47 -398.95 1097.81 -399.29 1097.13 C-400.28 1096.8 -401.27 1096.47 -402.29 1096.13 C-402.76 1095.32 -403.24 1094.52 -403.73 1093.69 C-405.45 1090.86 -406.42 1090.51 -409.29 1089.13 C-409.75 1088.17 -409.75 1088.17 -410.23 1087.19 C-411.18 1084.89 -411.18 1084.89 -413.79 1083.63 C-416.29 1082.13 -416.29 1082.13 -417.16 1080.29 C-418.61 1077.51 -420.51 1076.01 -422.91 1074 C-424.41 1072.75 -425.88 1071.47 -427.29 1070.13 C-427.29 1069.47 -427.29 1068.81 -427.29 1068.13 C-427.95 1068.13 -428.61 1068.13 -429.29 1068.13 C-432.52 1064.99 -435.48 1061.53 -437.73 1057.63 C-439.32 1055.07 -441 1053.39 -443.16 1051.31 C-446.45 1048.13 -448.79 1045 -451.08 1041.06 C-453.13 1037.78 -455.71 1034.99 -458.29 1032.13 C-459.42 1030.86 -460.54 1029.59 -461.66 1028.31 C-462.17 1027.75 -462.67 1027.19 -463.19 1026.61 C-464.29 1025.13 -464.29 1025.13 -464.29 1023.13 C-464.95 1023.13 -465.61 1023.13 -466.29 1023.13 C-466.94 1021.73 -466.94 1021.73 -467.6 1020.31 C-469.08 1017.53 -470.1 1016.23 -472.29 1014.13 C-473.23 1012.73 -474.18 1011.34 -475.1 1009.93 C-477.33 1006.55 -479.63 1003.22 -481.91 999.88 C-482.4 999.16 -482.89 998.44 -483.4 997.7 C-483.87 997.01 -484.34 996.32 -484.83 995.61 C-485.25 994.99 -485.68 994.37 -486.12 993.73 C-487.33 991.98 -487.33 991.98 -489.29 990.13 C-489.29 989.47 -489.29 988.81 -489.29 988.13 C-489.95 987.8 -490.61 987.47 -491.29 987.13 C-492.31 985.14 -493.3 983.13 -494.29 981.13 C-494.99 980.08 -495.69 979.02 -496.41 977.94 C-498.29 975.13 -498.29 975.13 -499.29 972.13 C-499.74 971.68 -500.19 971.24 -500.65 970.78 C-502.78 968.63 -504.03 966.29 -505.48 963.63 C-506.01 962.67 -506.54 961.71 -507.08 960.72 C-508.29 958.13 -508.29 958.13 -508.29 955.13 C-509.28 954.8 -510.27 954.47 -511.29 954.13 C-512.33 951.85 -512.33 951.85 -513.29 949.13 C-514.06 947.6 -514.85 946.09 -515.67 944.59 C-516.12 943.76 -516.56 942.93 -517.02 942.08 C-517.95 940.35 -518.89 938.63 -519.83 936.9 C-520.27 936.08 -520.72 935.25 -521.17 934.4 C-521.58 933.65 -521.98 932.9 -522.4 932.13 C-523.29 930.13 -523.29 930.13 -523.29 927.13 C-524.28 926.8 -525.27 926.47 -526.29 926.13 C-527.02 924.06 -527.02 924.06 -527.48 921.56 C-527.63 920.74 -527.79 919.91 -527.96 919.06 C-528.07 918.42 -528.18 917.78 -528.29 917.13 C-528.95 917.13 -529.61 917.13 -530.29 917.13 C-530.63 916.31 -530.96 915.49 -531.31 914.64 C-531.98 913.03 -531.98 913.03 -532.66 911.38 C-533.1 910.31 -533.55 909.24 -534 908.14 C-535.02 905.75 -536.11 903.44 -537.29 901.13 C-540.19 894.96 -542.9 888.74 -545.39 882.39 C-546.16 880.46 -546.97 878.54 -547.79 876.63 C-551.05 869.03 -553.93 861.38 -556.5 853.52 C-557.54 850.35 -558.61 847.22 -559.85 844.13 C-561.55 839.74 -562.63 835.17 -563.81 830.62 C-564.84 826.66 -566.05 822.89 -567.57 819.09 C-570.13 812.12 -572.29 804.57 -572.29 797.13 C-572.95 796.8 -573.61 796.47 -574.29 796.13 C-574.85 794.21 -574.85 794.21 -575.29 791.71 C-575.46 790.81 -575.62 789.9 -575.79 788.97 C-575.96 788.03 -576.12 787.09 -576.29 786.13 C-576.61 784.41 -576.93 782.69 -577.25 780.98 C-577.41 780.12 -577.57 779.27 -577.73 778.39 C-579.56 768.55 -579.56 768.55 -581.91 758.81 C-583.26 753.71 -583.93 748.61 -584.52 743.38 C-584.99 739.3 -585.6 735.3 -586.39 731.26 C-588.24 721.82 -589.01 712.37 -589.64 702.77 C-589.71 701.7 -589.79 700.62 -589.86 699.51 C-589.95 698.06 -589.95 698.06 -590.04 696.58 C-590.21 693.99 -590.21 693.99 -591.29 691.13 C-591.38 689.71 -591.42 688.29 -591.42 686.87 C-591.43 685.56 -591.43 685.56 -591.44 684.23 C-591.44 683.28 -591.43 682.33 -591.43 681.35 C-591.44 680.35 -591.44 679.34 -591.44 678.31 C-591.45 674.98 -591.46 671.66 -591.46 668.33 C-591.46 666.02 -591.46 663.71 -591.47 661.4 C-591.47 656.55 -591.47 651.7 -591.47 646.85 C-591.47 640.64 -591.49 634.43 -591.5 628.23 C-591.52 623.45 -591.52 618.68 -591.52 613.9 C-591.52 611.61 -591.52 609.32 -591.53 607.04 C-591.54 603.83 -591.54 600.63 -591.53 597.42 C-591.54 596.01 -591.54 596.01 -591.55 594.56 C-591.52 589.36 -590.99 585.06 -589.29 580.13 C-589.95 579.8 -590.61 579.47 -591.29 579.13 C-590.63 579.13 -589.97 579.13 -589.29 579.13 C-589.3 578.11 -589.31 577.1 -589.32 576.06 C-589.33 574.71 -589.34 573.35 -589.35 572 C-589.36 571.34 -589.37 570.67 -589.38 569.99 C-589.4 565.91 -589.05 562.13 -588.29 558.13 C-587.78 554.83 -587.29 551.54 -586.79 548.25 C-586.48 546.35 -586.15 544.45 -585.76 542.57 C-585.07 538.99 -584.85 535.38 -584.57 531.75 C-584.32 529.43 -583.86 527.37 -583.29 525.13 C-583.07 523.38 -582.89 521.63 -582.73 519.88 C-582.64 518.98 -582.56 518.09 -582.47 517.17 C-582.41 516.5 -582.35 515.82 -582.29 515.13 C-581.63 515.13 -580.97 515.13 -580.29 515.13 C-579.96 511.17 -579.63 507.21 -579.29 503.13 C-578.63 503.13 -577.97 503.13 -577.29 503.13 C-577.78 501.64 -577.78 501.64 -578.29 500.13 C-577.95 497.65 -577.95 497.65 -577.35 494.94 C-577.06 493.59 -577.06 493.59 -576.76 492.21 C-576.61 491.52 -576.45 490.83 -576.29 490.13 C-575.63 490.13 -574.97 490.13 -574.29 490.13 C-574.62 489.14 -574.95 488.15 -575.29 487.13 C-575.01 485.12 -574.69 483.12 -574.29 481.13 C-573.63 481.13 -572.97 481.13 -572.29 481.13 C-572.31 479.87 -572.33 478.61 -572.35 477.31 C-572.4 474.49 -572.21 472.88 -571.29 470.13 C-570.63 470.13 -569.97 470.13 -569.29 470.13 C-569.62 469.14 -569.95 468.15 -570.29 467.13 C-569.91 464.53 -569.46 462.48 -568.29 460.13 C-566.22 455.03 -564.86 450.59 -564.29 445.13 C-563.96 445.13 -563.63 445.13 -563.29 445.13 C-563.17 444.01 -563.04 442.9 -562.91 441.75 C-562.29 438.13 -562.29 438.13 -560.29 436.13 C-559.89 434.14 -559.55 432.14 -559.29 430.13 C-558.96 430.13 -558.63 430.13 -558.29 430.13 C-556.5 424.84 -554.89 419.5 -553.29 414.15 C-552.23 410.94 -550.88 408.18 -549.23 405.25 C-548.13 403.02 -548.13 403.02 -547.79 399.94 C-547.62 399.01 -547.46 398.08 -547.29 397.13 C-546.63 396.8 -545.97 396.47 -545.29 396.13 C-544.63 393.1 -544.63 393.1 -544.29 390.13 C-543.63 390.13 -542.97 390.13 -542.29 390.13 C-542.29 388.81 -542.29 387.49 -542.29 386.13 C-541.63 385.8 -540.97 385.47 -540.29 385.13 C-540.14 384.22 -540 383.31 -539.85 382.38 C-539.24 378.86 -538.17 377.13 -536.29 374.13 C-535.69 372.8 -535.11 371.47 -534.54 370.13 C-532.82 366.14 -530.82 362.37 -528.73 358.56 C-526.79 355.03 -524.98 351.63 -523.66 347.81 C-522.3 344.15 -520.62 341.23 -518.47 337.99 C-516.54 334.95 -515.17 331.83 -513.79 328.5 C-512.29 325.13 -512.29 325.13 -510.29 323.13 C-509.59 321.81 -508.92 320.48 -508.29 319.13 C-507.62 317.79 -506.96 316.46 -506.29 315.13 C-505.63 315.13 -504.97 315.13 -504.29 315.13 C-504.17 314.41 -504.04 313.68 -503.91 312.94 C-502.61 307.08 -500.58 304.31 -496.29 300.13 C-494.68 297.75 -494.68 297.75 -493.29 295.13 C-490.6 290.3 -487.8 285.91 -484.23 281.69 C-482.19 279.25 -482.19 279.25 -481.29 276.44 C-480.29 274.13 -480.29 274.13 -478.29 273.19 C-475.3 271.6 -475.29 269.26 -474.29 266.13 C-472.98 264.77 -471.64 263.44 -470.29 262.13 C-469.96 261.26 -469.63 260.39 -469.29 259.5 C-468.06 256.58 -467.04 256.46 -464.29 255.13 C-463.92 253.8 -463.6 252.47 -463.29 251.13 C-461.45 248.59 -459.57 246.39 -457.29 244.25 C-455.16 241.99 -453.84 239.59 -452.36 236.88 C-450.72 234.19 -448.65 232.18 -446.29 230.13 C-445.63 230.13 -444.97 230.13 -444.29 230.13 C-444.29 229.14 -444.29 228.15 -444.29 227.13 C-442.98 225.77 -441.64 224.44 -440.29 223.13 C-440 222.5 -439.7 221.86 -439.4 221.21 C-438.07 218.72 -436.54 217.46 -434.35 215.69 C-431.22 213.06 -429.34 210.68 -427.29 207.13 C-426.3 207.13 -425.31 207.13 -424.29 207.13 C-424.62 206.14 -424.95 205.15 -425.29 204.13 C-424.3 203.8 -423.31 203.47 -422.29 203.13 C-422 202.53 -421.71 201.93 -421.41 201.31 C-419.92 198.41 -417.84 197.17 -415.29 195.13 C-414.2 193.94 -413.14 192.73 -412.1 191.5 C-407.77 186.43 -403.03 181.8 -398.29 177.13 C-397 175.82 -397 175.82 -395.69 174.49 C-393.85 172.69 -392.05 171.03 -390.04 169.44 C-387.27 167.42 -387.27 167.42 -386.29 165.13 C-385.24 164.79 -385.24 164.79 -384.18 164.45 C-379.95 162.51 -377.27 159.35 -374.1 156 C-372.86 154.7 -371.62 153.41 -370.37 152.12 C-369.55 151.26 -369.55 151.26 -368.72 150.38 C-367.29 149.13 -367.29 149.13 -365.29 149.13 C-364.96 148.47 -364.63 147.81 -364.29 147.13 C-363.3 147.13 -362.31 147.13 -361.29 147.13 C-361.03 146.53 -360.77 145.93 -360.5 145.32 C-357.64 140.14 -352.23 137.09 -347.29 134.13 C-345.5 132.6 -343.76 131.03 -342.03 129.43 C-340.12 128 -338.62 127.55 -336.29 127.13 C-336.29 126.47 -336.29 125.81 -336.29 125.13 C-334.46 123.72 -334.46 123.72 -332.04 122.19 C-329.67 120.67 -327.36 119.18 -325.12 117.46 C-323.29 116.13 -323.29 116.13 -321.16 115.69 C-320.55 115.5 -319.93 115.32 -319.29 115.13 C-319.01 114.5 -318.72 113.88 -318.43 113.24 C-317.02 110.63 -315.8 110.05 -313.16 108.75 C-309.17 106.67 -305.74 104.29 -302.2 101.54 C-299.37 99.45 -296.36 97.83 -293.29 96.13 C-290.63 94.41 -288.02 92.68 -285.5 90.76 C-284.89 90.31 -284.29 89.85 -283.66 89.38 C-283.11 88.95 -282.57 88.52 -282 88.08 C-280.29 87.13 -280.29 87.13 -276.29 87.13 C-275.96 86.14 -275.63 85.15 -275.29 84.13 C-273.8 83.63 -273.8 83.63 -272.29 83.13 C-269.28 81.72 -266.49 80.06 -263.66 78.31 C-258.67 75.29 -253.54 72.67 -248.29 70.13 C-246.45 69.24 -244.62 68.34 -242.79 67.44 C-241.97 67.04 -241.16 66.65 -240.32 66.24 C-238.15 65.17 -238.15 65.17 -236.29 63.13 C-235.63 63.13 -234.97 63.13 -234.29 63.13 C-234.29 62.8 -234.29 62.47 -234.29 62.13 C-233.14 61.79 -233.14 61.79 -231.98 61.44 C-225.35 59.08 -219.03 56.05 -212.79 52.81 C-209.29 51.13 -209.29 51.13 -206.29 51.13 C-205.96 50.47 -205.63 49.81 -205.29 49.13 C-202.53 48.05 -199.79 47.06 -196.98 46.13 C-195.44 45.61 -193.9 45.09 -192.36 44.56 C-191.68 44.34 -190.99 44.11 -190.29 43.87 C-188.24 43.16 -188.24 43.16 -186.28 42.04 C-184.29 41.13 -184.29 41.13 -180.29 41.13 C-180.29 40.47 -180.29 39.81 -180.29 39.13 C-176.36 37.46 -172.4 36.26 -168.29 35.13 C-166.98 34.75 -165.66 34.38 -164.35 34 C-162.84 33.57 -162.84 33.57 -161.29 33.13 C-161.29 32.8 -161.29 32.47 -161.29 32.13 C-160.71 32.01 -160.13 31.88 -159.53 31.76 C-155.01 30.79 -150.65 29.69 -146.29 28.13 C-146.29 27.8 -146.29 27.47 -146.29 27.13 C-145.18 27 -144.06 26.88 -142.91 26.75 C-139.26 26.48 -139.26 26.48 -137.29 24.13 C-134.96 23.76 -132.63 23.42 -130.29 23.13 C-129.96 22.8 -129.63 22.47 -129.29 22.13 C-126.62 21.99 -123.96 22.08 -121.29 22.13 C-121.29 21.47 -121.29 20.81 -121.29 20.13 C-115.84 19.63 -115.84 19.63 -110.29 19.13 C-110.29 18.47 -110.29 17.81 -110.29 17.13 C-107.32 17.13 -104.35 17.13 -101.29 17.13 C-101.29 16.47 -101.29 15.81 -101.29 15.13 C-97.33 14.47 -93.37 13.81 -89.29 13.13 C-89.29 12.8 -89.29 12.47 -89.29 12.13 C-88.55 12.08 -87.82 12.03 -87.06 11.98 C-85.59 11.87 -85.59 11.87 -84.1 11.75 C-83.14 11.68 -82.18 11.61 -81.18 11.54 C-78.26 11.12 -76.02 10.23 -73.29 9.13 C-70.65 8.75 -70.65 8.75 -68.04 8.56 C-64.86 8.57 -64.86 8.57 -62.29 7.13 C-60.25 6.94 -58.21 6.8 -56.16 6.69 C-52.5 6.44 -49.38 6.15 -45.85 5.13 C-41 3.77 -36.22 3.63 -31.2 3.37 C-28.4 3.45 -28.4 3.45 -27.29 2.13 C-25.84 1.98 -24.38 1.9 -22.92 1.85 C-22.04 1.81 -21.15 1.77 -20.24 1.73 C-19.31 1.7 -18.37 1.66 -17.41 1.63 C-15.58 1.56 -13.75 1.49 -11.92 1.41 C-11.11 1.38 -10.29 1.35 -9.45 1.32 C-6.15 1.03 -3.38 0 0 0 Z " fill="#39B549" transform="translate(591.288818359375,-0.126983642578125)"/>
<path d="M0 0 C4.14 1.93 7.15 4.69 10.44 7.81 C11.1 8.44 11.77 9.06 12.45 9.71 C21.41 18.23 30.09 27.04 38.79 35.83 C39.41 36.45 40.02 37.06 40.65 37.7 C41.8 38.85 42.94 40.01 44.08 41.17 C46.88 43.99 49.74 46.67 52.75 49.26 C57.91 53.73 62.72 58.54 67.55 63.35 C68.04 63.84 68.53 64.32 69.03 64.82 C71.6 67.37 74.16 69.92 76.72 72.48 C79.36 75.11 82 77.73 84.65 80.35 C86.7 82.38 88.74 84.41 90.77 86.45 C91.75 87.42 92.72 88.39 93.7 89.35 C95.06 90.7 96.42 92.06 97.77 93.41 C98.54 94.18 99.31 94.95 100.1 95.74 C102.08 98.09 102.93 100.14 104 103 C61.1 146.02 18.19 189.04 -24.74 232.03 C-25.69 232.99 -25.69 232.99 -26.66 233.96 C-40.46 247.78 -54.26 261.6 -68.06 275.42 C-74.82 282.19 -81.59 288.97 -88.36 295.74 C-89.03 296.42 -89.71 297.09 -90.4 297.79 C-112.24 319.66 -134.07 341.54 -155.9 363.43 C-178.32 385.92 -200.75 408.39 -223.19 430.85 C-226.36 434.02 -229.53 437.19 -232.7 440.36 C-233.32 440.98 -233.94 441.61 -234.59 442.25 C-244.64 452.31 -254.67 462.38 -264.71 472.46 C-274.79 482.58 -284.88 492.68 -294.98 502.78 C-300.99 508.78 -306.99 514.79 -312.97 520.82 C-316.97 524.84 -320.97 528.85 -324.99 532.84 C-327.28 535.12 -329.57 537.41 -331.84 539.71 C-334.28 542.19 -336.75 544.63 -339.22 547.08 C-339.93 547.81 -340.63 548.53 -341.36 549.28 C-346.17 553.98 -346.17 553.98 -350.28 554.1 C-352.83 553.07 -354.32 552.31 -356.23 550.38 C-356.8 549.82 -357.37 549.27 -357.95 548.69 C-358.55 548.07 -359.16 547.45 -359.78 546.81 C-360.44 546.16 -361.09 545.51 -361.77 544.83 C-363.97 542.64 -366.15 540.43 -368.33 538.22 C-369.91 536.64 -371.48 535.07 -373.06 533.49 C-377.33 529.21 -381.6 524.92 -385.86 520.62 C-390.32 516.12 -394.79 511.64 -399.27 507.16 C-406.79 499.62 -414.3 492.07 -421.8 484.52 C-429.51 476.76 -437.22 469.01 -444.94 461.26 C-445.41 460.78 -445.89 460.31 -446.38 459.82 C-451.57 454.6 -456.76 449.4 -461.95 444.19 C-463.79 442.34 -465.62 440.5 -467.46 438.66 C-468.8 437.31 -468.8 437.31 -470.18 435.93 C-475.5 430.59 -480.82 425.25 -486.13 419.9 C-489.44 416.57 -492.76 413.23 -496.07 409.9 C-497.61 408.36 -499.14 406.82 -500.67 405.28 C-502.77 403.17 -504.87 401.06 -506.97 398.95 C-507.86 398.04 -507.86 398.04 -508.78 397.11 C-512.46 393.43 -516.28 389.96 -520.21 386.56 C-522.23 384.8 -524.15 382.97 -526.04 381.08 C-527.08 380.05 -527.08 380.05 -528.14 378.99 C-528.86 378.26 -529.59 377.52 -530.34 376.77 C-531.13 375.98 -531.93 375.19 -532.74 374.37 C-535.33 371.78 -537.91 369.19 -540.5 366.6 C-542.3 364.79 -544.11 362.99 -545.91 361.18 C-550.16 356.93 -554.41 352.67 -558.65 348.42 C-563.49 343.57 -568.33 338.73 -573.17 333.88 C-583.12 323.92 -593.06 313.96 -603 304 C-601.12 299.91 -598.38 297.1 -595.21 293.97 C-594.62 293.37 -594.02 292.78 -593.41 292.17 C-591.46 290.2 -589.49 288.25 -587.52 286.29 C-586.16 284.93 -584.79 283.56 -583.42 282.19 C-580.55 279.32 -577.68 276.46 -574.8 273.59 C-571.13 269.94 -567.47 266.28 -563.8 262.62 C-560.98 259.79 -558.15 256.97 -555.32 254.14 C-553.97 252.8 -552.62 251.45 -551.27 250.1 C-539.04 237.88 -539.04 237.88 -532.71 232.5 C-529.65 229.81 -526.85 226.87 -524.02 223.94 C-522.74 222.63 -521.46 221.33 -520.18 220.03 C-518.2 218 -516.22 215.97 -514.25 213.93 C-512.33 211.94 -510.39 209.97 -508.45 208 C-507.86 207.38 -507.28 206.76 -506.67 206.13 C-504.99 204.44 -504.99 204.44 -502 202 C-498.4 202.24 -496.65 203.99 -494.18 206.49 C-493.45 207.23 -492.72 207.97 -491.96 208.73 C-491.17 209.53 -490.39 210.34 -489.58 211.16 C-488.35 212.4 -488.35 212.4 -487.1 213.67 C-484.47 216.31 -481.86 218.97 -479.25 221.62 C-476.65 224.26 -474.05 226.89 -471.45 229.52 C-469.83 231.16 -468.21 232.8 -466.6 234.44 C-465.85 235.2 -465.1 235.95 -464.33 236.73 C-463.69 237.39 -463.04 238.05 -462.38 238.72 C-460.4 240.62 -458.38 242.41 -456.3 244.2 C-451.59 248.3 -447.2 252.68 -442.81 257.11 C-441.92 258 -441.04 258.88 -440.13 259.8 C-438.23 261.71 -436.32 263.62 -434.42 265.53 C-431.41 268.57 -428.38 271.6 -425.36 274.63 C-416.78 283.24 -408.2 291.85 -399.62 300.47 C-394.87 305.25 -390.12 310.02 -385.37 314.78 C-382.37 317.78 -379.38 320.79 -376.39 323.8 C-374.08 326.12 -371.77 328.44 -369.45 330.76 C-368.64 331.58 -367.83 332.4 -366.99 333.24 C-361.64 338.59 -356 343.39 -350 348 C-345.9 346.37 -343.15 343.43 -340.1 340.35 C-339.22 339.47 -339.22 339.47 -338.32 338.57 C-336.34 336.59 -334.36 334.61 -332.38 332.62 C-330.95 331.19 -329.52 329.77 -328.09 328.34 C-324.15 324.4 -320.22 320.46 -316.28 316.52 C-312.04 312.27 -307.8 308.03 -303.56 303.78 C-296.2 296.43 -288.85 289.07 -281.5 281.71 C-273.79 273.99 -266.08 266.27 -258.37 258.56 C-257.89 258.08 -257.41 257.6 -256.91 257.1 C-254.48 254.67 -252.04 252.23 -249.61 249.8 C-232.36 232.54 -215.11 215.28 -197.87 198.02 C-181.12 181.25 -164.36 164.48 -147.61 147.72 C-147.09 147.2 -146.57 146.68 -146.04 146.15 C-140.86 140.96 -135.67 135.77 -130.48 130.59 C-119.92 120.02 -109.35 109.45 -98.79 98.88 C-98.3 98.39 -97.82 97.9 -97.32 97.4 C-64.87 64.94 -32.44 32.47 0 0 Z " fill="#CCE0F2" transform="translate(889,362)"/>
<path d="M0 0 C4.62 0 9.24 0 14 0 C14 0.33 14 0.66 14 1 C9.38 1 4.76 1 0 1 C0 0.67 0 0.34 0 0 Z " fill="#000100" transform="translate(698,1277)"/>
<path d="M0 0 C4.29 0 8.58 0 13 0 C13 0.33 13 0.66 13 1 C8.71 1 4.42 1 0 1 C0 0.67 0 0.34 0 0 Z " fill="#000100" transform="translate(568,1277)"/>
<path d="M0 0 C0.33 0 0.66 0 1 0 C1 4.29 1 8.58 1 13 C0.67 13 0.34 13 0 13 C0 8.71 0 4.42 0 0 Z " fill="#000100" transform="translate(1277,699)"/>
<path d="M0 0 C0.33 0 0.66 0 1 0 C1 4.29 1 8.58 1 13 C0.67 13 0.34 13 0 13 C0 8.71 0 4.42 0 0 Z " fill="#000100" transform="translate(1277,568)"/>
<path d="M0 0 C2.31 0 4.62 0 7 0 C7 0.33 7 0.66 7 1 C4.69 1 2.38 1 0 1 C0 0.67 0 0.34 0 0 Z " fill="#000100" transform="translate(741,1272)"/>
<path d="M0 0 C1.98 0 3.96 0 6 0 C6 0.33 6 0.66 6 1 C4.02 1 2.04 1 0 1 C0 0.67 0 0.34 0 0 Z " fill="#000100" transform="translate(721,1275)"/>
<path d="M0 0 C1.98 0 3.96 0 6 0 C6 0.33 6 0.66 6 1 C4.02 1 2.04 1 0 1 C0 0.67 0 0.34 0 0 Z " fill="#000100" transform="translate(553,1275)"/>
<path d="M0 0 C1.98 0 3.96 0 6 0 C6 0.33 6 0.66 6 1 C4.02 1 2.04 1 0 1 C0 0.67 0 0.34 0 0 Z " fill="#000100" transform="translate(533,1272)"/>
<path d="M0 0 C0.33 0 0.66 0 1 0 C1 1.98 1 3.96 1 6 C0.67 6 0.34 6 0 6 C0 4.02 0 2.04 0 0 Z " fill="#000100" transform="translate(1272,741)"/>
<path d="M0 0 C0.33 0 0.66 0 1 0 C1 1.98 1 3.96 1 6 C0.67 6 0.34 6 0 6 C0 4.02 0 2.04 0 0 Z " fill="#000100" transform="translate(1275,721)"/>
<path d="M0 0 C0.33 0 0.66 0 1 0 C1 1.98 1 3.96 1 6 C0.67 6 0.34 6 0 6 C0 4.02 0 2.04 0 0 Z " fill="#000100" transform="translate(1275,553)"/>
<path d="M0 0 C0.33 0 0.66 0 1 0 C1 1.98 1 3.96 1 6 C0.67 6 0.34 6 0 6 C0 4.02 0 2.04 0 0 Z " fill="#000100" transform="translate(1272,533)"/>
<path d="M0 0 C0.33 0 0.66 0 1 0 C1 1.98 1 3.96 1 6 C0.67 6 0.34 6 0 6 C0 4.02 0 2.04 0 0 Z " fill="#000100" transform="translate(1267,506)"/>
<path d="M0 0 C1.65 0 3.3 0 5 0 C5 0.33 5 0.66 5 1 C3.35 1 1.7 1 0 1 C0 0.67 0 0.34 0 0 Z " fill="#000100" transform="translate(522,1270)"/>
<path d="M0 0 C1.65 0 3.3 0 5 0 C5 0.33 5 0.66 5 1 C3.35 1 1.7 1 0 1 C0 0.67 0 0.34 0 0 Z " fill="#000100" transform="translate(769,1267)"/>
<path d="M0 0 C1.65 0 3.3 0 5 0 C5 0.33 5 0.66 5 1 C3.35 1 1.7 1 0 1 C0 0.67 0 0.34 0 0 Z " fill="#000100" transform="translate(506,1267)"/>
<path d="M0 0 C1.65 0 3.3 0 5 0 C5 0.33 5 0.66 5 1 C3.35 1 1.7 1 0 1 C0 0.67 0 0.34 0 0 Z " fill="#000100" transform="translate(791,1262)"/>
<path d="M0 0 C0.33 0 0.66 0 1 0 C1 1.65 1 3.3 1 5 C0.67 5 0.34 5 0 5 C0 3.35 0 1.7 0 0 Z " fill="#000100" transform="translate(1267,769)"/>
<path d="M0 0 C4 1 4 1 4 1 Z " fill="#000100" transform="translate(755,1270)"/>
<path d="M0 0 C4 1 4 1 4 1 Z " fill="#000100" transform="translate(485,1262)"/>
<path d="M0 0 C1 4 1 4 1 4 Z " fill="#000100" transform="translate(1262,791)"/>
<path d="M0 0 C1 4 1 4 1 4 Z " fill="#000100" transform="translate(1262,485)"/>
<path d="M0 0 C0.66 0.33 1.32 0.66 2 1 C1.01 1 0.02 1 -1 1 C-0.67 0.67 -0.34 0.34 0 0 Z " fill="#39B64A" transform="translate(149,223)"/>
<path d="M0 0 C3 1 3 1 3 1 Z " fill="#000100" transform="translate(811,1257)"/>
<path d="M0 0 C3 1 3 1 3 1 Z " fill="#000100" transform="translate(466,1257)"/>
<path d="M0 0 C3 1 3 1 3 1 Z " fill="#000100" transform="translate(818,1255)"/>
<path d="M0 0 C3 1 3 1 3 1 Z " fill="#000100" transform="translate(406,1237)"/>
<path d="" fill="#000100" transform="translate(0,0)"/>
<path d="" fill="#000100" transform="translate(0,0)"/>
<path d="" fill="#000100" transform="translate(0,0)"/>
<path d="" fill="#000100" transform="translate(0,0)"/>
<path d="" fill="#000100" transform="translate(0,0)"/>
<path d="" fill="#000100" transform="translate(0,0)"/>
<path d="" fill="#000100" transform="translate(0,0)"/>
<path d="M0 0 C2 1 2 1 2 1 Z " fill="#000100" transform="translate(801,1260)"/>
<path d="M0 0 C2 1 2 1 2 1 Z " fill="#000100" transform="translate(477,1260)"/>
<path d="M0 0 C2 1 2 1 2 1 Z " fill="#000100" transform="translate(460,1255)"/>
<path d="M0 0 C2 1 2 1 2 1 Z " fill="#000100" transform="translate(829,1252)"/>
<path d="M0 0 C2 1 2 1 2 1 Z " fill="#000100" transform="translate(449,1252)"/>
<path d="M0 0 C2 1 2 1 2 1 Z " fill="#000100" transform="translate(844,1247)"/>
<path d="M0 0 C2 1 2 1 2 1 Z " fill="#000100" transform="translate(434,1247)"/>
<path d="M0 0 C2 1 2 1 2 1 Z " fill="#000100" transform="translate(872,1237)"/>
<path d="M0 0 C2 1 2 1 2 1 Z " fill="#000100" transform="translate(884,1232)"/>
<path d="M0 0 C2 1 2 1 2 1 Z " fill="#000100" transform="translate(394,1232)"/>
<path d="M0 0 C2 1 2 1 2 1 Z " fill="#000100" transform="translate(896,1227)"/>
<path d="M0 0 C2 1 2 1 2 1 Z " fill="#000100" transform="translate(372,1222)"/>
<path d="M0 0 C2 1 2 1 2 1 Z " fill="#000100" transform="translate(282,1172)"/>
<path d="" fill="#000100" transform="translate(0,0)"/>
<path d="" fill="#000100" transform="translate(0,0)"/>
<path d="" fill="#000100" transform="translate(0,0)"/>
<path d="" fill="#000100" transform="translate(0,0)"/>
<path d="" fill="#000100" transform="translate(0,0)"/>
<path d="" fill="#000100" transform="translate(0,0)"/>
<path d="" fill="#000100" transform="translate(0,0)"/>
<path d="" fill="#000100" transform="translate(0,0)"/>
<path d="" fill="#000100" transform="translate(0,0)"/>
<path d="" fill="#000100" transform="translate(0,0)"/>
<path d="" fill="#000100" transform="translate(0,0)"/>
<path d="" fill="#000100" transform="translate(0,0)"/>
<path d="" fill="#000100" transform="translate(0,0)"/>
<path d="" fill="#000100" transform="translate(0,0)"/>
<path d="" fill="#000100" transform="translate(0,0)"/>
<path d="" fill="#000100" transform="translate(0,0)"/>
<path d="" fill="#CCE0F2" transform="translate(0,0)"/>
<path d="" fill="#000100" transform="translate(0,0)"/>
<path d="" fill="#000100" transform="translate(0,0)"/>
<path d="" fill="#000100" transform="translate(0,0)"/>
<path d="" fill="#000100" transform="translate(0,0)"/>
<path d="" fill="#000100" transform="translate(0,0)"/>
<path d="" fill="#000100" transform="translate(0,0)"/>
<path d="" fill="#CCE0F2" transform="translate(0,0)"/>
<path d="" fill="#CCE0F2" transform="translate(0,0)"/>
<path d="" fill="#000100" transform="translate(0,0)"/>
<path d="" fill="#000100" transform="translate(0,0)"/>
<path d="" fill="#000100" transform="translate(0,0)"/>
<path d="" fill="#000100" transform="translate(0,0)"/>
<path d="" fill="#000100" transform="translate(0,0)"/>
<path d="" fill="#CCE0F2" transform="translate(0,0)"/>
<path d="" fill="#000100" transform="translate(0,0)"/>
<path d="" fill="#000100" transform="translate(0,0)"/>
<path d="" fill="#000100" transform="translate(0,0)"/>
<path d="" fill="#000100" transform="translate(0,0)"/>
<path d="" fill="#000100" transform="translate(0,0)"/>
<path d="" fill="#000100" transform="translate(0,0)"/>
<path d="" fill="#000100" transform="translate(0,0)"/>
<path d="" fill="#000100" transform="translate(0,0)"/>
<path d="" fill="#000100" transform="translate(0,0)"/>
<path d="" fill="#000100" transform="translate(0,0)"/>
<path d="" fill="#000100" transform="translate(0,0)"/>
<path d="" fill="#000100" transform="translate(0,0)"/>
<path d="" fill="#39B64A" transform="translate(0,0)"/>
<path d="" fill="#000100" transform="translate(0,0)"/>
<path d="" fill="#000100" transform="translate(0,0)"/>
<path d="" fill="#000100" transform="translate(0,0)"/>
<path d="" fill="#000100" transform="translate(0,0)"/>
<path d="" fill="#000100" transform="translate(0,0)"/>
<path d="" fill="#CCE0F2" transform="translate(0,0)"/>
<path d="" fill="#000100" transform="translate(0,0)"/>
<path d="" fill="#000100" transform="translate(0,0)"/>
<path d="" fill="#000100" transform="translate(0,0)"/>
<path d="" fill="#000100" transform="translate(0,0)"/>
<path d="" fill="#000100" transform="translate(0,0)"/>
<path d="" fill="#000100" transform="translate(0,0)"/>
<path d="" fill="#000100" transform="translate(0,0)"/>
<path d="" fill="#CCE0F2" transform="translate(0,0)"/>
<path d="" fill="#000100" transform="translate(0,0)"/>
<path d="" fill="#000100" transform="translate(0,0)"/>
<path d="" fill="#000100" transform="translate(0,0)"/>
<path d="" fill="#000100" transform="translate(0,0)"/>
<path d="" fill="#CCE0F2" transform="translate(0,0)"/>
<path d="" fill="#000100" transform="translate(0,0)"/>
<path d="" fill="#000100" transform="translate(0,0)"/>
<path d="" fill="#000100" transform="translate(0,0)"/>
<path d="" fill="#000100" transform="translate(0,0)"/>
<path d="" fill="#39B64A" transform="translate(0,0)"/>
<path d="" fill="#39B64A" transform="translate(0,0)"/>
<path d="" fill="#000100" transform="translate(0,0)"/>
<path d="" fill="#000100" transform="translate(0,0)"/>
<path d="" fill="#000100" transform="translate(0,0)"/>
<path d="" fill="#000100" transform="translate(0,0)"/>
<path d="" fill="#000100" transform="translate(0,0)"/>
<path d="" fill="#39B64A" transform="translate(0,0)"/>
<path d="" fill="#000100" transform="translate(0,0)"/>
<path d="" fill="#39B64A" transform="translate(0,0)"/>
<path d="" fill="#39B64A" transform="translate(0,0)"/>
<path d="" fill="#000100" transform="translate(0,0)"/>
<path d="" fill="#39B64A" transform="translate(0,0)"/>
<path d="" fill="#39B64A" transform="translate(0,0)"/>
<path d="" fill="#000100" transform="translate(0,0)"/>
<path d="" fill="#39B64A" transform="translate(0,0)"/>
<path d="" fill="#39B64A" transform="translate(0,0)"/>
<path d="" fill="#000100" transform="translate(0,0)"/>
<path d="" fill="#39B64A" transform="translate(0,0)"/>
<path d="" fill="#000100" transform="translate(0,0)"/>
<path d="" fill="#CCE0F2" transform="translate(0,0)"/>
<path d="" fill="#39B64A" transform="translate(0,0)"/>
<path d="" fill="#CCE0F2" transform="translate(0,0)"/>
<path d="" fill="#000100" transform="translate(0,0)"/>
<path d="" fill="#CCE0F2" transform="translate(0,0)"/>
<path d="" fill="#CCE0F2" transform="translate(0,0)"/>
<path d="" fill="#CCE0F2" transform="translate(0,0)"/>
<path d="" fill="#000100" transform="translate(0,0)"/>
<path d="" fill="#000100" transform="translate(0,0)"/>
<path d="" fill="#39B64A" transform="translate(0,0)"/>
<path d="" fill="#39B64A" transform="translate(0,0)"/>
<path d="" fill="#39B64A" transform="translate(0,0)"/>
<path d="" fill="#39B64A" transform="translate(0,0)"/>
<path d="" fill="#39B64A" transform="translate(0,0)"/>
<path d="" fill="#000100" transform="translate(0,0)"/>
</svg>
