<?xml version="1.0" encoding="UTF-8"?>
<!-- Generator: visioncortex VTracer 0.6.3 -->
<svg version="1.1" xmlns="http://www.w3.org/2000/svg" width="1280" height="1280">
<path d="M0 0 C0.86 -0 1.72 -0.01 2.6 -0.01 C3.54 -0.01 4.48 -0 5.44 -0 C6.43 -0 7.42 -0.01 8.44 -0.01 C11.73 -0.01 15.01 -0.01 18.29 -0.01 C20.56 -0.01 22.84 -0.01 25.11 -0.01 C29.88 -0.01 34.66 -0.01 39.43 -0 C45.55 0 51.68 -0 57.8 -0.01 C62.5 -0.01 67.2 -0.01 71.9 -0.01 C74.16 -0.01 76.41 -0.01 78.67 -0.01 C81.82 -0.01 84.98 -0.01 88.13 -0 C89.54 -0.01 89.54 -0.01 90.97 -0.01 C91.83 -0.01 92.69 -0 93.57 0 C94.32 0 95.07 0 95.83 0 C97.79 0.13 97.79 0.13 100.79 1.13 C104.32 1.36 107.85 1.52 111.39 1.64 C118.28 1.96 124.99 3.02 131.79 4.13 C133.97 4.46 136.14 4.8 138.32 5.13 C140.5 5.46 142.67 5.79 144.85 6.13 C145.93 6.29 147.01 6.46 148.12 6.63 C151.35 7.12 154.57 7.62 157.79 8.13 C158.91 8.3 160.04 8.48 161.2 8.66 C162.28 8.84 163.36 9.01 164.47 9.19 C165.93 9.42 165.93 9.42 167.42 9.66 C169.79 10.13 169.79 10.13 171.79 11.13 C173.02 11.23 174.26 11.33 175.54 11.44 C180.93 11.98 185.91 13.54 191.1 15.08 C194.73 16.11 198.34 16.93 202.04 17.69 C206.88 18.69 211.56 19.89 216.28 21.37 C219.18 22.24 222.1 22.97 225.04 23.69 C229.03 24.67 232.9 25.78 236.79 27.13 C239.26 27.88 241.74 28.61 244.22 29.35 C250.57 31.28 256.7 33.64 262.86 36.1 C265.74 37.29 265.74 37.29 268.79 37.13 C268.79 37.79 268.79 38.45 268.79 39.13 C269.57 39.21 270.35 39.29 271.16 39.38 C275.98 40.37 280.26 42.24 284.79 44.13 C286.41 44.75 288.04 45.38 289.66 46 C293.42 47.5 297 49.22 300.6 51.06 C304.7 53.16 308.77 54.93 313.1 56.5 C318.9 58.65 324.21 61.34 329.59 64.36 C333.25 66.4 336.8 67.85 340.79 69.13 C342.81 70.43 344.81 71.77 346.79 73.13 C351.69 75.99 356.69 78.64 361.79 81.13 C361.79 81.79 361.79 82.45 361.79 83.13 C362.84 83.27 362.84 83.27 363.92 83.42 C367.26 84.24 369.66 85.6 372.6 87.38 C373.64 88 374.69 88.63 375.76 89.28 C377.26 90.19 377.26 90.19 378.79 91.13 C380.05 91.87 380.05 91.87 381.35 92.63 C383.2 93.74 385 94.92 386.79 96.13 C386.79 96.79 386.79 97.45 386.79 98.13 C387.93 98 387.93 98 389.1 97.88 C389.99 97.96 390.87 98.04 391.79 98.13 C392.82 99.43 393.82 100.77 394.79 102.13 C397.87 103.88 397.87 103.88 400.79 105.13 C400.79 105.79 400.79 106.45 400.79 107.13 C401.72 107.44 402.64 107.75 403.6 108.06 C405.66 108.75 407.72 109.44 409.79 110.13 C409.79 111.12 409.79 112.11 409.79 113.13 C410.39 113.23 410.98 113.33 411.6 113.44 C413.79 114.13 413.79 114.13 415.17 115.54 C417.45 117.78 420.06 118.77 422.95 120.06 C424.79 121.13 424.79 121.13 426.79 124.13 C427.78 124.46 428.77 124.79 429.79 125.13 C429.79 125.79 429.79 126.45 429.79 127.13 C430.68 127.56 430.68 127.56 431.6 128 C433.79 129.13 433.79 129.13 436.79 131.13 C436.79 131.79 436.79 132.45 436.79 133.13 C437.41 133.27 438.02 133.42 438.66 133.56 C440.79 134.13 440.79 134.13 442.79 135.13 C442.79 135.79 442.79 136.45 442.79 137.13 C443.34 137.19 443.9 137.25 444.47 137.31 C447.72 138.46 449.36 140.7 451.79 143.13 C453 143.85 454.23 144.54 455.47 145.19 C458.95 147.22 459.2 147.75 460.79 151.13 C462.76 152.5 464.76 153.83 466.79 155.13 C468.14 156.44 469.48 157.77 470.79 159.13 C471.78 159.79 472.77 160.45 473.79 161.13 C475.31 162.57 476.8 164.04 478.28 165.52 C479.15 166.39 480.02 167.27 480.92 168.17 C481.82 169.08 482.73 170 483.66 170.94 C484.56 171.84 485.46 172.75 486.38 173.68 C488.07 175.37 489.75 177.06 491.43 178.76 C493.88 181.22 496.33 183.67 498.79 186.13 C507.79 195.13 507.79 195.13 510.24 197.58 C511.97 199.31 513.71 201.03 515.46 202.73 C516.33 203.58 517.2 204.44 518.1 205.31 C519.42 206.6 519.42 206.6 520.78 207.92 C522.79 210.13 522.79 210.13 522.79 212.13 C523.45 212.13 524.11 212.13 524.79 212.13 C526.27 213.81 526.27 213.81 527.97 216.13 C531.39 220.65 535.03 224.89 538.79 229.13 C540.81 231.44 542.8 233.78 544.79 236.13 C545.57 237.04 546.35 237.96 547.16 238.9 C547.99 239.89 548.81 240.87 549.66 241.88 C550.44 242.8 551.22 243.72 552.03 244.67 C553.79 247.13 553.79 247.13 553.79 250.13 C554.78 250.46 555.77 250.79 556.79 251.13 C558.83 253.56 558.83 253.56 560.97 256.56 C561.69 257.55 562.41 258.54 563.14 259.56 C564.79 262.13 564.79 262.13 564.79 264.13 C565.45 264.13 566.11 264.13 566.79 264.13 C568.79 267.13 568.79 267.13 568.79 270.13 C569.78 270.46 570.77 270.79 571.79 271.13 C573.1 272.8 573.1 272.8 574.35 274.88 C574.78 275.6 575.22 276.32 575.67 277.07 C576.79 279.13 576.79 279.13 577.79 281.81 C578.74 284.4 578.74 284.4 581.41 286.75 C583.79 289.13 583.79 289.13 583.79 292.13 C584.45 292.13 585.11 292.13 585.79 292.13 C587.83 295.03 588.79 296.53 588.79 300.13 C589.78 300.46 590.77 300.79 591.79 301.13 C593.44 303.79 593.44 303.79 595.16 307.19 C597.2 311.15 599.28 315.02 601.72 318.75 C603.79 322.13 603.79 322.13 603.79 325.13 C604.45 325.13 605.11 325.13 605.79 325.13 C606.01 325.81 606.24 326.49 606.47 327.19 C607.57 329.64 608.57 331.28 610.16 333.38 C612.53 336.59 614.08 339.81 615.63 343.48 C617.05 346.73 618.63 349.9 620.22 353.06 C620.68 353.96 620.68 353.96 621.13 354.88 C622.52 357.63 623.92 360.38 625.35 363.11 C625.8 363.98 626.26 364.85 626.72 365.75 C627.33 366.89 627.33 366.89 627.94 368.04 C628.79 370.13 628.79 370.13 628.79 374.13 C629.45 374.46 630.11 374.79 630.79 375.13 C631.72 377.13 631.72 377.13 632.66 379.69 C633.95 383.07 635.32 386.26 637.04 389.44 C638.61 392.46 639.22 394.66 638.79 398.13 C639.45 398.13 640.11 398.13 640.79 398.13 C641.08 399.03 641.08 399.03 641.37 399.96 C641.63 400.75 641.89 401.55 642.16 402.38 C642.42 403.17 642.67 403.95 642.94 404.77 C643.74 407 644.71 409.02 645.79 411.13 C647.85 416.33 649.54 421.54 651.04 426.93 C651.77 429.37 651.77 429.37 653.79 432.13 C653.97 433.4 653.97 433.4 654.16 434.69 C654.89 438.67 656.28 442.05 657.85 445.76 C658.69 447.89 659.28 449.9 659.79 452.13 C661.17 457.43 662.6 462.7 664.41 467.88 C665.71 471.63 666.3 475.19 666.79 479.13 C667.12 479.46 667.45 479.79 667.79 480.13 C668.07 482.38 668.23 484.64 668.41 486.9 C668.68 489.41 668.68 489.41 670.79 492.13 C671.15 494.46 671.48 496.79 671.79 499.13 C672.12 499.46 672.45 499.79 672.79 500.13 C673.07 502.87 673.24 505.61 673.41 508.37 C673.78 511.11 674.54 512.7 675.79 515.13 C676.17 517.45 676.17 517.45 676.35 519.81 C676.38 522.77 676.38 522.77 677.79 525.13 C678.08 528.33 678.24 531.53 678.41 534.73 C678.66 538.11 678.66 538.11 679.79 541.08 C681.34 545.81 681.24 550.54 681.44 555.47 C681.64 559.07 681.64 559.07 682.79 562.1 C683.99 565.74 684.16 569.21 684.29 573 C684.42 577.12 684.68 580.75 685.79 584.75 C687.04 589.61 687.07 594.29 687.05 599.29 C687.05 600.27 687.05 601.26 687.06 602.27 C687.07 605.51 687.06 608.74 687.05 611.97 C687.05 614.23 687.06 616.49 687.06 618.75 C687.06 623.48 687.06 628.2 687.05 632.93 C687.04 638.97 687.04 645.02 687.05 651.07 C687.06 655.73 687.06 660.39 687.05 665.05 C687.05 667.28 687.06 669.51 687.06 671.74 C687.06 674.86 687.06 677.98 687.05 681.1 C687.05 682.01 687.05 682.93 687.06 683.87 C687.02 689.03 686.41 693.23 684.79 698.13 C684.47 700.33 684.47 700.33 684.44 702.32 C684.41 703.04 684.38 703.75 684.35 704.49 C684.31 705.96 684.26 707.43 684.22 708.9 C684.04 713.36 683.23 716.87 681.79 721.13 C681.43 724.94 681.29 728.74 681.13 732.57 C680.81 735.92 680.03 738.05 678.79 741.13 C678.53 743.54 678.34 745.96 678.22 748.38 C677.89 755.03 677.89 755.03 676.79 756.13 C676.42 758.12 676.09 760.12 675.79 762.13 C674.9 768.02 674.9 768.02 673.79 769.13 C673.58 770.96 673.42 772.79 673.29 774.63 C672.9 780.02 672.9 780.02 671.79 781.13 C671.42 782.62 671.09 784.12 670.79 785.63 C669.9 790.02 669.9 790.02 668.79 791.13 C668.58 792.62 668.42 794.12 668.29 795.63 C667.9 800.02 667.9 800.02 666.79 801.13 C666.44 802.49 666.13 803.87 665.85 805.25 C664.99 809.27 663.94 813.18 662.79 817.13 C662.31 818.94 661.83 820.75 661.35 822.56 C660.09 827.22 658.54 831.63 656.79 836.13 C655.63 839.4 654.69 842.55 653.91 845.94 C652.97 849.89 651.37 853.37 649.66 857.04 C648.65 859.23 648.65 859.23 648.29 862.19 C647.71 865.57 646.44 867.95 644.84 870.96 C643.1 874.54 641.95 878.32 640.79 882.13 C640.13 882.13 639.47 882.13 638.79 882.13 C638.66 883.89 638.66 883.89 638.54 885.69 C637.97 890.32 636.27 893.21 633.79 897.13 C631.53 901.22 630.34 905.6 628.98 910.06 C627.65 913.47 625.83 916.09 623.79 919.13 C622.36 921.87 621.07 924.68 619.79 927.5 C616.17 935.35 612.66 942.97 607.79 950.13 C606.43 952.45 605.09 954.78 603.79 957.13 C603.2 958.18 603.2 958.18 602.6 959.26 C600.05 963.84 600.05 963.84 597.53 968.46 C595.23 972.71 592.78 976.68 589.91 980.58 C588.39 982.68 587.1 984.9 585.79 987.13 C584 989.87 582.2 992.58 580.22 995.19 C578.73 997.13 578.73 997.13 577.47 999.38 C576.02 1001.75 574.48 1003.87 572.79 1006.06 C570.35 1009.26 568.44 1012.45 566.79 1016.13 C566.13 1016.13 565.47 1016.13 564.79 1016.13 C564.52 1016.7 564.25 1017.28 563.97 1017.88 C562.77 1020.16 561.42 1022.08 559.85 1024.13 C559.35 1024.79 558.84 1025.45 558.32 1026.13 C557.82 1026.79 557.31 1027.45 556.79 1028.13 C556.27 1028.83 555.75 1029.53 555.22 1030.25 C553.79 1032.13 553.79 1032.13 551.79 1034.13 C551.79 1033.47 551.79 1032.81 551.79 1032.13 C550.8 1032.13 549.81 1032.13 548.79 1032.13 C548.79 1033.12 548.79 1034.11 548.79 1035.13 C549.45 1035.46 550.11 1035.79 550.79 1036.13 C550.08 1036.91 550.08 1036.91 549.36 1037.7 C545.53 1041.93 545.53 1041.93 542.35 1046.63 C540.29 1049.92 537.64 1052.32 534.82 1054.97 C532.67 1057.12 532.67 1057.12 530.97 1059.94 C528.82 1063.08 526.58 1065.57 523.88 1068.24 C523.41 1068.72 522.94 1069.19 522.45 1069.67 C520.9 1071.22 519.34 1072.75 517.78 1074.29 C516.7 1075.37 515.61 1076.45 514.53 1077.53 C511.68 1080.37 508.83 1083.19 505.97 1086.02 C501.4 1090.55 496.84 1095.09 492.27 1099.62 C490.68 1101.2 489.09 1102.78 487.5 1104.36 C486.52 1105.33 485.54 1106.3 484.56 1107.27 C483.71 1108.11 482.86 1108.96 481.98 1109.83 C479.77 1112.04 479.77 1112.04 478.11 1114.43 C477.68 1114.99 477.24 1115.55 476.79 1116.13 C476.13 1116.13 475.47 1116.13 474.79 1116.13 C474.79 1116.79 474.79 1117.45 474.79 1118.13 C473.1 1119.61 473.1 1119.61 470.79 1121.31 C465.44 1125.36 460.28 1129.57 455.6 1134.38 C453.79 1136.13 453.79 1136.13 451.46 1137.49 C448.75 1139.15 446.61 1140.97 444.29 1143.13 C441.28 1145.92 438.34 1148.08 434.79 1150.13 C432.17 1152.15 429.64 1154.25 427.1 1156.38 C424.79 1158.13 424.79 1158.13 422.79 1158.13 C422.79 1158.79 422.79 1159.45 422.79 1160.13 C421.25 1161.28 421.25 1161.28 419.16 1162.5 C416.6 1164.04 414.09 1165.59 411.6 1167.25 C409.84 1168.43 408.05 1169.56 406.22 1170.63 C403.71 1172.11 403.71 1172.11 401.29 1174.13 C398.14 1176.65 394.77 1178.56 391.29 1180.56 C388.75 1182.06 388.75 1182.06 386.6 1184 C383.38 1186.44 380.05 1188.02 376.42 1189.76 C373.02 1191.52 369.93 1193.61 366.79 1195.79 C364.85 1197.09 362.89 1198.11 360.79 1199.13 C358.12 1200.67 355.6 1202.26 353.1 1204.06 C350.47 1205.7 348.44 1206.7 345.6 1207.75 C339.4 1210.11 333.65 1213.28 327.83 1216.42 C320.25 1220.5 312.49 1224.03 304.41 1227 C302.2 1227.95 300.38 1228.98 298.35 1230.25 C295.08 1232.19 292.62 1232.5 288.79 1232.13 C288.79 1232.79 288.79 1233.45 288.79 1234.13 C287.53 1234.52 286.27 1234.91 284.97 1235.31 C280.26 1236.87 275.84 1238.88 271.37 1241.04 C268.82 1242.11 266.49 1242.62 263.79 1243.13 C262.08 1243.87 260.37 1244.61 258.67 1245.37 C256.72 1246.15 254.83 1246.66 252.79 1247.13 C248.9 1248.03 245.44 1249.53 241.79 1251.13 C239.47 1251.84 237.13 1252.5 234.79 1253.13 C232.87 1253.65 230.95 1254.17 229.04 1254.69 C228.11 1254.94 227.19 1255.19 226.24 1255.44 C224.41 1255.95 222.59 1256.53 220.79 1257.13 C217.12 1258.09 213.42 1258.85 209.71 1259.63 C207.79 1259.95 207.79 1259.95 206.79 1261.13 C204.53 1261.41 202.28 1261.57 200.01 1261.75 C197.51 1262.02 197.51 1262.02 194.79 1264.13 C192.46 1264.49 190.12 1264.82 187.79 1265.13 C187.46 1265.46 187.13 1265.79 186.79 1266.13 C184.04 1266.41 181.3 1266.58 178.55 1266.75 C175.81 1267.12 174.21 1267.88 171.79 1269.13 C169.46 1269.51 169.46 1269.51 167.1 1269.69 C164.15 1269.72 164.15 1269.72 161.79 1271.13 C158.29 1271.41 154.8 1271.58 151.3 1271.75 C147.89 1271.95 147.89 1271.95 145.3 1273.13 C141.96 1274.46 138.93 1274.48 135.35 1274.63 C131.58 1274.78 128.39 1274.93 124.81 1276.13 C121.17 1277.33 117.7 1277.5 113.91 1277.63 C109.79 1277.76 106.16 1278.02 102.17 1279.13 C97.31 1280.38 92.63 1280.41 87.64 1280.39 C86.66 1280.39 85.68 1280.39 84.66 1280.4 C81.43 1280.41 78.2 1280.4 74.97 1280.39 C72.72 1280.39 70.46 1280.4 68.21 1280.4 C63.49 1280.4 58.76 1280.4 54.04 1280.39 C48 1280.38 41.97 1280.38 35.93 1280.39 C31.27 1280.4 26.61 1280.4 21.96 1280.39 C19.73 1280.39 17.5 1280.39 15.28 1280.4 C12.16 1280.4 9.05 1280.4 5.93 1280.39 C5.02 1280.39 4.11 1280.39 3.17 1280.4 C-2.31 1280.36 -6.94 1279.59 -12.21 1278.13 C-15.6 1277.76 -18.99 1277.67 -22.39 1277.56 C-26.7 1277.37 -30.15 1276.49 -34.21 1275.13 C-36.71 1274.89 -39.21 1274.73 -41.71 1274.63 C-46.65 1274.43 -50.56 1273.76 -55.21 1272.13 C-56.98 1271.88 -58.75 1271.69 -60.53 1271.56 C-65.11 1271.23 -65.11 1271.23 -66.21 1270.13 C-69.22 1269.84 -72.22 1269.68 -75.23 1269.51 C-78.13 1269.14 -79.66 1268.42 -82.21 1267.13 C-84.99 1266.71 -84.99 1266.71 -87.9 1266.56 C-93.11 1266.23 -93.11 1266.23 -94.21 1265.13 C-95.7 1264.76 -97.21 1264.43 -98.71 1264.13 C-103.1 1263.24 -103.1 1263.24 -104.21 1262.13 C-105.71 1261.92 -107.21 1261.76 -108.71 1261.63 C-113.1 1261.24 -113.1 1261.24 -114.21 1260.13 C-115.58 1259.78 -116.96 1259.47 -118.34 1259.19 C-123.09 1258.17 -127.72 1256.88 -132.38 1255.47 C-133.56 1255.12 -133.56 1255.12 -134.78 1254.75 C-136.03 1254.37 -136.03 1254.37 -137.31 1253.98 C-139.49 1253.34 -141.67 1252.72 -143.86 1252.12 C-145.11 1251.77 -146.36 1251.42 -147.65 1251.06 C-148.82 1250.74 -150 1250.42 -151.21 1250.09 C-154.21 1249.13 -154.21 1249.13 -157.21 1247.13 C-158.51 1246.94 -158.51 1246.94 -159.84 1246.75 C-163.62 1246.05 -166.58 1244.66 -170.05 1243.03 C-172.31 1241.99 -172.31 1241.99 -175.34 1241.63 C-178.47 1241.08 -180.52 1239.83 -183.2 1238.18 C-186.97 1236.2 -191.11 1235.22 -195.21 1234.13 C-195.21 1233.47 -195.21 1232.81 -195.21 1232.13 C-196.41 1232.04 -197.61 1231.96 -198.84 1231.88 C-203.18 1231.35 -205.62 1229.62 -209.21 1227.13 C-212.17 1225.97 -215.17 1225.02 -218.21 1224.13 C-218.21 1223.47 -218.21 1222.81 -218.21 1222.13 C-219.39 1221.96 -220.56 1221.8 -221.78 1221.63 C-228.07 1220.27 -233.39 1217.02 -238.96 1213.9 C-242.09 1212.07 -242.09 1212.07 -245.21 1211.13 C-245.21 1210.47 -245.21 1209.81 -245.21 1209.13 C-246.17 1209 -246.17 1209 -247.15 1208.88 C-253.67 1207.28 -259.12 1204.51 -264.21 1200.13 C-267.46 1197.99 -270.74 1196.49 -274.33 1195.01 C-277.12 1193.71 -279.65 1192.06 -282.23 1190.39 C-284.11 1189.19 -286.02 1188.09 -287.96 1187 C-290.57 1185.5 -292.84 1183.95 -295.21 1182.13 C-296.88 1181.12 -298.54 1180.12 -300.21 1179.13 C-302.96 1177.34 -305.66 1175.54 -308.28 1173.56 C-310.21 1172.07 -310.21 1172.07 -312.46 1170.81 C-314.83 1169.36 -316.95 1167.82 -319.15 1166.13 C-321.58 1164.27 -323.7 1162.88 -326.46 1161.5 C-329.41 1160.03 -330.93 1158.48 -333.21 1156.13 C-336.73 1153.31 -340.41 1150.7 -344.07 1148.07 C-345.05 1147.37 -346.02 1146.66 -347.03 1145.94 C-347.94 1145.29 -348.85 1144.63 -349.79 1143.96 C-351.8 1142.44 -353.59 1141.04 -355.21 1139.13 C-355.21 1138.47 -355.21 1137.81 -355.21 1137.13 C-356.1 1136.9 -356.99 1136.67 -357.9 1136.44 C-361.68 1134.94 -363.48 1133.08 -366.21 1130.13 C-367.2 1129.47 -368.19 1128.81 -369.21 1128.13 C-369.67 1127.66 -370.13 1127.2 -370.61 1126.72 C-373.26 1124.08 -376.34 1121.98 -379.35 1119.75 C-380.27 1118.95 -380.27 1118.95 -381.21 1118.13 C-381.21 1117.47 -381.21 1116.81 -381.21 1116.13 C-381.8 1115.85 -382.4 1115.58 -383.01 1115.29 C-388.9 1112.18 -393.15 1107.14 -397.4 1102.13 C-399.81 1099.47 -402.5 1097.23 -405.24 1094.92 C-407.94 1092.47 -410.21 1089.74 -412.56 1086.96 C-414.33 1084.91 -414.33 1084.91 -417.21 1082.63 C-422.11 1078.55 -426.55 1073.98 -429.21 1068.13 C-429.87 1068.13 -430.53 1068.13 -431.21 1068.13 C-432.67 1066.51 -434.05 1064.83 -435.4 1063.13 C-438.74 1058.95 -442.14 1054.87 -445.71 1050.88 C-450.21 1045.64 -450.21 1045.64 -450.21 1043.13 C-451.2 1042.8 -452.19 1042.47 -453.21 1042.13 C-455.93 1039.86 -457.45 1037.16 -459.21 1034.13 C-461.81 1030.03 -461.81 1030.03 -464.96 1026.38 C-465.38 1025.96 -465.79 1025.55 -466.21 1025.13 C-466.21 1024.47 -466.21 1023.81 -466.21 1023.13 C-466.87 1023.13 -467.53 1023.13 -468.21 1023.13 C-468.48 1022.53 -468.75 1021.93 -469.03 1021.31 C-470.08 1019.12 -470.08 1019.12 -471.65 1017.71 C-473.25 1016.09 -474.3 1014.53 -475.46 1012.56 C-478 1008.41 -480.76 1004.44 -483.57 1000.46 C-484.92 998.54 -486.24 996.6 -487.53 994.63 C-489.12 992.09 -489.12 992.09 -491.21 990.13 C-491.21 989.14 -491.21 988.15 -491.21 987.13 C-491.87 987.13 -492.53 987.13 -493.21 987.13 C-493.54 986.52 -493.87 985.92 -494.2 985.3 C-494.64 984.5 -495.08 983.7 -495.53 982.88 C-495.95 982.09 -496.38 981.3 -496.83 980.49 C-498.16 978.1 -498.16 978.1 -499.88 976.02 C-501.21 974.13 -501.21 974.13 -501.21 971.13 C-501.87 971.13 -502.53 971.13 -503.21 971.13 C-504.2 969.4 -505.18 967.67 -506.15 965.94 C-506.7 964.98 -507.24 964.01 -507.8 963.02 C-509.12 960.32 -509.79 958.08 -510.21 955.13 C-510.87 955.13 -511.53 955.13 -512.21 955.13 C-512.79 953.95 -513.37 952.78 -513.96 951.56 C-515.58 948.32 -517.33 945.17 -519.15 942.03 C-521.32 938.14 -523.24 934.12 -525.21 930.13 C-526.02 928.5 -526.84 926.88 -527.65 925.25 C-529.03 922.51 -530.4 919.76 -531.76 917.01 C-532.28 915.95 -532.8 914.9 -533.34 913.81 C-533.81 912.85 -534.29 911.88 -534.78 910.89 C-536.17 908.11 -536.17 908.11 -537.83 905.52 C-539.12 903.28 -539.66 901.61 -540.21 899.13 C-541.21 896.81 -542.29 894.53 -543.37 892.25 C-544.21 890.13 -544.21 890.13 -544.21 887.13 C-544.87 886.8 -545.53 886.47 -546.21 886.13 C-546.89 884.48 -546.89 884.48 -547.53 882.31 C-549.09 877.3 -551.12 872.54 -553.22 867.73 C-554.21 865.13 -554.21 865.13 -554.21 862.13 C-554.87 862.13 -555.53 862.13 -556.21 862.13 C-556.3 861.34 -556.38 860.56 -556.46 859.75 C-557.09 856.73 -557.85 854.38 -559.03 851.56 C-561.78 844.94 -564.01 838.07 -565.71 831.09 C-566.37 828.53 -567.23 826.06 -568.09 823.56 C-570.02 817.8 -571.69 812.01 -573.21 806.13 C-573.51 805.02 -573.81 803.9 -574.11 802.76 C-576.85 792.23 -578.98 781.59 -581.06 770.91 C-581.75 767.41 -582.47 763.92 -583.27 760.44 C-584.27 756.03 -584.98 751.6 -585.65 747.13 C-586.72 740.06 -586.72 740.06 -588 733.03 C-589.98 722.98 -590.9 712.99 -591.57 702.77 C-591.64 701.69 -591.71 700.62 -591.78 699.51 C-591.87 698.06 -591.87 698.06 -591.96 696.58 C-592.14 693.99 -592.14 693.99 -593.21 691.13 C-593.3 689.74 -593.34 688.34 -593.34 686.95 C-593.34 686.1 -593.35 685.25 -593.35 684.37 C-593.35 683.44 -593.34 682.51 -593.34 681.55 C-593.34 680.57 -593.35 679.59 -593.35 678.57 C-593.35 675.32 -593.35 672.06 -593.35 668.8 C-593.35 666.54 -593.35 664.28 -593.35 662.01 C-593.35 657.26 -593.35 652.51 -593.34 647.76 C-593.34 641.68 -593.34 635.6 -593.35 629.53 C-593.35 624.85 -593.35 620.17 -593.35 615.49 C-593.35 613.25 -593.35 611.01 -593.35 608.77 C-593.35 605.63 -593.35 602.49 -593.34 599.35 C-593.34 598.43 -593.35 597.51 -593.35 596.56 C-593.33 591.32 -592.95 586.31 -592.21 581.13 C-591.94 577.78 -591.72 574.43 -591.49 571.08 C-591.21 568.13 -591.21 568.13 -590.73 566.21 C-590.2 564.09 -589.93 562.07 -589.71 559.9 C-589.63 559.12 -589.55 558.33 -589.46 557.52 C-589.3 555.88 -589.13 554.24 -588.96 552.59 C-588.84 551.42 -588.84 551.42 -588.71 550.22 C-588.6 549.15 -588.6 549.15 -588.49 548.06 C-588.21 546.13 -588.21 546.13 -587.21 543.13 C-586.99 540.9 -586.81 538.67 -586.65 536.44 C-586.57 535.26 -586.48 534.08 -586.4 532.87 C-586.34 531.96 -586.28 531.06 -586.21 530.13 C-585.55 530.13 -584.89 530.13 -584.21 530.13 C-584.21 525.84 -584.21 521.55 -584.21 517.13 C-583.55 517.13 -582.89 517.13 -582.21 517.13 C-581.88 512.84 -581.55 508.55 -581.21 504.13 C-580.55 504.13 -579.89 504.13 -579.21 504.13 C-579.25 502.93 -579.3 501.73 -579.34 500.5 C-579.34 496.67 -578.52 493.75 -577.21 490.13 C-576.84 487.8 -576.49 485.47 -576.21 483.13 C-575.55 483.13 -574.89 483.13 -574.21 483.13 C-574.54 482.14 -574.87 481.15 -575.21 480.13 C-574.59 478.11 -573.91 476.12 -573.21 474.13 C-572.7 472.13 -572.2 470.13 -571.71 468.13 C-570.71 464.05 -569.6 460.09 -568.21 456.13 C-567.87 454.8 -567.54 453.46 -567.21 452.13 C-566.74 450.29 -566.26 448.46 -565.78 446.63 C-565.53 445.69 -565.28 444.75 -565.03 443.78 C-564.29 441.38 -563.36 439.35 -562.21 437.13 C-561.11 433.49 -560.1 429.83 -559.21 426.13 C-558.55 426.13 -557.89 426.13 -557.21 426.13 C-556.88 423.16 -556.55 420.19 -556.21 417.13 C-555.88 417.13 -555.55 417.13 -555.21 417.13 C-555.03 415.95 -555.03 415.95 -554.84 414.75 C-554.21 412.13 -554.21 412.13 -552.21 410.13 C-551.81 407.8 -551.47 405.47 -551.21 403.13 C-550.55 403.13 -549.89 403.13 -549.21 403.13 C-549.09 402.43 -548.97 401.72 -548.84 401 C-548.17 397.95 -547.24 395.07 -546.21 392.13 C-545.88 392.13 -545.55 392.13 -545.21 392.13 C-545.09 391.16 -544.97 390.19 -544.84 389.19 C-544.63 388.18 -544.43 387.17 -544.21 386.13 C-543.55 385.8 -542.89 385.47 -542.21 385.13 C-541.56 382.6 -541.56 382.6 -541.21 380.13 C-540.55 380.13 -539.89 380.13 -539.21 380.13 C-539.21 378.81 -539.21 377.49 -539.21 376.13 C-538.55 375.8 -537.89 375.47 -537.21 375.13 C-536.86 373.13 -536.53 371.13 -536.21 369.13 C-535.12 366.49 -534.25 365.16 -532.21 363.13 C-531.67 361.81 -531.17 360.48 -530.71 359.13 C-529.79 356.39 -529.31 355.22 -527.21 353.13 C-527.07 352.34 -526.92 351.56 -526.78 350.75 C-526.15 347.82 -525.1 346.41 -523.21 344.13 C-522.32 342.33 -521.54 340.48 -520.78 338.63 C-519.21 335.13 -519.21 335.13 -517.21 333.13 C-516.88 332.14 -516.55 331.15 -516.21 330.13 C-515.55 330.13 -514.89 330.13 -514.21 330.13 C-514.13 329.47 -514.05 328.81 -513.96 328.13 C-512.97 324.14 -511.14 320.74 -509.21 317.13 C-508.55 317.13 -507.89 317.13 -507.21 317.13 C-505.89 313.83 -504.57 310.53 -503.21 307.13 C-502.55 307.13 -501.89 307.13 -501.21 307.13 C-500.88 306.14 -500.55 305.15 -500.21 304.13 C-499.56 302.79 -498.9 301.45 -498.21 300.13 C-497.55 300.13 -496.89 300.13 -496.21 300.13 C-496.21 299.14 -496.21 298.15 -496.21 297.13 C-495.55 297.13 -494.89 297.13 -494.21 297.13 C-494.71 295.64 -494.71 295.64 -495.21 294.13 C-494.57 293.9 -493.93 293.67 -493.28 293.44 C-492.59 293.01 -491.91 292.57 -491.21 292.13 C-491.05 291.3 -490.88 290.48 -490.71 289.63 C-490.55 288.8 -490.38 287.98 -490.21 287.13 C-488.15 285.81 -488.15 285.81 -486.21 285.13 C-486.27 284.36 -486.34 283.6 -486.4 282.81 C-486.21 280.13 -486.21 280.13 -484.84 278.31 C-483.21 277.13 -483.21 277.13 -481.21 277.13 C-481.13 276.59 -481.05 276.05 -480.96 275.5 C-479.94 272.26 -478.21 269.85 -476.21 267.13 C-475.55 266.8 -474.89 266.47 -474.21 266.13 C-474.21 265.14 -474.21 264.15 -474.21 263.13 C-473.22 262.8 -472.23 262.47 -471.21 262.13 C-471.21 261.47 -471.21 260.81 -471.21 260.13 C-470.55 260.13 -469.89 260.13 -469.21 260.13 C-469.17 259.43 -469.13 258.72 -469.09 258 C-468.02 254.48 -466.36 252.99 -463.69 250.56 C-461.97 248.99 -461.97 248.99 -460.21 246.13 C-459.74 245.67 -459.26 245.22 -458.78 244.75 C-457.05 243.09 -457.05 243.09 -455.71 240.5 C-454.21 238.13 -454.21 238.13 -451.21 237.13 C-450.86 235.8 -450.53 234.46 -450.21 233.13 C-448.69 231.09 -448.69 231.09 -446.84 229.06 C-446.23 228.39 -445.63 227.72 -445 227.03 C-443.9 225.85 -442.77 224.69 -441.61 223.57 C-439.98 221.97 -439.98 221.97 -438.21 219.13 C-437.72 218.65 -437.22 218.18 -436.71 217.69 C-435.13 216.22 -435.13 216.22 -434.41 214.33 C-432.86 211.47 -430.87 209.55 -428.57 207.25 C-428.1 206.78 -427.63 206.31 -427.14 205.83 C-425.59 204.28 -424.03 202.74 -422.47 201.19 C-421.39 200.11 -420.31 199.03 -419.22 197.95 C-416.37 195.11 -413.51 192.27 -410.65 189.43 C-407.76 186.55 -404.86 183.67 -401.97 180.79 C-396.87 175.71 -391.77 170.63 -386.66 165.56 C-384.93 163.84 -383.23 162.11 -381.54 160.35 C-379.19 158.1 -378.25 157.78 -375.21 157.13 C-374.88 156.14 -374.55 155.15 -374.21 154.13 C-373.51 153.71 -372.81 153.3 -372.09 152.88 C-368.2 150.51 -365.34 147.4 -362.21 144.13 C-361.55 143.47 -360.89 142.81 -360.21 142.13 C-358.89 142.13 -357.57 142.13 -356.21 142.13 C-355.97 141.51 -355.72 140.89 -355.46 140.25 C-353.97 137.72 -352.84 137.32 -350.21 136.13 C-349.19 135.15 -348.19 134.15 -347.21 133.13 C-345.56 131.78 -343.89 130.45 -342.21 129.13 C-341.7 128.68 -341.19 128.22 -340.66 127.76 C-336.53 124.13 -336.53 124.13 -333.21 124.13 C-333.21 123.47 -333.21 122.81 -333.21 122.13 C-327.97 117.13 -327.97 117.13 -323.21 117.13 C-322.87 116.17 -322.87 116.17 -322.53 115.19 C-322.09 114.51 -321.66 113.83 -321.21 113.13 C-319.55 112.79 -317.88 112.46 -316.21 112.13 C-315.9 111.47 -315.59 110.81 -315.28 110.13 C-314.92 109.47 -314.57 108.81 -314.21 108.13 C-312.21 107.79 -310.21 107.46 -308.21 107.13 C-307.51 105.81 -306.85 104.48 -306.21 103.13 C-304.55 102.79 -302.88 102.46 -301.21 102.13 C-300.9 101.47 -300.59 100.81 -300.28 100.13 C-299.92 99.47 -299.57 98.81 -299.21 98.13 C-297.21 97.79 -295.21 97.46 -293.21 97.13 C-292.12 95.19 -292.12 95.19 -291.21 93.13 C-289.57 92.4 -287.9 91.74 -286.21 91.13 C-284.2 89.81 -282.2 88.48 -280.21 87.13 C-278.88 86.46 -277.55 85.79 -276.21 85.13 C-275.57 84.61 -274.93 84.1 -274.28 83.56 C-271.92 81.92 -270.04 81.52 -267.21 81.13 C-267.21 80.47 -267.21 79.81 -267.21 79.13 C-265.89 79.13 -264.57 79.13 -263.21 79.13 C-263.21 78.47 -263.21 77.81 -263.21 77.13 C-262.57 77 -261.93 76.88 -261.28 76.75 C-260.59 76.55 -259.91 76.34 -259.21 76.13 C-258.88 75.47 -258.55 74.81 -258.21 74.13 C-255.92 73.25 -253.6 72.59 -251.24 71.91 C-249.03 71.32 -249.03 71.32 -248.21 69.13 C-245.92 68.25 -243.6 67.59 -241.24 66.91 C-239.03 66.32 -239.03 66.32 -238.21 64.13 C-235.92 63.25 -233.6 62.59 -231.24 61.91 C-229.03 61.32 -229.03 61.32 -228.21 59.13 C-225.76 57.58 -223.92 57.08 -221.03 56.63 C-220.1 56.46 -219.17 56.3 -218.21 56.13 C-217.88 55.47 -217.55 54.81 -217.21 54.13 C-215.89 54.13 -214.57 54.13 -213.21 54.13 C-213.21 53.47 -213.21 52.81 -213.21 52.13 C-211.23 51.8 -209.25 51.47 -207.21 51.13 C-207.21 50.47 -207.21 49.81 -207.21 49.13 C-205.23 48.8 -203.25 48.47 -201.21 48.13 C-201.21 47.8 -201.21 47.47 -201.21 47.13 C-193.78 44.98 -193.78 44.98 -190.21 44.13 C-190.21 43.47 -190.21 42.81 -190.21 42.13 C-188.93 42 -187.66 41.88 -186.34 41.75 C-182.86 41.44 -182.86 41.44 -180.21 39.13 C-178.19 38.28 -178.19 38.28 -175.84 37.5 C-175.07 37.24 -174.3 36.98 -173.5 36.71 C-171.21 36.13 -171.21 36.13 -167.21 36.13 C-167.21 35.47 -167.21 34.81 -167.21 34.13 C-162.88 32.1 -158.93 31.61 -154.21 31.13 C-154.21 30.47 -154.21 29.81 -154.21 29.13 C-153.08 28.98 -151.94 28.84 -150.78 28.69 C-147.41 28.52 -147.41 28.52 -146.21 27.13 C-144.18 26.9 -142.16 26.68 -140.12 26.51 C-137.98 26.26 -137.98 26.26 -136.21 24.13 C-131.43 22.53 -126.59 21.58 -121.65 20.64 C-119.45 20.18 -117.35 19.6 -115.21 18.94 C-112.21 18.13 -112.21 18.13 -110.21 19.13 C-110.21 18.47 -110.21 17.81 -110.21 17.13 C-109.29 17.05 -109.29 17.05 -108.35 16.98 C-107.14 16.87 -107.14 16.87 -105.9 16.75 C-105.1 16.68 -104.3 16.61 -103.47 16.54 C-100.94 16.23 -100.94 16.23 -98.21 14.13 C-95.95 13.93 -95.95 13.93 -93.53 14 C-92.31 14.03 -92.31 14.03 -91.08 14.06 C-90.46 14.08 -89.85 14.1 -89.21 14.13 C-89.21 13.47 -89.21 12.81 -89.21 12.13 C-88.21 12.08 -87.21 12.03 -86.19 11.98 C-84.9 11.9 -83.6 11.83 -82.28 11.75 C-80.99 11.68 -79.7 11.61 -78.37 11.54 C-77.33 11.4 -76.29 11.27 -75.21 11.13 C-74.88 10.47 -74.55 9.81 -74.21 9.13 C-71.74 8.75 -71.74 8.75 -68.71 8.56 C-65.15 8.63 -65.15 8.63 -62.21 7.13 C-60.36 6.94 -58.51 6.8 -56.65 6.69 C-53.07 6.42 -49.72 6.13 -46.28 5.13 C-41.65 3.81 -36.95 3.65 -32.17 3.37 C-29.36 3.22 -29.36 3.22 -27.29 2.63 C-25.15 2.11 -23.19 1.94 -20.99 1.85 C-19.81 1.79 -19.81 1.79 -18.61 1.73 C-16.97 1.66 -15.32 1.59 -13.68 1.52 C-12.9 1.48 -12.11 1.45 -11.3 1.41 C-10.23 1.36 -10.23 1.36 -9.14 1.32 C-5.94 1 -3.28 0 0 0 Z " fill="#EF4234" transform="translate(593.212890625,-0.126983642578125)"/>
<path d="M0 0 C1.14 0.43 1.14 0.43 2.31 0.87 C16.71 6.71 28.37 15.85 39.13 26.84 C40.34 28.06 41.56 29.27 42.77 30.48 C46.01 33.73 49.24 36.99 52.46 40.26 C55.86 43.7 59.27 47.12 62.68 50.54 C69.13 57.01 75.56 63.5 81.99 69.99 C91.42 79.51 100.87 89.02 110.33 98.52 C111.73 99.93 113.13 101.33 114.53 102.74 C115.21 103.43 115.9 104.12 116.6 104.83 C120.64 108.89 124.68 112.96 128.72 117.03 C131.23 119.57 133.74 122.1 136.26 124.63 C137.42 125.8 138.57 126.97 139.73 128.14 C145.16 133.63 150.59 139.05 156.46 144.06 C158.38 145.71 160.17 147.46 161.92 149.28 C162.56 149.94 163.21 150.6 163.87 151.29 C164.54 151.98 165.2 152.67 165.89 153.38 C167.34 154.86 168.8 156.35 170.25 157.83 C172.52 160.15 174.78 162.47 177.03 164.8 C179.22 167.07 181.42 169.32 183.64 171.56 C184.31 172.27 184.98 172.97 185.67 173.7 C186.3 174.34 186.94 174.98 187.59 175.63 C188.14 176.2 188.69 176.77 189.26 177.35 C191.03 178.63 191.03 178.63 193.26 178.39 C197.36 176.99 199.69 174.34 202.68 171.27 C203.33 170.62 203.98 169.97 204.65 169.3 C206.83 167.11 209 164.91 211.17 162.7 C212.73 161.13 214.3 159.56 215.86 157.99 C219.23 154.61 222.59 151.22 225.95 147.82 C231.27 142.44 236.6 137.08 241.94 131.72 C249.43 124.19 256.92 116.66 264.4 109.12 C264.88 108.65 265.35 108.17 265.84 107.68 C271.13 102.35 276.41 97.03 281.69 91.7 C283.6 89.77 285.51 87.85 287.42 85.92 C287.89 85.45 288.36 84.97 288.85 84.48 C296.74 76.53 304.63 68.59 312.54 60.65 C317.84 55.33 323.12 50 328.4 44.67 C331.7 41.33 335.01 38 338.33 34.68 C339.85 33.15 341.37 31.61 342.88 30.07 C354.79 17.97 366.88 7.9 382.81 1.5 C383.65 1.14 384.5 0.78 385.36 0.41 C411.06 -10.28 439.28 -9.84 465.02 0.66 C478.02 6.25 488.09 13.45 498.06 23.44 C499.04 24.31 499.04 24.31 500.04 25.2 C519.2 42.5 528.04 69.44 530.06 94.44 C530.75 112.39 527.38 129.81 519.88 146.12 C519.54 146.87 519.2 147.62 518.85 148.39 C512.14 162.32 501.11 172.8 490.28 183.53 C488.69 185.11 487.1 186.7 485.52 188.28 C482.13 191.67 478.73 195.05 475.32 198.43 C469.95 203.77 464.58 209.12 459.22 214.48 C451.7 221.98 444.18 229.47 436.65 236.96 C436.18 237.44 435.7 237.91 435.21 238.4 C433.28 240.32 431.35 242.24 429.42 244.16 C424.09 249.47 418.76 254.78 413.43 260.08 C412.95 260.56 412.47 261.04 411.98 261.53 C404.02 269.46 396.06 277.39 388.1 285.33 C382.77 290.65 377.42 295.97 372.08 301.29 C368.76 304.58 365.45 307.89 362.14 311.19 C360.6 312.72 359.06 314.25 357.52 315.78 C355.42 317.87 353.33 319.96 351.23 322.05 C350.62 322.65 350 323.26 349.36 323.89 C346.04 327.22 346.04 327.22 344.06 331.44 C345.24 332.61 345.24 332.61 346.43 333.8 C365.47 352.82 384.51 371.84 403.55 390.87 C412.75 400.07 421.96 409.27 431.17 418.47 C439.19 426.48 447.22 434.5 455.24 442.52 C459.49 446.77 463.74 451.01 467.99 455.26 C471.99 459.25 475.99 463.25 479.99 467.25 C481.46 468.72 482.92 470.18 484.39 471.65 C510.35 497.54 529.35 523.96 530.38 562.12 C529.81 593.27 517.8 619.26 495.88 641.11 C489.84 646.92 483.36 651.35 476.06 655.44 C475.21 655.92 474.37 656.41 473.49 656.91 C463.21 662.45 452.28 665.49 440.81 667.25 C440.01 667.37 439.21 667.5 438.38 667.63 C416.4 670.67 393.98 666.28 374.38 656.19 C373.72 655.85 373.07 655.52 372.4 655.18 C359.01 647.94 348.63 637.42 338.01 626.73 C336.44 625.15 334.86 623.57 333.28 622 C329.02 617.74 324.78 613.48 320.54 609.22 C316.09 604.75 311.63 600.29 307.18 595.84 C299.71 588.36 292.25 580.88 284.8 573.4 C277.12 565.7 269.44 558 261.76 550.3 C261.29 549.83 260.81 549.35 260.32 548.86 C257.94 546.48 255.56 544.09 253.18 541.7 C233.46 521.96 213.76 502.2 194.06 482.44 C190.32 483.85 187.95 485.18 185.12 488.03 C184.38 488.76 183.64 489.5 182.88 490.25 C182.1 491.05 181.31 491.84 180.51 492.66 C179.69 493.49 178.87 494.31 178.02 495.15 C176.29 496.89 174.56 498.64 172.83 500.38 C170.21 503.04 167.58 505.68 164.94 508.32 C163.25 510.02 161.57 511.72 159.88 513.41 C158.71 514.59 158.71 514.59 157.52 515.79 C156.78 516.54 156.03 517.3 155.27 518.07 C154.62 518.72 153.98 519.38 153.31 520.05 C151.46 522.01 149.7 524.01 147.94 526.06 C143.47 531.2 138.66 535.98 133.85 540.78 C132.84 541.8 131.82 542.81 130.81 543.82 C128.08 546.56 125.35 549.29 122.62 552.02 C119.74 554.89 116.87 557.76 114 560.63 C109.18 565.45 104.36 570.27 99.54 575.09 C93.98 580.64 88.43 586.2 82.87 591.76 C78.09 596.55 73.3 601.34 68.51 606.12 C65.66 608.98 62.81 611.83 59.95 614.68 C57.27 617.37 54.59 620.05 51.91 622.73 C50.93 623.7 49.95 624.68 48.97 625.66 C44.06 630.59 39.11 635.4 33.82 639.92 C31.93 641.56 30.09 643.24 28.25 644.94 C9.63 661.11 -15.97 669.22 -40.46 668.69 C-73.18 666.34 -100.37 653.67 -122.42 629.22 C-134.92 614.49 -141.77 596.07 -144.69 577.19 C-144.82 576.36 -144.94 575.53 -145.07 574.68 C-147.98 554.18 -143.14 533.76 -134.19 515.31 C-133.9 514.72 -133.61 514.12 -133.32 513.5 C-126.24 499.6 -116.13 489.1 -105.12 478.28 C-103.53 476.7 -101.94 475.12 -100.35 473.54 C-96.95 470.17 -93.55 466.8 -90.14 463.43 C-84.75 458.11 -79.38 452.77 -74.01 447.43 C-66.48 439.95 -58.95 432.47 -51.42 425 C-50.7 424.29 -50.7 424.29 -49.97 423.57 C-44.64 418.28 -39.31 413 -33.98 407.73 C-33.5 407.25 -33.02 406.77 -32.52 406.28 C-32.04 405.81 -31.56 405.33 -31.06 404.84 C-30.09 403.88 -29.12 402.92 -28.15 401.96 C-27.68 401.49 -27.2 401.01 -26.7 400.53 C-18.72 392.63 -10.75 384.71 -2.79 376.79 C2.55 371.47 7.9 366.18 13.27 360.89 C16.59 357.61 19.9 354.31 23.21 351.01 C24.75 349.48 26.29 347.95 27.85 346.44 C29.96 344.37 32.05 342.28 34.13 340.18 C34.75 339.58 35.38 338.98 36.02 338.37 C38.57 335.76 40 334.13 40.32 330.44 C38.58 326.29 36.02 323.73 32.81 320.62 C32.15 319.96 31.49 319.3 30.81 318.62 C28.6 316.41 26.36 314.21 24.13 312.02 C22.54 310.43 20.94 308.85 19.35 307.26 C15.93 303.85 12.49 300.44 9.04 297.04 C3.59 291.66 -1.84 286.26 -7.27 280.85 C-14.89 273.26 -22.52 265.68 -30.16 258.11 C-30.64 257.63 -31.13 257.15 -31.63 256.66 C-35.55 252.76 -39.48 248.87 -43.41 244.98 C-46.83 241.59 -50.25 238.2 -53.67 234.81 C-54.15 234.33 -54.64 233.85 -55.13 233.36 C-63.19 225.37 -71.24 217.37 -79.28 209.36 C-84.67 204 -90.07 198.65 -95.48 193.3 C-98.86 189.96 -102.23 186.61 -105.59 183.25 C-107.15 181.71 -108.7 180.17 -110.27 178.64 C-131.83 157.44 -145.65 131.56 -146.05 100.61 C-145.81 73.69 -135.77 50 -118.94 29.44 C-118.29 28.58 -117.63 27.73 -116.96 26.84 C-99.23 5.76 -71.11 -4.78 -44.48 -7.38 C-29.21 -8.46 -14.2 -5.46 0 0 Z " fill="#FDFDFD" transform="translate(446.9375,308.5625)"/>
<path d="M0 0 C2.31 0 4.62 0 7 0 C7 0.33 7 0.66 7 1 C4.69 1 2.38 1 0 1 C0 0.67 0 0.34 0 0 Z " fill="#000000" transform="translate(741,1272)"/>
<path d="M0 0 C1.98 0 3.96 0 6 0 C6 0.33 6 0.66 6 1 C4.02 1 2.04 1 0 1 C0 0.67 0 0.34 0 0 Z " fill="#000000" transform="translate(721,1275)"/>
<path d="M0 0 C1.98 0 3.96 0 6 0 C6 0.33 6 0.66 6 1 C4.02 1 2.04 1 0 1 C0 0.67 0 0.34 0 0 Z " fill="#000000" transform="translate(553,1275)"/>
<path d="M0 0 C0.33 0 0.66 0 1 0 C1 1.98 1 3.96 1 6 C0.67 6 0.34 6 0 6 C0 4.02 0 2.04 0 0 Z " fill="#000000" transform="translate(1272,741)"/>
<path d="M0 0 C0.33 0 0.66 0 1 0 C1 1.98 1 3.96 1 6 C0.67 6 0.34 6 0 6 C0 4.02 0 2.04 0 0 Z " fill="#000000" transform="translate(1275,721)"/>
<path d="M0 0 C0.33 0 0.66 0 1 0 C1 1.98 1 3.96 1 6 C0.67 6 0.34 6 0 6 C0 4.02 0 2.04 0 0 Z " fill="#000000" transform="translate(1275,553)"/>
<path d="M0 0 C1.65 0 3.3 0 5 0 C5 0.33 5 0.66 5 1 C3.35 1 1.7 1 0 1 C0 0.67 0 0.34 0 0 Z " fill="#000000" transform="translate(533,1272)"/>
<path d="M0 0 C1.65 0 3.3 0 5 0 C5 0.33 5 0.66 5 1 C3.35 1 1.7 1 0 1 C0 0.67 0 0.34 0 0 Z " fill="#000000" transform="translate(522,1270)"/>
<path d="M0 0 C1.65 0 3.3 0 5 0 C5 0.33 5 0.66 5 1 C3.35 1 1.7 1 0 1 C0 0.67 0 0.34 0 0 Z " fill="#000000" transform="translate(769,1267)"/>
<path d="M0 0 C1.65 0 3.3 0 5 0 C5 0.33 5 0.66 5 1 C3.35 1 1.7 1 0 1 C0 0.67 0 0.34 0 0 Z " fill="#000000" transform="translate(506,1267)"/>
<path d="M0 0 C1.65 0 3.3 0 5 0 C5 0.33 5 0.66 5 1 C3.35 1 1.7 1 0 1 C0 0.67 0 0.34 0 0 Z " fill="#000000" transform="translate(791,1262)"/>
<path d="M0 0 C0.33 0 0.66 0 1 0 C1 1.65 1 3.3 1 5 C0.67 5 0.34 5 0 5 C0 3.35 0 1.7 0 0 Z " fill="#000000" transform="translate(1267,769)"/>
<path d="M0 0 C0.33 0 0.66 0 1 0 C1 1.65 1 3.3 1 5 C0.67 5 0.34 5 0 5 C0 3.35 0 1.7 0 0 Z " fill="#000000" transform="translate(1272,533)"/>
<path d="M0 0 C0.33 0 0.66 0 1 0 C1 1.65 1 3.3 1 5 C0.67 5 0.34 5 0 5 C0 3.35 0 1.7 0 0 Z " fill="#000000" transform="translate(1267,506)"/>
<path d="M0 0 C0.66 0.33 1.32 0.66 2 1 C1.01 1.66 0.02 2.32 -1 3 C-0.67 2.01 -0.34 1.02 0 0 Z " fill="#F04335" transform="translate(244,133)"/>
<path d="M0 0 C4 1 4 1 4 1 Z " fill="#000000" transform="translate(485,1262)"/>
<path d="M0 0 C1 4 1 4 1 4 Z " fill="#000000" transform="translate(1262,791)"/>
<path d="M0 0 C1 4 1 4 1 4 Z " fill="#000000" transform="translate(1262,485)"/>
<path d="M0 0 C3 1 3 1 3 1 Z " fill="#000000" transform="translate(756,1270)"/>
<path d="M0 0 C3 1 3 1 3 1 Z " fill="#000000" transform="translate(811,1257)"/>
<path d="M0 0 C2 1 2 1 2 1 Z " fill="#000000" transform="translate(801,1260)"/>
<path d="M0 0 C2 1 2 1 2 1 Z " fill="#000000" transform="translate(477,1260)"/>
<path d="M0 0 C2 1 2 1 2 1 Z " fill="#000000" transform="translate(466,1257)"/>
<path d="M0 0 C2 1 2 1 2 1 Z " fill="#000000" transform="translate(819,1255)"/>
<path d="M0 0 C2 1 2 1 2 1 Z " fill="#000000" transform="translate(829,1252)"/>
<path d="M0 0 C2 1 2 1 2 1 Z " fill="#000000" transform="translate(449,1252)"/>
<path d="M0 0 C2 1 2 1 2 1 Z " fill="#000000" transform="translate(844,1247)"/>
<path d="M0 0 C2 1 2 1 2 1 Z " fill="#000000" transform="translate(434,1247)"/>
<path d="M0 0 C2 1 2 1 2 1 Z " fill="#000000" transform="translate(406,1237)"/>
<path d="M0 0 C2 1 2 1 2 1 Z " fill="#000000" transform="translate(884,1232)"/>
<path d="M0 0 C2 1 2 1 2 1 Z " fill="#000000" transform="translate(394,1232)"/>
<path d="" fill="#000000" transform="translate(0,0)"/>
<path d="" fill="#000000" transform="translate(0,0)"/>
<path d="" fill="#000000" transform="translate(0,0)"/>
<path d="" fill="#000000" transform="translate(0,0)"/>
<path d="" fill="#000000" transform="translate(0,0)"/>
<path d="" fill="#000000" transform="translate(0,0)"/>
<path d="" fill="#000000" transform="translate(0,0)"/>
<path d="" fill="#F04335" transform="translate(0,0)"/>
<path d="" fill="#000000" transform="translate(0,0)"/>
<path d="" fill="#000000" transform="translate(0,0)"/>
<path d="" fill="#000000" transform="translate(0,0)"/>
<path d="" fill="#000000" transform="translate(0,0)"/>
<path d="" fill="#000000" transform="translate(0,0)"/>
<path d="M0 0 C2 1 2 1 2 1 Z " fill="#F04335" transform="translate(472,19)"/>
<path d="" fill="#000000" transform="translate(0,0)"/>
<path d="" fill="#000000" transform="translate(0,0)"/>
<path d="" fill="#000000" transform="translate(0,0)"/>
<path d="" fill="#000000" transform="translate(0,0)"/>
<path d="" fill="#000000" transform="translate(0,0)"/>
<path d="" fill="#000000" transform="translate(0,0)"/>
<path d="" fill="#000000" transform="translate(0,0)"/>
<path d="" fill="#000000" transform="translate(0,0)"/>
<path d="" fill="#000000" transform="translate(0,0)"/>
<path d="" fill="#000000" transform="translate(0,0)"/>
<path d="" fill="#000000" transform="translate(0,0)"/>
<path d="" fill="#000000" transform="translate(0,0)"/>
<path d="" fill="#000000" transform="translate(0,0)"/>
<path d="" fill="#000000" transform="translate(0,0)"/>
<path d="" fill="#000000" transform="translate(0,0)"/>
<path d="" fill="#000000" transform="translate(0,0)"/>
<path d="" fill="#000000" transform="translate(0,0)"/>
<path d="" fill="#000000" transform="translate(0,0)"/>
<path d="" fill="#000000" transform="translate(0,0)"/>
<path d="" fill="#000000" transform="translate(0,0)"/>
<path d="" fill="#000000" transform="translate(0,0)"/>
<path d="" fill="#000000" transform="translate(0,0)"/>
<path d="" fill="#000000" transform="translate(0,0)"/>
<path d="" fill="#000000" transform="translate(0,0)"/>
<path d="" fill="#000000" transform="translate(0,0)"/>
<path d="" fill="#F04335" transform="translate(0,0)"/>
<path d="" fill="#000000" transform="translate(0,0)"/>
<path d="" fill="#000000" transform="translate(0,0)"/>
<path d="" fill="#000000" transform="translate(0,0)"/>
<path d="" fill="#000000" transform="translate(0,0)"/>
<path d="" fill="#000000" transform="translate(0,0)"/>
<path d="" fill="#000000" transform="translate(0,0)"/>
<path d="" fill="#000000" transform="translate(0,0)"/>
<path d="" fill="#000000" transform="translate(0,0)"/>
<path d="" fill="#000000" transform="translate(0,0)"/>
<path d="" fill="#000000" transform="translate(0,0)"/>
<path d="" fill="#000000" transform="translate(0,0)"/>
<path d="" fill="#000000" transform="translate(0,0)"/>
<path d="" fill="#000000" transform="translate(0,0)"/>
<path d="" fill="#000000" transform="translate(0,0)"/>
<path d="" fill="#000000" transform="translate(0,0)"/>
<path d="" fill="#000000" transform="translate(0,0)"/>
<path d="" fill="#000000" transform="translate(0,0)"/>
<path d="" fill="#000000" transform="translate(0,0)"/>
<path d="" fill="#000000" transform="translate(0,0)"/>
<path d="" fill="#F04335" transform="translate(0,0)"/>
<path d="" fill="#000000" transform="translate(0,0)"/>
<path d="" fill="#000000" transform="translate(0,0)"/>
<path d="" fill="#000000" transform="translate(0,0)"/>
<path d="" fill="#F04335" transform="translate(0,0)"/>
<path d="" fill="#F04335" transform="translate(0,0)"/>
<path d="" fill="#F04335" transform="translate(0,0)"/>
<path d="" fill="#F04335" transform="translate(0,0)"/>
<path d="" fill="#F04335" transform="translate(0,0)"/>
<path d="" fill="#F04335" transform="translate(0,0)"/>
<path d="" fill="#F04335" transform="translate(0,0)"/>
<path d="" fill="#000000" transform="translate(0,0)"/>
<path d="" fill="#000000" transform="translate(0,0)"/>
<path d="" fill="#F04335" transform="translate(0,0)"/>
<path d="" fill="#F04335" transform="translate(0,0)"/>
<path d="" fill="#F04335" transform="translate(0,0)"/>
<path d="" fill="#F04335" transform="translate(0,0)"/>
<path d="" fill="#F04335" transform="translate(0,0)"/>
<path d="" fill="#F04335" transform="translate(0,0)"/>
<path d="" fill="#F04335" transform="translate(0,0)"/>
<path d="" fill="#F04335" transform="translate(0,0)"/>
<path d="" fill="#F04335" transform="translate(0,0)"/>
<path d="" fill="#F04335" transform="translate(0,0)"/>
<path d="" fill="#F04335" transform="translate(0,0)"/>
<path d="" fill="#F04335" transform="translate(0,0)"/>
<path d="" fill="#F04335" transform="translate(0,0)"/>
<path d="" fill="#F04335" transform="translate(0,0)"/>
<path d="" fill="#F04335" transform="translate(0,0)"/>
<path d="" fill="#F04335" transform="translate(0,0)"/>
<path d="" fill="#F04335" transform="translate(0,0)"/>
<path d="" fill="#F04335" transform="translate(0,0)"/>
<path d="" fill="#F04335" transform="translate(0,0)"/>
<path d="" fill="#F04335" transform="translate(0,0)"/>
<path d="" fill="#000000" transform="translate(0,0)"/>
</svg>
