<?xml version="1.0" encoding="UTF-8"?>
<!-- Generator: visioncortex VTracer 0.6.3 -->
<svg version="1.1" xmlns="http://www.w3.org/2000/svg" width="1280" height="1280">
<path d="M0 0 C0.86 -0 1.72 -0.01 2.6 -0.01 C3.54 -0.01 4.48 -0 5.44 -0 C6.43 -0 7.42 -0.01 8.44 -0.01 C11.73 -0.01 15.01 -0.01 18.29 -0.01 C20.56 -0.01 22.84 -0.01 25.11 -0.01 C29.88 -0.01 34.66 -0.01 39.43 -0 C45.55 0 51.68 -0 57.8 -0.01 C62.5 -0.01 67.2 -0.01 71.9 -0.01 C74.16 -0.01 76.41 -0.01 78.67 -0.01 C81.82 -0.01 84.98 -0.01 88.13 -0 C89.54 -0.01 89.54 -0.01 90.97 -0.01 C91.83 -0.01 92.69 -0 93.57 0 C94.32 0 95.07 0 95.83 0 C97.79 0.13 97.79 0.13 100.79 1.13 C104.32 1.36 107.85 1.52 111.39 1.64 C118.28 1.96 124.99 3.02 131.79 4.13 C133.97 4.46 136.14 4.8 138.32 5.13 C140.5 5.46 142.67 5.79 144.85 6.13 C145.93 6.29 147.01 6.46 148.12 6.63 C151.35 7.12 154.57 7.62 157.79 8.13 C158.78 8.28 159.78 8.43 160.81 8.59 C168.22 9.77 175.49 11.39 182.79 13.13 C184.99 13.63 187.19 14.13 189.39 14.63 C191.59 15.13 193.78 15.63 195.97 16.13 C197.62 16.5 197.62 16.5 199.3 16.88 C205.15 18.21 210.89 19.69 216.62 21.47 C219.4 22.31 222.21 23.01 225.04 23.69 C229.03 24.67 232.9 25.78 236.79 27.13 C239.26 27.88 241.74 28.61 244.22 29.35 C250.57 31.28 256.7 33.64 262.86 36.1 C265.74 37.29 265.74 37.29 268.79 37.13 C268.79 37.79 268.79 38.45 268.79 39.13 C269.57 39.21 270.35 39.29 271.16 39.38 C275.98 40.37 280.26 42.24 284.79 44.13 C286.41 44.75 288.04 45.38 289.66 46 C293.42 47.5 297 49.22 300.6 51.06 C304.7 53.16 308.77 54.93 313.1 56.5 C318.9 58.65 324.21 61.34 329.59 64.36 C333.25 66.4 336.8 67.85 340.79 69.13 C342.81 70.43 344.81 71.77 346.79 73.13 C351.69 75.99 356.69 78.64 361.79 81.13 C361.79 81.79 361.79 82.45 361.79 83.13 C362.84 83.27 362.84 83.27 363.92 83.42 C367.26 84.24 369.66 85.6 372.6 87.38 C373.64 88 374.69 88.63 375.76 89.28 C377.26 90.19 377.26 90.19 378.79 91.13 C380.05 91.87 380.05 91.87 381.35 92.63 C383.2 93.74 385 94.92 386.79 96.13 C386.79 96.79 386.79 97.45 386.79 98.13 C387.93 98 387.93 98 389.1 97.88 C389.99 97.96 390.87 98.04 391.79 98.13 C392.82 99.44 393.81 100.78 394.79 102.13 C397.73 103.94 400.7 105.56 403.76 107.16 C408.69 109.83 408.69 109.83 409.79 113.13 C411.69 113.73 411.69 113.73 413.79 114.13 C414.78 114.79 415.77 115.45 416.79 116.13 C416.79 116.79 416.79 117.45 416.79 118.13 C417.65 118.31 417.65 118.31 418.54 118.5 C422.62 119.63 424.39 120.53 426.79 124.13 C427.78 124.46 428.77 124.79 429.79 125.13 C429.79 125.79 429.79 126.45 429.79 127.13 C430.68 127.53 430.68 127.53 431.6 127.94 C433.79 129.13 433.79 129.13 435.16 130.56 C437.41 132.72 439.98 133.82 442.79 135.13 C442.79 135.79 442.79 136.45 442.79 137.13 C443.34 137.19 443.9 137.25 444.47 137.31 C447.72 138.46 449.36 140.7 451.79 143.13 C453 143.85 454.23 144.54 455.47 145.19 C458.95 147.22 459.2 147.75 460.79 151.13 C462.76 152.5 464.76 153.83 466.79 155.13 C468.14 156.44 469.48 157.77 470.79 159.13 C471.78 159.79 472.77 160.45 473.79 161.13 C475.31 162.57 476.8 164.04 478.28 165.52 C479.15 166.39 480.02 167.27 480.92 168.17 C481.82 169.08 482.73 170 483.66 170.94 C484.56 171.84 485.46 172.75 486.38 173.68 C488.07 175.37 489.75 177.06 491.43 178.76 C493.88 181.22 496.33 183.67 498.79 186.13 C507.79 195.13 507.79 195.13 510.24 197.58 C511.97 199.31 513.71 201.03 515.46 202.73 C516.33 203.58 517.2 204.44 518.1 205.31 C519.42 206.6 519.42 206.6 520.78 207.92 C522.79 210.13 522.79 210.13 522.79 212.13 C523.45 212.13 524.11 212.13 524.79 212.13 C526.27 213.81 526.27 213.81 527.97 216.13 C531.39 220.65 535.03 224.89 538.79 229.13 C540.81 231.44 542.8 233.78 544.79 236.13 C545.57 237.04 546.35 237.96 547.16 238.9 C547.99 239.89 548.81 240.87 549.66 241.88 C550.44 242.8 551.22 243.72 552.03 244.67 C553.79 247.13 553.79 247.13 553.79 250.13 C554.78 250.46 555.77 250.79 556.79 251.13 C558.83 253.56 558.83 253.56 560.97 256.56 C561.69 257.55 562.41 258.54 563.14 259.56 C564.79 262.13 564.79 262.13 564.79 264.13 C565.45 264.13 566.11 264.13 566.79 264.13 C568.79 267.13 568.79 267.13 568.79 270.13 C569.78 270.46 570.77 270.79 571.79 271.13 C573.1 272.87 573.1 272.87 574.35 275 C574.97 276.05 574.97 276.05 575.6 277.12 C576.19 278.11 576.19 278.11 576.79 279.13 C577.45 280.12 578.11 281.11 578.79 282.13 C578.79 283.12 578.79 284.11 578.79 285.13 C579.78 285.46 580.77 285.79 581.79 286.13 C583.79 289.13 583.79 289.13 583.79 292.13 C584.45 292.13 585.11 292.13 585.79 292.13 C587.83 295.03 588.79 296.53 588.79 300.13 C589.78 300.46 590.77 300.79 591.79 301.13 C593.29 303.46 593.29 303.46 594.79 306.38 C597.17 310.97 599.68 315.4 602.47 319.75 C603.79 322.13 603.79 322.13 603.79 325.13 C604.45 325.13 605.11 325.13 605.79 325.13 C606.01 325.81 606.24 326.49 606.47 327.19 C607.73 330.29 607.73 330.29 610.1 333.24 C613.04 337.31 615.09 341.63 617.16 346.19 C617.94 347.87 618.72 349.55 619.49 351.23 C619.88 352.06 620.26 352.88 620.65 353.73 C621.7 355.95 622.79 358.13 623.92 360.3 C624.25 360.93 624.58 361.56 624.91 362.21 C625.79 363.89 626.68 365.57 627.57 367.24 C628.8 370.15 629.06 372.01 628.79 375.13 C629.45 375.13 630.11 375.13 630.79 375.13 C631.03 375.76 631.27 376.39 631.52 377.03 C633.19 381.28 634.88 385.41 637.04 389.44 C638.61 392.46 639.22 394.66 638.79 398.13 C639.45 398.13 640.11 398.13 640.79 398.13 C642.45 401.86 643.97 405.55 645.22 409.44 C646.57 413.6 648.15 417.63 649.82 421.67 C651.79 426.69 653.29 431.81 654.72 437 C655.99 441.48 657.36 445.82 659.07 450.14 C660.28 453.49 661.12 456.94 662.03 460.39 C662.73 462.93 663.54 465.39 664.41 467.88 C665.7 471.6 666.25 475.22 666.79 479.13 C667.1 479.69 667.4 480.25 667.72 480.83 C669.24 484.11 669.7 487.53 670.29 491.06 C671.13 496.39 671.13 496.39 672.79 501.51 C674.34 505.57 674.72 509.77 675.29 514.06 C676.03 519.67 676.91 524.78 678.79 530.13 C680.41 538.61 681.07 547.13 681.44 555.75 C681.66 559.11 681.66 559.11 682.79 562.07 C683.98 565.72 684.16 569.2 684.29 573 C684.42 577.12 684.68 580.75 685.79 584.75 C687.04 589.61 687.07 594.29 687.05 599.29 C687.05 600.27 687.05 601.26 687.06 602.27 C687.07 605.51 687.06 608.74 687.05 611.97 C687.05 614.23 687.06 616.49 687.06 618.75 C687.06 623.48 687.06 628.2 687.05 632.93 C687.04 638.97 687.04 645.02 687.05 651.07 C687.06 655.73 687.06 660.39 687.05 665.05 C687.05 667.28 687.06 669.51 687.06 671.74 C687.06 674.86 687.06 677.98 687.05 681.1 C687.05 682.01 687.05 682.93 687.06 683.87 C687.02 689.03 686.41 693.23 684.79 698.13 C684.47 700.33 684.47 700.33 684.44 702.32 C684.41 703.04 684.38 703.75 684.35 704.49 C684.31 705.96 684.26 707.43 684.22 708.9 C684.04 713.36 683.25 716.88 681.79 721.13 C681.57 723.35 681.43 725.58 681.35 727.81 C681 734.12 680.28 740.27 679.29 746.5 C679.16 747.34 679.03 748.18 678.89 749.04 C677.92 755 677.92 755 676.79 756.13 C676.6 757.54 676.46 758.96 676.35 760.38 C676.08 763.07 675.82 765.05 674.79 767.56 C673.44 771.01 673.3 774.35 673.03 778.02 C672.79 780.13 672.79 780.13 671.79 781.13 C671.13 784.46 670.54 787.79 669.98 791.14 C669.33 794.8 668.58 797.87 666.79 801.13 C666.41 802.53 666.07 803.95 665.79 805.38 C663.74 815.15 660.98 824.63 657.79 834.09 C656.36 838.34 654.95 842.57 653.72 846.88 C652.84 849.94 651.79 852.9 650.64 855.88 C649.29 859.43 648.03 863.03 646.75 866.61 C645.79 869.13 645.79 869.13 644.77 871.16 C643.68 873.35 642.92 875.55 642.16 877.88 C641.9 878.68 641.64 879.48 641.37 880.3 C641.18 880.9 640.99 881.51 640.79 882.13 C640.13 882.13 639.47 882.13 638.79 882.13 C638.66 883.89 638.66 883.89 638.54 885.69 C637.97 890.32 636.27 893.21 633.79 897.13 C632.15 900.11 631.18 903.05 630.22 906.31 C627.7 914.04 623.8 920.91 619.92 928.02 C617.62 932.31 615.52 936.7 613.39 941.08 C611.72 944.26 609.81 947.16 607.79 950.13 C606.01 953.16 604.29 956.21 602.6 959.29 C600.16 963.73 597.62 968.08 594.9 972.36 C594.01 973.77 593.15 975.2 592.29 976.63 C588.93 982.22 585.41 987.7 581.79 993.13 C581.33 993.9 580.88 994.67 580.42 995.47 C578.7 998.27 576.82 1000.87 574.85 1003.5 C571.84 1007.59 569.17 1011.65 566.79 1016.13 C566.13 1016.13 565.47 1016.13 564.79 1016.13 C564.51 1016.71 564.24 1017.3 563.95 1017.9 C562.84 1020.03 561.63 1021.79 560.16 1023.69 C557.63 1027.01 555.16 1030.36 552.72 1033.75 C548.28 1039.87 543.46 1045.52 538.47 1051.19 C535.54 1054.55 532.68 1057.94 529.99 1061.5 C529.37 1062.32 528.74 1063.15 528.1 1064 C527.52 1064.78 526.94 1065.56 526.34 1066.37 C525.57 1067.24 525.57 1067.24 524.79 1068.13 C524.13 1068.13 523.47 1068.13 522.79 1068.13 C522.42 1068.98 522.42 1068.98 522.05 1069.85 C520.54 1072.57 518.75 1074.42 516.55 1076.62 C515.24 1077.94 515.24 1077.94 513.9 1079.29 C512.95 1080.24 511.99 1081.19 511.04 1082.14 C510.06 1083.12 509.08 1084.1 508.1 1085.08 C506.05 1087.14 504 1089.18 501.95 1091.23 C499.31 1093.85 496.68 1096.49 494.06 1099.12 C492.04 1101.15 490.02 1103.17 487.99 1105.19 C487.02 1106.16 486.05 1107.13 485.09 1108.1 C483.74 1109.46 482.38 1110.8 481.02 1112.15 C480.25 1112.92 479.48 1113.69 478.68 1114.48 C476.79 1116.13 476.79 1116.13 474.79 1116.13 C474.79 1116.79 474.79 1117.45 474.79 1118.13 C473.1 1119.61 473.1 1119.61 470.79 1121.31 C465.44 1125.36 460.28 1129.57 455.6 1134.38 C453.79 1136.13 453.79 1136.13 451.54 1137.44 C449.01 1138.99 447.05 1140.6 444.85 1142.56 C441.66 1145.42 438.39 1147.81 434.79 1150.13 C432.18 1152.16 429.64 1154.25 427.1 1156.38 C424.79 1158.13 424.79 1158.13 422.79 1158.13 C422.79 1158.79 422.79 1159.45 422.79 1160.13 C421.25 1161.28 421.25 1161.28 419.16 1162.5 C418.43 1162.94 417.7 1163.38 416.95 1163.83 C415.88 1164.47 415.88 1164.47 414.79 1165.13 C412.04 1166.92 409.34 1168.71 406.72 1170.69 C404.5 1172.34 402.17 1173.71 399.79 1175.13 C397.04 1176.92 394.34 1178.71 391.72 1180.69 C384.42 1186.11 376 1190.38 368.04 1194.75 C362.76 1197.66 357.67 1200.82 352.72 1204.25 C350.16 1205.89 347.7 1207.08 344.89 1208.22 C339.17 1210.68 333.66 1213.67 328.11 1216.49 C320.37 1220.39 312.55 1224 304.41 1227 C302.22 1227.94 300.33 1228.97 298.29 1230.19 C295.42 1231.87 293.06 1232.49 289.79 1233.13 C288.44 1233.77 287.11 1234.44 285.79 1235.13 C282.74 1236.72 280.16 1237.45 276.79 1238.13 C274.74 1239.08 272.74 1240.12 270.75 1241.19 C268.76 1242.14 266.93 1242.63 264.79 1243.13 C263.51 1243.59 262.24 1244.07 260.97 1244.56 C257.29 1245.97 253.58 1247.05 249.79 1248.13 C247.89 1248.77 245.99 1249.41 244.1 1250.06 C238.88 1251.83 233.65 1253.2 228.28 1254.42 C225.57 1255.05 225.57 1255.05 222.79 1257.13 C220.8 1257.51 218.79 1257.83 216.79 1258.13 C215.18 1258.45 213.58 1258.78 211.97 1259.13 C211.21 1259.29 210.44 1259.46 209.64 1259.63 C207.79 1259.96 207.79 1259.96 206.79 1261.13 C204.53 1261.41 202.28 1261.57 200.01 1261.75 C197.51 1262.02 197.51 1262.02 194.79 1264.13 C192.46 1264.49 190.12 1264.82 187.79 1265.13 C187.46 1265.46 187.13 1265.79 186.79 1266.13 C184.04 1266.41 181.3 1266.58 178.55 1266.75 C175.81 1267.12 174.21 1267.88 171.79 1269.13 C169.46 1269.51 169.46 1269.51 167.1 1269.69 C164.15 1269.72 164.15 1269.72 161.79 1271.13 C158.59 1271.42 155.39 1271.58 152.18 1271.75 C148.81 1272 148.81 1272 145.83 1273.13 C141.11 1274.68 136.38 1274.58 131.44 1274.78 C127.85 1274.98 127.85 1274.98 124.81 1276.13 C121.17 1277.33 117.71 1277.5 113.91 1277.63 C109.79 1277.76 106.16 1278.02 102.17 1279.13 C97.31 1280.38 92.63 1280.41 87.64 1280.39 C86.66 1280.39 85.68 1280.39 84.66 1280.4 C81.43 1280.41 78.2 1280.4 74.97 1280.39 C72.72 1280.39 70.46 1280.4 68.21 1280.4 C63.49 1280.4 58.76 1280.4 54.04 1280.39 C48 1280.38 41.97 1280.38 35.93 1280.39 C31.27 1280.4 26.61 1280.4 21.96 1280.39 C19.73 1280.39 17.5 1280.39 15.28 1280.4 C12.16 1280.4 9.05 1280.4 5.93 1280.39 C5.02 1280.39 4.11 1280.39 3.17 1280.4 C-2.31 1280.36 -6.94 1279.59 -12.21 1278.13 C-15.6 1277.76 -18.99 1277.67 -22.39 1277.56 C-26.7 1277.37 -30.15 1276.49 -34.21 1275.13 C-36.71 1274.89 -39.21 1274.73 -41.71 1274.63 C-46.65 1274.43 -50.56 1273.74 -55.21 1272.13 C-57.36 1271.96 -57.36 1271.96 -59.34 1272.13 C-63.21 1272.13 -63.21 1272.13 -65.11 1271.16 C-67.71 1269.88 -69.83 1269.79 -72.71 1269.63 C-77.77 1269.35 -77.77 1269.35 -80.2 1268.13 C-82.8 1266.84 -85.02 1266.75 -87.9 1266.56 C-93.11 1266.23 -93.11 1266.23 -94.21 1265.13 C-95.7 1264.76 -97.21 1264.43 -98.71 1264.13 C-103.1 1263.24 -103.1 1263.24 -104.21 1262.13 C-105.71 1261.92 -107.21 1261.76 -108.71 1261.63 C-113.1 1261.24 -113.1 1261.24 -114.21 1260.13 C-115.58 1259.78 -116.96 1259.47 -118.34 1259.19 C-123.09 1258.17 -127.72 1256.88 -132.38 1255.47 C-133.56 1255.12 -133.56 1255.12 -134.78 1254.75 C-136.04 1254.37 -136.04 1254.37 -137.32 1253.98 C-141.87 1252.64 -146.44 1251.37 -151.01 1250.09 C-153.83 1249.24 -156.49 1248.23 -159.21 1247.13 C-161.77 1246.35 -164.34 1245.63 -166.91 1244.91 C-169.21 1244.13 -169.21 1244.13 -172.21 1242.13 C-173.85 1241.66 -173.85 1241.66 -175.53 1241.19 C-179.21 1240.13 -179.21 1240.13 -182.03 1238.69 C-186.27 1236.61 -190.67 1235.39 -195.21 1234.13 C-195.21 1233.47 -195.21 1232.81 -195.21 1232.13 C-196.39 1232.04 -197.56 1231.96 -198.78 1231.88 C-202.54 1231.41 -205.17 1230.23 -208.4 1228.18 C-211.5 1226.37 -214.83 1225.31 -218.21 1224.13 C-218.21 1223.47 -218.21 1222.81 -218.21 1222.13 C-219.21 1222.04 -220.22 1221.94 -221.25 1221.85 C-225.45 1221.24 -228.93 1219.54 -232.65 1217.56 C-234.05 1216.84 -235.45 1216.11 -236.86 1215.39 C-237.57 1215.02 -238.29 1214.64 -239.02 1214.26 C-241.2 1213.13 -243.4 1212.04 -245.6 1210.96 C-246.31 1210.61 -247.02 1210.26 -247.75 1209.9 C-249.1 1209.24 -250.46 1208.58 -251.81 1207.92 C-255.83 1205.93 -259.52 1203.67 -263.21 1201.13 C-265.54 1199.77 -267.86 1198.44 -270.21 1197.13 C-270.89 1196.75 -271.57 1196.37 -272.27 1195.97 C-275.52 1194.16 -278.77 1192.36 -282.06 1190.62 C-286.8 1188.09 -291.11 1185.63 -295.21 1182.13 C-296.87 1181.11 -298.54 1180.11 -300.21 1179.13 C-302.96 1177.34 -305.66 1175.54 -308.28 1173.56 C-310.21 1172.07 -310.21 1172.07 -312.46 1170.81 C-314.83 1169.36 -316.95 1167.82 -319.15 1166.13 C-322.35 1163.69 -325.53 1161.78 -329.21 1160.13 C-329.21 1159.47 -329.21 1158.81 -329.21 1158.13 C-330.09 1157.71 -330.09 1157.71 -330.99 1157.29 C-333.12 1156.18 -334.88 1154.97 -336.78 1153.5 C-340.09 1150.97 -343.45 1148.5 -346.84 1146.06 C-351.51 1142.67 -355.91 1139.15 -360.24 1135.34 C-361.31 1134.4 -361.31 1134.4 -362.4 1133.44 C-363.05 1132.86 -363.71 1132.28 -364.38 1131.68 C-366.34 1129.96 -366.34 1129.96 -369.21 1128.13 C-369.67 1127.66 -370.13 1127.2 -370.61 1126.72 C-373.26 1124.08 -376.34 1121.98 -379.35 1119.75 C-380.27 1118.95 -380.27 1118.95 -381.21 1118.13 C-381.21 1117.47 -381.21 1116.81 -381.21 1116.13 C-381.8 1115.85 -382.4 1115.58 -383.01 1115.29 C-388.9 1112.18 -393.15 1107.14 -397.4 1102.13 C-399.81 1099.47 -402.5 1097.23 -405.24 1094.92 C-407.94 1092.47 -410.21 1089.74 -412.56 1086.96 C-414.33 1084.91 -414.33 1084.91 -417.21 1082.63 C-422.11 1078.55 -426.55 1073.98 -429.21 1068.13 C-429.87 1068.13 -430.53 1068.13 -431.21 1068.13 C-432.67 1066.51 -434.05 1064.83 -435.4 1063.13 C-438.74 1058.95 -442.14 1054.87 -445.71 1050.88 C-450.21 1045.64 -450.21 1045.64 -450.21 1043.13 C-451.2 1042.8 -452.19 1042.47 -453.21 1042.13 C-455.93 1039.86 -457.45 1037.16 -459.21 1034.13 C-461.81 1030.03 -461.81 1030.03 -464.96 1026.38 C-465.38 1025.96 -465.79 1025.55 -466.21 1025.13 C-466.21 1024.47 -466.21 1023.81 -466.21 1023.13 C-466.87 1023.13 -467.53 1023.13 -468.21 1023.13 C-468.48 1022.53 -468.75 1021.93 -469.03 1021.31 C-470.08 1019.12 -470.08 1019.12 -471.65 1017.71 C-473.25 1016.09 -474.3 1014.53 -475.46 1012.56 C-479.89 1005.32 -484.84 998.45 -490.15 991.82 C-491.21 990.13 -491.21 990.13 -491.21 987.13 C-491.87 987.13 -492.53 987.13 -493.21 987.13 C-494.55 984.84 -495.88 982.55 -497.21 980.25 C-497.59 979.6 -497.98 978.95 -498.37 978.28 C-501.21 973.35 -501.21 973.35 -501.21 971.13 C-501.87 971.13 -502.53 971.13 -503.21 971.13 C-504.2 969.4 -505.18 967.67 -506.15 965.94 C-506.7 964.98 -507.24 964.01 -507.8 963.02 C-509.12 960.32 -509.79 958.08 -510.21 955.13 C-510.87 955.13 -511.53 955.13 -512.21 955.13 C-512.6 954.32 -513 953.52 -513.4 952.69 C-514.67 950.19 -515.97 947.75 -517.34 945.31 C-523.55 934.17 -529.45 922.93 -534.71 911.3 C-536.13 908.16 -536.13 908.16 -537.85 905.46 C-539.14 903.25 -539.66 901.59 -540.21 899.13 C-541.21 896.81 -542.29 894.53 -543.37 892.25 C-544.21 890.13 -544.21 890.13 -544.21 887.13 C-544.87 886.8 -545.53 886.47 -546.21 886.13 C-548.3 881.57 -549.68 876.73 -551.21 871.97 C-552.12 869.19 -552.12 869.19 -553.34 866.94 C-554.21 865.13 -554.21 865.13 -554.21 862.13 C-554.87 862.13 -555.53 862.13 -556.21 862.13 C-556.3 861.34 -556.38 860.56 -556.46 859.75 C-557.09 856.73 -557.85 854.38 -559.03 851.56 C-561.78 844.95 -563.98 838.09 -565.71 831.13 C-566.4 828.39 -567.25 825.7 -568.09 823 C-568.44 821.85 -568.8 820.71 -569.16 819.53 C-569.68 817.84 -569.68 817.84 -570.21 816.13 C-570.78 814.29 -571.34 812.46 -571.9 810.63 C-572.13 809.87 -572.36 809.12 -572.6 808.35 C-573.67 804.48 -574.21 801.16 -574.21 797.13 C-574.87 796.8 -575.53 796.47 -576.21 796.13 C-576.78 794.21 -576.78 794.21 -577.21 791.72 C-577.38 790.82 -577.54 789.91 -577.71 788.98 C-577.88 788.04 -578.04 787.1 -578.21 786.13 C-578.54 784.38 -578.88 782.62 -579.21 780.87 C-579.71 778.21 -580.21 775.55 -580.71 772.89 C-581.49 768.76 -582.31 764.64 -583.25 760.54 C-584.25 756.09 -584.98 751.63 -585.65 747.13 C-586.72 740.06 -586.72 740.06 -588 733.03 C-589.98 722.98 -590.9 712.99 -591.57 702.77 C-591.64 701.69 -591.71 700.62 -591.78 699.51 C-591.87 698.06 -591.87 698.06 -591.96 696.58 C-592.14 693.99 -592.14 693.99 -593.21 691.13 C-593.3 689.74 -593.34 688.34 -593.34 686.95 C-593.34 686.1 -593.35 685.25 -593.35 684.37 C-593.35 683.44 -593.34 682.51 -593.34 681.55 C-593.34 680.57 -593.35 679.59 -593.35 678.57 C-593.35 675.32 -593.35 672.06 -593.35 668.8 C-593.35 666.54 -593.35 664.28 -593.35 662.01 C-593.35 657.26 -593.35 652.51 -593.34 647.76 C-593.34 641.68 -593.34 635.6 -593.35 629.53 C-593.35 624.85 -593.35 620.17 -593.35 615.49 C-593.35 613.25 -593.35 611.01 -593.35 608.77 C-593.35 605.63 -593.35 602.49 -593.34 599.35 C-593.34 598.43 -593.35 597.51 -593.35 596.56 C-593.33 591.32 -592.95 586.31 -592.21 581.13 C-591.94 577.78 -591.72 574.43 -591.49 571.08 C-591.21 568.13 -591.21 568.13 -590.73 566.21 C-590.2 564.09 -589.93 562.07 -589.71 559.9 C-589.63 559.12 -589.55 558.33 -589.46 557.52 C-589.3 555.88 -589.13 554.24 -588.96 552.59 C-588.84 551.42 -588.84 551.42 -588.71 550.22 C-588.6 549.15 -588.6 549.15 -588.49 548.06 C-588.21 546.13 -588.21 546.13 -587.21 543.13 C-586.99 540.9 -586.81 538.67 -586.65 536.44 C-586.57 535.26 -586.48 534.08 -586.4 532.87 C-586.34 531.96 -586.28 531.06 -586.21 530.13 C-585.55 530.13 -584.89 530.13 -584.21 530.13 C-584.21 525.84 -584.21 521.55 -584.21 517.13 C-583.55 517.13 -582.89 517.13 -582.21 517.13 C-581.88 512.84 -581.55 508.55 -581.21 504.13 C-580.55 504.13 -579.89 504.13 -579.21 504.13 C-579.25 502.93 -579.3 501.73 -579.34 500.5 C-579.34 496.67 -578.52 493.75 -577.21 490.13 C-576.84 487.8 -576.49 485.47 -576.21 483.13 C-575.55 483.13 -574.89 483.13 -574.21 483.13 C-574.54 482.14 -574.87 481.15 -575.21 480.13 C-574.58 478.12 -573.9 476.12 -573.21 474.13 C-572.88 472.51 -572.57 470.88 -572.28 469.25 C-571.39 464.61 -569.95 460.52 -568.21 456.13 C-567.86 454.8 -567.53 453.46 -567.21 452.13 C-566.74 450.29 -566.26 448.46 -565.78 446.63 C-565.53 445.69 -565.28 444.75 -565.03 443.78 C-564.29 441.38 -563.36 439.35 -562.21 437.13 C-561.11 433.49 -560.1 429.83 -559.21 426.13 C-558.55 426.13 -557.89 426.13 -557.21 426.13 C-556.88 423.16 -556.55 420.19 -556.21 417.13 C-555.88 417.13 -555.55 417.13 -555.21 417.13 C-555.03 415.95 -555.03 415.95 -554.84 414.75 C-554.21 412.13 -554.21 412.13 -552.21 410.13 C-551.57 407.56 -551.57 407.56 -551.21 405.13 C-550.55 405.13 -549.89 405.13 -549.21 405.13 C-549.03 403.58 -549.03 403.58 -548.84 402 C-548.27 398.51 -547.43 395.44 -546.21 392.13 C-545.88 392.13 -545.55 392.13 -545.21 392.13 C-545.09 391.16 -544.97 390.19 -544.84 389.19 C-544.63 388.18 -544.43 387.17 -544.21 386.13 C-543.55 385.8 -542.89 385.47 -542.21 385.13 C-541.56 382.6 -541.56 382.6 -541.21 380.13 C-540.55 380.13 -539.89 380.13 -539.21 380.13 C-539.21 378.81 -539.21 377.49 -539.21 376.13 C-538.55 375.8 -537.89 375.47 -537.21 375.13 C-536.86 373.13 -536.53 371.13 -536.21 369.13 C-535.12 366.49 -534.25 365.16 -532.21 363.13 C-531.67 361.81 -531.17 360.48 -530.71 359.13 C-529.79 356.39 -529.31 355.22 -527.21 353.13 C-527.07 352.34 -526.92 351.56 -526.78 350.75 C-526.15 347.82 -525.1 346.41 -523.21 344.13 C-522.32 342.33 -521.54 340.48 -520.78 338.63 C-519.21 335.13 -519.21 335.13 -517.21 333.13 C-516.88 332.14 -516.55 331.15 -516.21 330.13 C-515.55 330.13 -514.89 330.13 -514.21 330.13 C-514.13 329.47 -514.05 328.81 -513.96 328.13 C-512.97 324.14 -511.14 320.74 -509.21 317.13 C-508.55 317.13 -507.89 317.13 -507.21 317.13 C-505.89 313.83 -504.57 310.53 -503.21 307.13 C-502.55 307.13 -501.89 307.13 -501.21 307.13 C-500.88 306.14 -500.55 305.15 -500.21 304.13 C-499.29 302.24 -498.32 300.36 -497.34 298.5 C-496.82 297.52 -496.31 296.54 -495.78 295.53 C-494.21 293.13 -494.21 293.13 -491.21 292.13 C-491.11 291.36 -491.01 290.6 -490.9 289.81 C-490.14 286.84 -489.36 286.19 -487.21 284.13 C-486.9 283.28 -486.59 282.44 -486.28 281.56 C-484.99 278.61 -484 278.48 -481.21 277.13 C-480.82 275.81 -480.5 274.47 -480.21 273.13 C-476.98 266.51 -476.98 266.51 -474.21 265.13 C-473.88 264.14 -473.55 263.15 -473.21 262.13 C-472.55 262.13 -471.89 262.13 -471.21 262.13 C-471.21 261.47 -471.21 260.81 -471.21 260.13 C-470.55 260.13 -469.89 260.13 -469.21 260.13 C-468.88 258.81 -468.55 257.49 -468.21 256.13 C-467.55 256.46 -466.89 256.79 -466.21 257.13 C-466.54 256.14 -466.87 255.15 -467.21 254.13 C-466.43 253.36 -465.65 252.6 -464.84 251.81 C-462.14 249.22 -462.14 249.22 -460.21 246.13 C-459.74 245.67 -459.26 245.22 -458.78 244.75 C-457.05 243.09 -457.05 243.09 -455.71 240.5 C-454.21 238.13 -454.21 238.13 -451.21 237.13 C-451.21 235.81 -451.21 234.49 -451.21 233.13 C-450.55 233.13 -449.89 233.13 -449.21 233.13 C-448.96 232.54 -448.7 231.95 -448.43 231.35 C-447.12 228.95 -445.69 227.44 -443.71 225.56 C-441.49 223.45 -439.94 221.71 -438.21 219.13 C-437.72 218.65 -437.22 218.18 -436.71 217.69 C-435.13 216.22 -435.13 216.22 -434.41 214.33 C-432.86 211.47 -430.87 209.55 -428.57 207.25 C-428.1 206.78 -427.63 206.31 -427.14 205.83 C-425.59 204.28 -424.03 202.74 -422.47 201.19 C-421.39 200.11 -420.31 199.03 -419.22 197.95 C-416.37 195.11 -413.51 192.27 -410.65 189.43 C-407.76 186.55 -404.86 183.67 -401.97 180.79 C-396.87 175.71 -391.77 170.63 -386.66 165.56 C-384.93 163.84 -383.23 162.11 -381.54 160.35 C-379.19 158.1 -378.25 157.78 -375.21 157.13 C-374.88 156.14 -374.55 155.15 -374.21 154.13 C-373.51 153.71 -372.81 153.3 -372.09 152.88 C-368.75 150.84 -366.42 148.4 -363.76 145.55 C-362.21 144.13 -362.21 144.13 -360.21 144.13 C-360.21 143.47 -360.21 142.81 -360.21 142.13 C-358.89 142.13 -357.57 142.13 -356.21 142.13 C-355.97 141.51 -355.72 140.89 -355.46 140.25 C-353.97 137.72 -352.84 137.32 -350.21 136.13 C-349.19 135.15 -348.19 134.15 -347.21 133.13 C-344.27 130.71 -341.27 128.39 -338.21 126.13 C-337.55 126.46 -336.89 126.79 -336.21 127.13 C-336.21 126.14 -336.21 125.15 -336.21 124.13 C-335.22 124.13 -334.23 124.13 -333.21 124.13 C-333.21 123.47 -333.21 122.81 -333.21 122.13 C-331.56 121.11 -329.89 120.11 -328.21 119.13 C-327.88 118.47 -327.55 117.81 -327.21 117.13 C-320.21 112.77 -320.21 112.77 -316.21 112.13 C-316.21 111.47 -316.21 110.81 -316.21 110.13 C-315.03 108.5 -315.03 108.5 -313.21 107.13 C-310.53 106.94 -310.53 106.94 -308.21 107.13 C-307.87 106.17 -307.87 106.17 -307.53 105.19 C-306.21 103.13 -306.21 103.13 -303.59 102.38 C-302.8 102.29 -302.02 102.21 -301.21 102.13 C-301.21 101.47 -301.21 100.81 -301.21 100.13 C-298.26 97.38 -297.44 97.13 -293.21 97.13 C-292.87 96.2 -292.87 96.2 -292.53 95.25 C-290.8 92.45 -289.28 92.24 -286.21 91.13 C-284.2 89.81 -282.2 88.48 -280.21 87.13 C-278.88 86.46 -277.55 85.79 -276.21 85.13 C-275.57 84.61 -274.93 84.1 -274.28 83.56 C-271.92 81.92 -270.04 81.52 -267.21 81.13 C-267.21 80.47 -267.21 79.81 -267.21 79.13 C-265.89 79.13 -264.57 79.13 -263.21 79.13 C-263.21 78.47 -263.21 77.81 -263.21 77.13 C-262.57 77 -261.93 76.88 -261.28 76.75 C-260.59 76.55 -259.91 76.34 -259.21 76.13 C-258.88 75.47 -258.55 74.81 -258.21 74.13 C-255.92 73.25 -253.6 72.59 -251.24 71.91 C-249.03 71.32 -249.03 71.32 -248.21 69.13 C-245.92 68.25 -243.6 67.59 -241.24 66.91 C-239.03 66.32 -239.03 66.32 -238.21 64.13 C-235.92 63.25 -233.6 62.59 -231.24 61.91 C-229.03 61.32 -229.03 61.32 -228.21 59.13 C-225.76 57.58 -223.92 57.08 -221.03 56.63 C-220.1 56.46 -219.17 56.3 -218.21 56.13 C-217.88 55.47 -217.55 54.81 -217.21 54.13 C-215.89 54.13 -214.57 54.13 -213.21 54.13 C-213.21 53.47 -213.21 52.81 -213.21 52.13 C-211.23 51.8 -209.25 51.47 -207.21 51.13 C-207.21 50.47 -207.21 49.81 -207.21 49.13 C-205.23 48.8 -203.25 48.47 -201.21 48.13 C-201.21 47.8 -201.21 47.47 -201.21 47.13 C-193.78 44.98 -193.78 44.98 -190.21 44.13 C-190.21 43.47 -190.21 42.81 -190.21 42.13 C-188.93 42 -187.66 41.88 -186.34 41.75 C-182.86 41.44 -182.86 41.44 -180.21 39.13 C-178.19 38.28 -178.19 38.28 -175.84 37.5 C-175.07 37.24 -174.3 36.98 -173.5 36.71 C-171.21 36.13 -171.21 36.13 -167.21 36.13 C-167.21 35.47 -167.21 34.81 -167.21 34.13 C-162.88 32.1 -158.93 31.61 -154.21 31.13 C-154.21 30.47 -154.21 29.81 -154.21 29.13 C-153.08 28.98 -151.94 28.84 -150.78 28.69 C-147.41 28.52 -147.41 28.52 -146.21 27.13 C-144.18 26.9 -142.16 26.68 -140.12 26.51 C-137.98 26.26 -137.98 26.26 -136.21 24.13 C-131.43 22.53 -126.59 21.58 -121.65 20.64 C-119.45 20.18 -117.35 19.6 -115.21 18.94 C-112.21 18.13 -112.21 18.13 -110.21 19.13 C-110.21 18.47 -110.21 17.81 -110.21 17.13 C-109.29 17.05 -109.29 17.05 -108.35 16.98 C-107.14 16.87 -107.14 16.87 -105.9 16.75 C-105.1 16.68 -104.3 16.61 -103.47 16.54 C-100.94 16.23 -100.94 16.23 -98.21 14.13 C-95.95 13.93 -95.95 13.93 -93.53 14 C-92.31 14.03 -92.31 14.03 -91.08 14.06 C-90.46 14.08 -89.85 14.1 -89.21 14.13 C-89.21 13.47 -89.21 12.81 -89.21 12.13 C-88.21 12.08 -87.21 12.03 -86.19 11.98 C-84.9 11.9 -83.6 11.83 -82.28 11.75 C-80.99 11.68 -79.7 11.61 -78.37 11.54 C-77.33 11.4 -76.29 11.27 -75.21 11.13 C-74.88 10.47 -74.55 9.81 -74.21 9.13 C-71.74 8.75 -71.74 8.75 -68.71 8.56 C-65.15 8.63 -65.15 8.63 -62.21 7.13 C-60.36 6.94 -58.51 6.8 -56.65 6.69 C-53.07 6.42 -49.72 6.13 -46.28 5.13 C-41.65 3.81 -36.95 3.65 -32.17 3.37 C-29.36 3.22 -29.36 3.22 -27.29 2.63 C-25.15 2.11 -23.19 1.94 -20.99 1.85 C-19.81 1.79 -19.81 1.79 -18.61 1.73 C-16.97 1.66 -15.32 1.59 -13.68 1.52 C-12.9 1.48 -12.11 1.45 -11.3 1.41 C-10.23 1.36 -10.23 1.36 -9.14 1.32 C-5.94 1 -3.28 0 0 0 Z " fill="#FA2146" transform="translate(593.212890625,-0.126983642578125)"/>
<path d="M0 0 C0.84 -0.01 1.68 -0.01 2.55 -0.02 C4.33 -0.03 6.11 -0.03 7.89 -0.04 C10.56 -0.05 13.23 -0.08 15.9 -0.11 C41.16 -0.27 65.07 6.47 83.42 24.5 C84.3 25.39 85.18 26.28 86.09 27.2 C86.82 27.92 87.55 28.64 88.3 29.38 C105.17 47.05 111.49 69.69 111.34 93.5 C111.33 94.36 111.33 95.22 111.33 96.11 C111.25 119.04 110.29 141.95 109.34 164.85 C109.09 171.01 108.85 177.16 108.6 183.32 C108.14 194.96 107.67 206.61 107.2 218.25 C106.67 231.33 106.14 244.4 105.62 257.48 C104.98 273.54 104.34 289.59 103.69 305.65 C103.65 306.78 103.6 307.91 103.55 309.07 C103.33 314.61 103.11 320.15 102.88 325.69 C102.47 335.67 102.07 345.65 101.71 355.64 C101.55 360.2 101.37 364.77 101.2 369.34 C101.12 371.48 101.05 373.63 100.98 375.77 C100.05 402.81 97.03 427.15 78.09 448.2 C77.66 448.68 77.24 449.16 76.79 449.65 C61 467 40.54 477.32 16.89 478.52 C-9.35 479.33 -33.17 471.33 -52.48 453.22 C-63.79 442.13 -70.66 430.06 -75.91 415.2 C-76.24 414.29 -76.57 413.37 -76.91 412.43 C-80.07 402.17 -80.25 390.78 -80.65 380.12 C-80.71 378.78 -80.76 377.44 -80.82 376.1 C-80.97 372.47 -81.11 368.85 -81.25 365.23 C-81.38 362.15 -81.5 359.07 -81.63 355.98 C-82.74 328.84 -83.7 301.68 -84.66 274.53 C-85.65 246.58 -85.65 246.58 -86.91 218.64 C-87.85 199.52 -88.6 180.38 -89.32 161.25 C-89.46 157.67 -89.6 154.08 -89.74 150.5 C-90.43 133 -91.05 115.49 -91.22 97.97 C-91.23 96.47 -91.26 94.97 -91.29 93.47 C-91.78 68.04 -81.76 44.71 -64.41 26.27 C-47.16 9.44 -24.02 0.13 0 0 Z " fill="#FDFDFD" transform="translate(628.90625,288.796875)"/>
<path d="M0 0 C0.86 0.63 1.72 1.26 2.61 1.91 C19.6 14.89 32.52 35.55 36.53 56.64 C39.76 81.66 36.25 106 21.55 126.86 C12.87 137.94 2.62 147.67 -10 154 C-10.94 154.48 -11.87 154.95 -12.84 155.44 C-35.27 165.75 -61.17 165.91 -84.18 157.53 C-106.71 148.7 -124.43 131.49 -134.55 109.66 C-143.89 86.95 -143.57 62.45 -134.69 39.69 C-126.96 22.55 -116.39 9.61 -101 -1 C-100.18 -1.57 -99.36 -2.15 -98.52 -2.74 C-69.04 -21.88 -28.26 -20.68 0 0 Z " fill="#FDFDFD" transform="translate(691,826)"/>
<path d="M0 0 C1.98 0 3.96 0 6 0 C6 0.33 6 0.66 6 1 C4.02 1 2.04 1 0 1 C0 0.67 0 0.34 0 0 Z " fill="#000000" transform="translate(721,1275)"/>
<path d="M0 0 C1.98 0 3.96 0 6 0 C6 0.33 6 0.66 6 1 C4.02 1 2.04 1 0 1 C0 0.67 0 0.34 0 0 Z " fill="#000000" transform="translate(553,1275)"/>
<path d="M0 0 C1.98 0 3.96 0 6 0 C6 0.33 6 0.66 6 1 C4.02 1 2.04 1 0 1 C0 0.67 0 0.34 0 0 Z " fill="#000000" transform="translate(742,1272)"/>
<path d="M0 0 C0.33 0 0.66 0 1 0 C1 1.98 1 3.96 1 6 C0.67 6 0.34 6 0 6 C0 4.02 0 2.04 0 0 Z " fill="#000000" transform="translate(1275,721)"/>
<path d="M0 0 C0.33 0 0.66 0 1 0 C1 1.98 1 3.96 1 6 C0.67 6 0.34 6 0 6 C0 4.02 0 2.04 0 0 Z " fill="#000000" transform="translate(1275,553)"/>
<path d="M0 0 C1.65 0 3.3 0 5 0 C5 0.33 5 0.66 5 1 C3.35 1 1.7 1 0 1 C0 0.67 0 0.34 0 0 Z " fill="#000000" transform="translate(533,1272)"/>
<path d="M0 0 C1.65 0 3.3 0 5 0 C5 0.33 5 0.66 5 1 C3.35 1 1.7 1 0 1 C0 0.67 0 0.34 0 0 Z " fill="#000000" transform="translate(769,1267)"/>
<path d="M0 0 C1.65 0 3.3 0 5 0 C5 0.33 5 0.66 5 1 C3.35 1 1.7 1 0 1 C0 0.67 0 0.34 0 0 Z " fill="#000000" transform="translate(506,1267)"/>
<path d="M0 0 C1.65 0 3.3 0 5 0 C5 0.33 5 0.66 5 1 C3.35 1 1.7 1 0 1 C0 0.67 0 0.34 0 0 Z " fill="#000000" transform="translate(791,1262)"/>
<path d="M0 0 C4 1 4 1 4 1 Z " fill="#000000" transform="translate(522,1270)"/>
<path d="M0 0 C4 1 4 1 4 1 Z " fill="#000000" transform="translate(485,1262)"/>
<path d="M0 0 C3 1 3 1 3 1 Z " fill="#000000" transform="translate(756,1270)"/>
<path d="M0 0 C2 1 2 1 2 1 Z " fill="#000000" transform="translate(801,1260)"/>
<path d="M0 0 C2 1 2 1 2 1 Z " fill="#000000" transform="translate(477,1260)"/>
<path d="M0 0 C2 1 2 1 2 1 Z " fill="#000000" transform="translate(819,1255)"/>
<path d="M0 0 C2 1 2 1 2 1 Z " fill="#000000" transform="translate(829,1252)"/>
<path d="M0 0 C2 1 2 1 2 1 Z " fill="#000000" transform="translate(449,1252)"/>
<path d="M0 0 C2 1 2 1 2 1 Z " fill="#000000" transform="translate(844,1247)"/>
<path d="M0 0 C2 1 2 1 2 1 Z " fill="#000000" transform="translate(434,1247)"/>
<path d="M0 0 C2 1 2 1 2 1 Z " fill="#000000" transform="translate(406,1237)"/>
<path d="M0 0 C2 1 2 1 2 1 Z " fill="#000000" transform="translate(884,1232)"/>
<path d="M0 0 C2 1 2 1 2 1 Z " fill="#000000" transform="translate(394,1232)"/>
<path d="" fill="#000000" transform="translate(0,0)"/>
<path d="" fill="#000000" transform="translate(0,0)"/>
<path d="" fill="#000000" transform="translate(0,0)"/>
<path d="" fill="#000000" transform="translate(0,0)"/>
<path d="" fill="#000000" transform="translate(0,0)"/>
<path d="" fill="#000000" transform="translate(0,0)"/>
<path d="" fill="#FB2247" transform="translate(0,0)"/>
<path d="" fill="#000000" transform="translate(0,0)"/>
<path d="M0 0 C2 1 2 1 2 1 Z " fill="#FB2247" transform="translate(472,19)"/>
<path d="" fill="#000000" transform="translate(0,0)"/>
<path d="" fill="#000000" transform="translate(0,0)"/>
<path d="" fill="#000000" transform="translate(0,0)"/>
<path d="" fill="#000000" transform="translate(0,0)"/>
<path d="" fill="#000000" transform="translate(0,0)"/>
<path d="" fill="#000000" transform="translate(0,0)"/>
<path d="" fill="#000000" transform="translate(0,0)"/>
<path d="" fill="#000000" transform="translate(0,0)"/>
<path d="" fill="#000000" transform="translate(0,0)"/>
<path d="" fill="#000000" transform="translate(0,0)"/>
<path d="" fill="#000000" transform="translate(0,0)"/>
<path d="" fill="#000000" transform="translate(0,0)"/>
<path d="" fill="#000000" transform="translate(0,0)"/>
<path d="" fill="#000000" transform="translate(0,0)"/>
<path d="" fill="#000000" transform="translate(0,0)"/>
<path d="" fill="#000000" transform="translate(0,0)"/>
<path d="" fill="#000000" transform="translate(0,0)"/>
<path d="" fill="#000000" transform="translate(0,0)"/>
<path d="" fill="#000000" transform="translate(0,0)"/>
<path d="" fill="#000000" transform="translate(0,0)"/>
<path d="" fill="#000000" transform="translate(0,0)"/>
<path d="" fill="#000000" transform="translate(0,0)"/>
<path d="" fill="#000000" transform="translate(0,0)"/>
<path d="" fill="#000000" transform="translate(0,0)"/>
<path d="" fill="#000000" transform="translate(0,0)"/>
<path d="" fill="#000000" transform="translate(0,0)"/>
<path d="" fill="#000000" transform="translate(0,0)"/>
<path d="" fill="#000000" transform="translate(0,0)"/>
<path d="" fill="#000000" transform="translate(0,0)"/>
<path d="" fill="#000000" transform="translate(0,0)"/>
<path d="" fill="#000000" transform="translate(0,0)"/>
<path d="" fill="#000000" transform="translate(0,0)"/>
<path d="" fill="#000000" transform="translate(0,0)"/>
<path d="" fill="#000000" transform="translate(0,0)"/>
<path d="" fill="#000000" transform="translate(0,0)"/>
<path d="" fill="#000000" transform="translate(0,0)"/>
<path d="" fill="#000000" transform="translate(0,0)"/>
<path d="" fill="#000000" transform="translate(0,0)"/>
<path d="" fill="#FB2247" transform="translate(0,0)"/>
<path d="" fill="#000000" transform="translate(0,0)"/>
<path d="" fill="#FB2247" transform="translate(0,0)"/>
<path d="" fill="#FB2247" transform="translate(0,0)"/>
<path d="" fill="#000000" transform="translate(0,0)"/>
<path d="" fill="#FB2247" transform="translate(0,0)"/>
<path d="" fill="#FB2247" transform="translate(0,0)"/>
<path d="" fill="#000000" transform="translate(0,0)"/>
<path d="" fill="#FB2247" transform="translate(0,0)"/>
<path d="" fill="#FB2247" transform="translate(0,0)"/>
<path d="" fill="#FB2247" transform="translate(0,0)"/>
<path d="" fill="#FB2247" transform="translate(0,0)"/>
<path d="" fill="#000000" transform="translate(0,0)"/>
<path d="" fill="#FB2247" transform="translate(0,0)"/>
<path d="" fill="#FB2247" transform="translate(0,0)"/>
<path d="" fill="#FB2247" transform="translate(0,0)"/>
<path d="" fill="#FB2247" transform="translate(0,0)"/>
<path d="" fill="#FB2247" transform="translate(0,0)"/>
<path d="" fill="#FB2247" transform="translate(0,0)"/>
<path d="" fill="#FB2247" transform="translate(0,0)"/>
<path d="" fill="#FB2247" transform="translate(0,0)"/>
<path d="" fill="#FB2247" transform="translate(0,0)"/>
<path d="" fill="#FB2247" transform="translate(0,0)"/>
<path d="" fill="#FB2247" transform="translate(0,0)"/>
<path d="" fill="#FB2247" transform="translate(0,0)"/>
<path d="" fill="#FB2247" transform="translate(0,0)"/>
<path d="" fill="#FB2247" transform="translate(0,0)"/>
<path d="" fill="#FB2247" transform="translate(0,0)"/>
<path d="" fill="#FB2247" transform="translate(0,0)"/>
<path d="" fill="#FB2247" transform="translate(0,0)"/>
<path d="" fill="#FB2247" transform="translate(0,0)"/>
<path d="" fill="#FB2247" transform="translate(0,0)"/>
<path d="" fill="#FB2247" transform="translate(0,0)"/>
<path d="" fill="#FB2247" transform="translate(0,0)"/>
<path d="" fill="#FB2247" transform="translate(0,0)"/>
<path d="" fill="#FB2247" transform="translate(0,0)"/>
<path d="" fill="#FB2247" transform="translate(0,0)"/>
<path d="" fill="#FB2247" transform="translate(0,0)"/>
<path d="" fill="#FB2247" transform="translate(0,0)"/>
<path d="" fill="#FB2247" transform="translate(0,0)"/>
<path d="" fill="#000000" transform="translate(0,0)"/>
<path d="" fill="#000000" transform="translate(0,0)"/>
<path d="" fill="#000000" transform="translate(0,0)"/>
</svg>
