<?xml version="1.0" encoding="UTF-8"?>
<!-- Generator: visioncortex VTracer 0.6.3 -->
<svg version="1.1" xmlns="http://www.w3.org/2000/svg" width="1280" height="1280">
<path d="M0 0 C1.37 0.02 1.37 0.02 2.78 0.04 C3.7 0.04 4.62 0.05 5.56 0.06 C6.27 0.07 6.98 0.09 7.71 0.1 C7.71 0.43 7.71 0.76 7.71 1.1 C8.85 1.14 9.99 1.19 11.16 1.23 C63.06 3.32 63.06 3.32 88.18 8.41 C91.77 9.11 95.34 9.62 98.96 10.1 C104.38 10.84 109.55 11.97 114.83 13.38 C117.72 14.1 120.59 14.65 123.53 15.16 C127.7 15.88 131.66 16.89 135.71 18.1 C137.63 18.56 139.55 19.02 141.46 19.47 C146.42 20.7 151.11 22.27 155.88 24.07 C158.89 25.16 161.91 26.11 164.96 27.04 C185.51 33.27 185.51 33.27 193.88 37.3 C195.69 38.15 195.69 38.15 197.59 38.55 C201.2 39.48 204.58 40.99 208.03 42.41 C208.76 42.71 209.5 43 210.25 43.31 C214.98 45.25 219.3 47.52 223.71 50.1 C225.98 50.86 225.98 50.86 227.71 51.1 C227.71 51.76 227.71 52.42 227.71 53.1 C228.53 53.18 229.35 53.26 230.19 53.34 C234.59 54.28 238.13 56.09 242.09 58.16 C243.19 58.73 243.19 58.73 244.32 59.3 C246.12 60.23 247.92 61.16 249.71 62.1 C249.71 62.76 249.71 63.42 249.71 64.1 C250.29 64.24 250.87 64.39 251.46 64.54 C253.55 65.06 255.63 65.58 257.71 66.1 C257.71 66.76 257.71 67.42 257.71 68.1 C258.61 68.31 258.61 68.31 259.53 68.54 C261.28 68.98 263 69.53 264.71 70.1 C264.71 70.76 264.71 71.42 264.71 72.1 C265.44 72.2 266.16 72.3 266.9 72.41 C269.97 73.16 272.07 74.39 274.71 76.1 C275.37 76.43 276.03 76.76 276.71 77.1 C276.71 77.76 276.71 78.42 276.71 79.1 C277.45 79.19 278.18 79.28 278.93 79.38 C282.15 80.21 283.76 81.46 286.28 83.6 C289.15 86.02 291.07 87.3 294.71 88.1 C296.71 90.1 296.71 90.1 297.71 92.1 C299.38 92.77 301.05 93.43 302.71 94.1 C304.4 95.21 306.04 96.39 307.65 97.6 C310.89 100.01 314.14 102.41 317.44 104.74 C318.06 105.19 318.69 105.63 319.34 106.09 C320.57 106.95 321.8 107.82 323.03 108.68 C328.81 112.78 328.81 112.78 330.71 115.1 C330.71 115.76 330.71 116.42 330.71 117.1 C331.46 117.39 332.2 117.68 332.96 117.97 C335.28 118.92 337.49 119.95 339.71 121.1 C339.71 121.76 339.71 122.42 339.71 123.1 C340.3 123.35 340.88 123.6 341.48 123.86 C344.69 125.64 346.83 128.17 349.32 130.83 C351.27 132.67 353.1 134.12 355.26 135.66 C360.39 139.48 364.82 143.92 369.32 148.44 C370.21 149.33 371.1 150.22 372.02 151.13 C374.36 153.47 376.7 155.82 379.04 158.17 C380.94 160.08 382.85 161.98 384.76 163.88 C387.06 166.17 389.35 168.46 391.64 170.75 C392.49 171.6 393.34 172.45 394.22 173.32 C398.24 177.38 401.72 181.23 404.71 186.1 C406.34 187.78 408.01 189.43 409.71 191.04 C413.61 194.85 416.45 198.15 418.71 203.1 C418.71 203.76 418.71 204.42 418.71 205.1 C419.61 205.47 419.61 205.47 420.53 205.85 C423.1 207.32 424.01 208.67 425.71 211.1 C426.69 212.21 427.67 213.31 428.65 214.41 C430.75 216.82 432.43 219.18 433.96 221.97 C435.36 225.16 435.36 225.16 437.71 226.1 C437.84 227.07 437.96 228.04 438.09 229.04 C438.3 230.05 438.5 231.06 438.71 232.1 C440.63 233.26 440.63 233.26 442.71 234.1 C443.78 236.04 443.78 236.04 444.71 238.1 C445.21 238.57 445.7 239.05 446.21 239.54 C447.71 241.1 447.71 241.1 448.65 243.47 C449.88 246.51 451.65 248.57 453.71 251.1 C454.04 252.09 454.37 253.08 454.71 254.1 C455.7 254.76 456.69 255.42 457.71 256.1 C458.97 258.76 459.8 261.38 460.59 264.22 C461.87 267.5 462.95 268.09 465.71 270.1 C466.78 272.06 467.78 274.06 468.71 276.1 C469.37 277.09 470.03 278.08 470.71 279.1 C471.53 281.43 472.23 283.77 472.93 286.14 C473.54 288.29 473.54 288.29 475.71 289.1 C476.6 291.39 477.25 293.71 477.93 296.07 C478.52 298.28 478.52 298.28 480.71 299.1 C481.6 301.39 482.25 303.71 482.93 306.07 C483.52 308.28 483.52 308.28 485.71 309.1 C486.64 311.14 486.64 311.14 487.59 313.72 C488.83 317 490.13 319.99 491.96 322.97 C493.71 326.1 493.71 326.1 493.71 330.1 C494.37 330.43 495.03 330.76 495.71 331.1 C496.57 333.02 496.57 333.02 497.34 335.41 C497.6 336.19 497.86 336.97 498.13 337.77 C498.71 340.1 498.71 340.1 498.71 344.1 C499.37 344.1 500.03 344.1 500.71 344.1 C501.3 345.92 501.3 345.92 501.9 347.79 C503.62 352.96 505.61 358.02 507.63 363.08 C508.6 365.77 509.18 368.3 509.71 371.1 C510.21 372.31 510.7 373.53 511.21 374.79 C513.05 379.46 513.42 384.12 513.71 389.1 C514.37 389.1 515.03 389.1 515.71 389.1 C516.72 393.38 517.65 397.6 518.21 401.97 C518.52 405.25 518.52 405.25 520.71 408.1 C521.28 410.45 521.28 410.45 521.71 413.16 C521.88 414.13 522.04 415.1 522.21 416.09 C522.46 417.58 522.46 417.58 522.71 419.1 C523.06 420.97 523.41 422.85 523.78 424.72 C524.01 425.95 524.01 425.95 524.25 427.2 C524.54 429.1 524.54 429.1 525.71 430.1 C525.92 431.7 526.08 433.3 526.21 434.91 C526.42 437.36 526.61 439.68 527.21 442.07 C528.07 445.53 528.17 449.09 528.43 452.64 C528.57 455.1 528.57 455.1 529.71 457.1 C529.38 457.76 529.05 458.42 528.71 459.1 C529.37 459.1 530.03 459.1 530.71 459.1 C530.78 460.21 530.84 461.31 530.9 462.46 C530.98 463.92 531.07 465.38 531.15 466.85 C531.19 467.58 531.23 468.31 531.27 469.06 C531.47 473.05 531.47 473.05 532.22 476.96 C532.86 479.71 532.92 482.32 533 485.14 C533.03 486.3 533.07 487.45 533.11 488.64 C533.18 491.08 533.25 493.52 533.32 495.96 C533.36 497.11 533.4 498.27 533.43 499.45 C533.48 501.04 533.48 501.04 533.53 502.66 C533.45 505.04 533.45 505.04 534.71 506.1 C535.69 512.16 535.86 518.09 535.85 524.22 C535.85 525.64 535.85 525.64 535.85 527.09 C535.85 529.08 535.85 531.07 535.85 533.06 C535.84 536.09 535.85 539.12 535.85 542.14 C535.85 544.09 535.85 546.03 535.85 547.97 C535.85 549.32 535.85 549.32 535.85 550.69 C535.8 565.01 535.8 565.01 533.71 567.1 C533.57 569.23 533.49 571.37 533.43 573.5 C533.38 575.45 533.38 575.45 533.32 577.45 C533.28 578.83 533.25 580.21 533.21 581.6 C533.15 584.3 533.07 586.99 533 589.69 C532.95 591.5 532.95 591.5 532.9 593.34 C532.71 596.1 532.71 596.1 531.71 597.1 C531.48 600.43 531.32 603.76 531.2 607.11 C531.01 611.01 530.49 613.67 528.71 617.1 C528.45 619.49 528.27 621.88 528.15 624.29 C527.81 631 527.81 631 526.71 632.1 C526.43 634.61 526.27 637.13 526.09 639.65 C525.71 642.1 525.71 642.1 523.71 645.1 C523.29 647.8 523.29 647.8 523.15 650.72 C522.81 656 522.81 656 521.71 657.1 C521.35 658.59 521.02 660.09 520.71 661.6 C519.83 665.99 519.83 665.99 518.71 667.1 C518.53 668.47 518.39 669.84 518.28 671.22 C517.86 675.4 516.99 679.11 515.71 683.1 C515.05 683.1 514.39 683.1 513.71 683.1 C513.69 683.72 513.66 684.33 513.64 684.97 C513.26 690.53 512.22 694.68 509.76 699.66 C508.12 703.47 507.31 707.45 506.43 711.5 C505.71 714.1 505.71 714.1 503.71 717.1 C503.32 719.09 502.98 721.09 502.71 723.1 C502.05 723.1 501.39 723.1 500.71 723.1 C500.78 724.21 500.78 724.21 500.84 725.35 C500.71 728.28 500.13 729.58 498.71 732.1 C498.38 732.98 498.05 733.87 497.71 734.79 C496.71 737.1 496.71 737.1 494.71 738.1 C494.1 740.38 494.1 740.38 493.71 743.04 C492.93 747.88 492.93 747.88 490.71 750.1 C489.56 752.13 488.76 753.87 488.28 756.16 C487.71 758.1 487.71 758.1 486.28 759.41 C484.4 761.18 484.4 761.18 483.71 764.66 C482.71 768.1 482.71 768.1 479.71 770.1 C479.57 771.23 479.43 772.37 479.28 773.54 C478.6 777.8 477.94 777.68 474.71 780.1 C474.38 782.43 474.04 784.76 473.71 787.1 C472.4 788.45 471.07 789.78 469.71 791.1 C468.92 792.86 468.92 792.86 468.28 794.85 C466.67 799.54 464.34 805.78 459.71 808.1 C459.71 809.75 459.71 811.4 459.71 813.1 C459.05 813.1 458.39 813.1 457.71 813.1 C457.45 813.63 457.18 814.17 456.9 814.72 C456.51 815.51 456.12 816.29 455.71 817.1 C454.97 818.68 454.97 818.68 454.21 820.29 C452.71 823.1 452.71 823.1 450.71 824.1 C450.05 823.77 449.39 823.44 448.71 823.1 C449.04 824.09 449.37 825.08 449.71 826.1 C446.55 832.54 446.55 832.54 442.71 835.1 C442.37 836.43 442.04 837.76 441.71 839.1 C440.74 840.12 439.73 841.12 438.71 842.1 C438.2 842.98 437.68 843.87 437.15 844.79 C436.68 845.55 436.2 846.31 435.71 847.1 C435.05 847.1 434.39 847.1 433.71 847.1 C433.65 847.98 433.59 848.87 433.53 849.79 C432.53 853.87 430.91 855.44 427.71 858.1 C427.05 858.1 426.39 858.1 425.71 858.1 C425.71 858.76 425.71 859.42 425.71 860.1 C425.05 860.1 424.39 860.1 423.71 860.1 C424.04 861.09 424.37 862.08 424.71 863.1 C424.27 863.51 423.82 863.92 423.36 864.35 C420.23 867.34 417.54 870.13 415.4 873.91 C412.68 878.58 408.93 882.02 405.02 885.7 C402.62 888.01 402.62 888.01 401.04 890.9 C400.6 891.62 400.16 892.35 399.71 893.1 C399.05 893.1 398.39 893.1 397.71 893.1 C397.33 893.97 397.33 893.97 396.94 894.86 C395.59 897.33 394.08 898.98 392.09 900.98 C391.35 901.72 390.61 902.47 389.85 903.24 C388.65 904.44 388.65 904.44 387.42 905.66 C386.18 906.9 386.18 906.9 384.91 908.17 C383.16 909.92 381.41 911.67 379.66 913.42 C376.98 916.08 374.32 918.76 371.65 921.43 C369.95 923.13 368.25 924.84 366.54 926.54 C365.75 927.33 364.96 928.13 364.14 928.95 C360.2 932.86 356.43 936.18 351.71 939.1 C349.57 941.16 347.57 943.3 345.55 945.49 C343.71 947.1 343.71 947.1 340.71 947.1 C340.38 948.09 340.05 949.08 339.71 950.1 C338.93 950.18 338.15 950.26 337.34 950.35 C336.47 950.6 335.61 950.84 334.71 951.1 C334.03 952.42 333.37 953.76 332.71 955.1 C331.23 956.59 331.23 956.59 329.53 957.97 C327.6 959.54 325.71 961.1 323.88 962.78 C320.43 965.92 318.38 967.3 313.71 968.1 C313.03 969.42 312.37 970.76 311.71 972.1 C309.34 973.16 309.34 973.16 306.71 974.1 C305.38 975.09 304.04 976.09 302.71 977.1 C302.05 977.1 301.39 977.1 300.71 977.1 C300.38 978.09 300.05 979.08 299.71 980.1 C298.39 980.1 297.07 980.1 295.71 980.1 C295.38 981.09 295.05 982.08 294.71 983.1 C292.96 984.1 292.96 984.1 290.71 985.1 C289.85 985.63 288.98 986.17 288.09 986.72 C285.71 988.1 285.71 988.1 283.71 988.1 C283.49 988.72 283.26 989.34 283.03 989.97 C281.31 992.76 279.73 992.91 276.71 994.1 C274.39 995.61 272.15 997.23 269.9 998.86 C267.71 1000.1 267.71 1000.1 263.71 1000.1 C263.71 1000.76 263.71 1001.42 263.71 1002.1 C262.06 1002.43 260.41 1002.76 258.71 1003.1 C258.71 1003.76 258.71 1004.42 258.71 1005.1 C255.4 1006.52 252.27 1007.49 248.71 1008.1 C248.71 1008.76 248.71 1009.42 248.71 1010.1 C247.76 1010.28 247.76 1010.28 246.78 1010.47 C246.1 1010.68 245.42 1010.89 244.71 1011.1 C244.38 1011.76 244.05 1012.42 243.71 1013.1 C242.06 1013.1 240.41 1013.1 238.71 1013.1 C238.71 1013.76 238.71 1014.42 238.71 1015.1 C237.76 1015.28 237.76 1015.28 236.78 1015.47 C236.1 1015.68 235.42 1015.89 234.71 1016.1 C234.38 1016.76 234.05 1017.42 233.71 1018.1 C232.06 1018.1 230.41 1018.1 228.71 1018.1 C228.71 1018.76 228.71 1019.42 228.71 1020.1 C227.99 1020.38 227.27 1020.65 226.52 1020.94 C223.87 1022.03 221.38 1023.27 218.84 1024.6 C214.86 1026.62 211.02 1027.91 206.71 1029.1 C205.91 1029.61 205.11 1030.13 204.28 1030.66 C200.75 1032.64 197.73 1032.76 193.71 1033.1 C193.71 1033.76 193.71 1034.42 193.71 1035.1 C192.06 1035.1 190.41 1035.1 188.71 1035.1 C188.71 1035.76 188.71 1036.42 188.71 1037.1 C187.32 1037.47 187.32 1037.47 185.9 1037.85 C182.68 1038.77 179.55 1039.87 176.4 1041.04 C171.93 1042.69 167.44 1044.12 162.86 1045.44 C160.59 1046.09 160.59 1046.09 158.03 1047.29 C154.88 1048.39 152.02 1048.23 148.71 1048.1 C148.71 1048.76 148.71 1049.42 148.71 1050.1 C144.01 1051.6 139.66 1052.41 134.73 1052.75 C132.41 1053.01 132.41 1053.01 129.71 1055.1 C127.39 1055.46 125.05 1055.79 122.71 1056.1 C122.38 1056.43 122.05 1056.76 121.71 1057.1 C118.94 1057.38 116.16 1057.55 113.38 1057.72 C110.49 1057.93 110.49 1057.93 107.71 1060.1 C105.27 1060.48 105.27 1060.48 102.59 1060.66 C99.35 1060.64 99.35 1060.64 96.71 1062.1 C93.19 1062.38 89.67 1062.55 86.13 1062.72 C82.86 1062.87 82.86 1062.87 80.78 1064.1 C77.53 1065.67 74.08 1065.53 70.53 1065.66 C65.74 1065.43 65.74 1065.43 61.71 1067.1 C59.58 1067.24 57.45 1067.33 55.31 1067.38 C54.01 1067.42 52.71 1067.45 51.37 1067.49 C49.29 1067.55 47.21 1067.6 45.13 1067.65 C43.12 1067.7 41.12 1067.76 39.12 1067.82 C37.92 1067.85 36.71 1067.88 35.47 1067.91 C32.81 1067.79 32.81 1067.79 31.71 1069.1 C25.65 1070.08 19.72 1070.24 13.59 1070.23 C12.17 1070.23 12.17 1070.23 10.72 1070.23 C8.73 1070.23 6.74 1070.23 4.75 1070.23 C1.72 1070.22 -1.3 1070.23 -4.33 1070.23 C-6.27 1070.23 -8.22 1070.23 -10.16 1070.23 C-11.5 1070.23 -11.5 1070.23 -12.88 1070.24 C-27.2 1070.18 -27.2 1070.18 -29.29 1068.1 C-31.33 1067.95 -33.39 1067.87 -35.44 1067.82 C-37.31 1067.76 -37.31 1067.76 -39.23 1067.7 C-40.55 1067.67 -41.86 1067.63 -43.22 1067.6 C-45.82 1067.53 -48.41 1067.46 -51 1067.38 C-52.73 1067.33 -52.73 1067.33 -54.5 1067.29 C-57.29 1067.1 -57.29 1067.1 -59.29 1066.1 C-62.45 1065.87 -65.61 1065.7 -68.79 1065.58 C-72.44 1065.39 -74.17 1065.17 -77.29 1063.1 C-80.35 1062.67 -80.35 1062.67 -83.72 1062.54 C-87.4 1062.33 -90.73 1062.03 -94.29 1061.1 C-96.84 1060.84 -99.39 1060.66 -101.95 1060.48 C-104.29 1060.1 -104.29 1060.1 -107.29 1058.1 C-109.99 1057.68 -109.99 1057.68 -112.91 1057.54 C-118.19 1057.2 -118.19 1057.2 -119.29 1056.1 C-120.78 1055.73 -122.28 1055.4 -123.79 1055.1 C-128.17 1054.21 -128.17 1054.21 -129.29 1053.1 C-130.66 1052.91 -132.03 1052.77 -133.41 1052.66 C-137.58 1052.25 -141.29 1051.37 -145.29 1050.1 C-145.29 1049.44 -145.29 1048.78 -145.29 1048.1 C-145.9 1048.07 -146.52 1048.05 -147.16 1048.02 C-152.86 1047.64 -157.15 1046.51 -162.27 1044 C-164.38 1042.95 -164.38 1042.95 -167.29 1042.6 C-170.17 1042.12 -172.1 1041.34 -174.72 1040.1 C-178.66 1038.26 -181.97 1037.46 -186.29 1037.1 C-186.29 1036.44 -186.29 1035.78 -186.29 1035.1 C-187.61 1035.1 -188.93 1035.1 -190.29 1035.1 C-190.29 1034.44 -190.29 1033.78 -190.29 1033.1 C-191.48 1033.02 -192.68 1032.93 -193.91 1032.85 C-198.23 1032.33 -200.69 1030.54 -204.29 1028.1 C-208.02 1027.3 -208.02 1027.3 -211.29 1027.1 C-211.29 1026.44 -211.29 1025.78 -211.29 1025.1 C-212.28 1024.77 -213.27 1024.44 -214.29 1024.1 C-216.18 1023.41 -218.08 1022.73 -219.97 1022.04 C-220.97 1021.67 -221.96 1021.31 -222.98 1020.94 C-223.74 1020.66 -224.5 1020.38 -225.29 1020.1 C-225.29 1019.44 -225.29 1018.78 -225.29 1018.1 C-230.24 1016.61 -230.24 1016.61 -235.29 1015.1 C-235.29 1014.44 -235.29 1013.78 -235.29 1013.1 C-240.24 1011.61 -240.24 1011.61 -245.29 1010.1 C-245.29 1009.44 -245.29 1008.78 -245.29 1008.1 C-245.98 1007.9 -246.68 1007.71 -247.4 1007.51 C-248.31 1007.25 -249.22 1006.99 -250.16 1006.72 C-251.07 1006.47 -251.97 1006.21 -252.9 1005.95 C-255.29 1005.1 -255.29 1005.1 -257.29 1003.1 C-258.28 1002.77 -259.27 1002.44 -260.29 1002.1 C-260.29 1001.44 -260.29 1000.78 -260.29 1000.1 C-260.95 1000.1 -261.61 1000.1 -262.29 1000.1 C-262.29 999.44 -262.29 998.78 -262.29 998.1 C-263.61 998.43 -264.93 998.76 -266.29 999.1 C-266.62 998.11 -266.95 997.12 -267.29 996.1 C-268.28 995.77 -269.27 995.44 -270.29 995.1 C-270.29 994.44 -270.29 993.78 -270.29 993.1 C-271.28 993.43 -272.27 993.76 -273.29 994.1 C-276.41 992.85 -276.41 992.85 -279.29 991.1 C-279.62 990.11 -279.95 989.12 -280.29 988.1 C-282.28 987.41 -284.28 986.74 -286.29 986.1 C-287.29 985.1 -288.29 984.1 -289.29 983.1 C-290.99 982.39 -290.99 982.39 -292.72 981.66 C-296.17 980.15 -297.86 978.89 -300.29 976.1 C-302.31 973.83 -302.31 973.83 -305.85 972.6 C-309.29 971.1 -309.29 971.1 -310.29 969.1 C-312.27 967.78 -314.31 966.61 -316.38 965.41 C-318.29 964.1 -318.29 964.1 -320.29 961.1 C-320.95 961.1 -321.61 961.1 -322.29 961.1 C-322.29 960.11 -322.29 959.12 -322.29 958.1 C-323.34 958 -323.34 958 -324.41 957.91 C-328.36 956.79 -330.28 954.9 -333.29 952.1 C-333.62 951.44 -333.95 950.78 -334.29 950.1 C-335.02 949.84 -335.75 949.58 -336.51 949.31 C-340 947.79 -342.17 945.46 -344.72 942.72 C-347.4 939.9 -349.79 937.42 -353.07 935.31 C-356.67 932.84 -359.55 930.08 -362.6 926.98 C-363.47 926.1 -363.47 926.1 -364.36 925.21 C-366.19 923.37 -368.02 921.51 -369.85 919.66 C-371.08 918.42 -372.31 917.18 -373.54 915.94 C-376.31 913.15 -379.08 910.36 -381.84 907.55 C-383.24 906.14 -384.67 904.77 -386.11 903.39 C-388.29 901.1 -388.29 901.1 -389.29 898.1 C-389.95 897.77 -390.61 897.44 -391.29 897.1 C-393.29 896.1 -393.29 896.1 -394.29 893.1 C-395.61 892.42 -396.95 891.76 -398.29 891.1 C-399.74 889.4 -399.74 889.4 -401.1 887.41 C-403.18 884.49 -405.32 881.96 -407.91 879.47 C-410.1 877.36 -411.91 875.35 -413.54 872.79 C-415.17 869.89 -415.17 869.89 -418.29 868.1 C-419.62 865.79 -420.44 863.64 -421.29 861.1 C-422.93 859.41 -424.6 857.74 -426.29 856.1 C-430.16 851.5 -433.77 846.64 -436.85 841.47 C-438.27 838.99 -438.27 838.99 -440.35 836.6 C-442.25 834.15 -443.29 832.01 -444.29 829.1 C-444.95 829.1 -445.61 829.1 -446.29 829.1 C-446.78 828.21 -447.28 827.32 -447.79 826.41 C-450.53 821.6 -453.47 816.91 -456.39 812.2 C-457.86 809.79 -459.28 807.38 -460.66 804.91 C-462.14 802.07 -462.14 802.07 -464.29 800.1 C-465.02 798.41 -465.76 796.72 -466.46 795.02 C-467.77 791.96 -469.38 789.07 -470.97 786.16 C-477.97 773.18 -484.83 760.21 -489.29 746.1 C-489.95 746.1 -490.61 746.1 -491.29 746.1 C-491.43 745.19 -491.57 744.28 -491.72 743.35 C-492.32 739.68 -492.32 739.68 -493.29 736.1 C-493.95 735.77 -494.61 735.44 -495.29 735.1 C-494.96 734.44 -494.63 733.78 -494.29 733.1 C-494.95 732.77 -495.61 732.44 -496.29 732.1 C-497.02 730.12 -497.68 728.12 -498.29 726.1 C-500.46 719.4 -502.75 712.8 -505.41 706.27 C-508.39 698.86 -510.33 691.05 -512.41 683.35 C-512.59 682.69 -512.77 682.03 -512.96 681.35 C-513.73 678.5 -514.29 676.06 -514.29 673.1 C-514.95 672.77 -515.61 672.44 -516.29 672.1 C-516.85 670.16 -516.85 670.16 -517.29 667.66 C-517.45 666.75 -517.62 665.85 -517.79 664.91 C-517.95 663.98 -518.12 663.06 -518.29 662.1 C-518.61 660.43 -518.95 658.76 -519.29 657.1 C-521.29 647.1 -521.29 647.1 -521.78 644.6 C-522.12 642.94 -522.45 641.28 -522.79 639.62 C-528.37 611.93 -531.44 584.51 -532.64 556.32 C-532.68 555.47 -532.71 554.62 -532.75 553.74 C-532.82 552.09 -532.89 550.43 -532.96 548.78 C-533.19 543.47 -533.58 538.2 -534.19 532.91 C-534.24 532.01 -534.24 532.01 -534.29 531.1 C-533.96 530.77 -533.63 530.44 -533.29 530.1 C-533.14 528.7 -533.06 527.29 -533 525.89 C-532.97 524.99 -532.93 524.1 -532.89 523.18 C-532.86 522.2 -532.82 521.22 -532.79 520.22 C-532.74 519.22 -532.7 518.22 -532.66 517.19 C-532.53 513.97 -532.41 510.75 -532.29 507.54 C-532.16 504.34 -532.04 501.15 -531.91 497.96 C-531.83 495.97 -531.75 493.98 -531.68 491.99 C-531.41 485.27 -530.85 478.67 -529.57 472.05 C-529.44 471.38 -529.31 470.7 -529.18 470.01 C-529.05 469.32 -528.92 468.62 -528.79 467.91 C-527.59 461.43 -526.84 455.04 -526.5 448.44 C-526.29 446.1 -526.29 446.1 -525.29 445.1 C-524.91 443 -524.59 440.89 -524.29 438.79 C-523.77 435.16 -523.19 431.64 -522.29 428.1 C-522.08 426.68 -521.89 425.27 -521.72 423.85 C-521.58 422.61 -521.43 421.37 -521.29 420.1 C-520.63 420.1 -519.97 420.1 -519.29 420.1 C-519.33 418.9 -519.37 417.71 -519.41 416.47 C-519.42 412.64 -518.59 409.72 -517.29 406.1 C-516.91 403.77 -516.57 401.44 -516.29 399.1 C-515.63 399.1 -514.97 399.1 -514.29 399.1 C-514.33 398.03 -514.37 396.95 -514.41 395.85 C-514.29 392.21 -513.9 391.14 -512.29 388.1 C-512.07 386.46 -512.07 386.46 -511.85 384.79 C-511.24 380.81 -509.94 377.75 -508.29 374.1 C-507.93 372.77 -507.6 371.44 -507.29 370.1 C-506.82 368.39 -506.34 366.68 -505.85 364.97 C-505.48 363.67 -505.48 363.67 -505.1 362.34 C-504.29 360.1 -504.29 360.1 -502.29 358.1 C-501.88 355.77 -501.55 353.44 -501.29 351.1 C-500.63 351.1 -499.97 351.1 -499.29 351.1 C-499.1 349.55 -499.1 349.55 -498.91 347.97 C-498.35 344.48 -497.5 341.41 -496.29 338.1 C-495.96 338.1 -495.63 338.1 -495.29 338.1 C-494.85 336.52 -494.85 336.52 -494.41 334.91 C-493.51 331.87 -492.52 329.01 -491.29 326.1 C-490.63 326.1 -489.97 326.1 -489.29 326.1 C-489.33 325.31 -489.37 324.53 -489.41 323.72 C-489.29 321.1 -489.29 321.1 -487.29 319.1 C-486.73 317.62 -486.24 316.11 -485.79 314.6 C-484.9 311.63 -484.51 310.32 -482.29 308.1 C-481.74 306.78 -481.24 305.45 -480.79 304.1 C-479.86 301.36 -479.38 300.19 -477.29 298.1 C-476.74 296.78 -476.24 295.45 -475.79 294.1 C-474.86 291.36 -474.38 290.19 -472.29 288.1 C-471.74 286.78 -471.24 285.45 -470.79 284.1 C-469.86 281.36 -469.38 280.19 -467.29 278.1 C-466.58 276.45 -465.91 274.78 -465.29 273.1 C-464.63 273.1 -463.97 273.1 -463.29 273.1 C-463 272.19 -462.71 271.28 -462.41 270.35 C-461.11 266.6 -460.09 263.9 -457.29 261.1 C-456.82 259.89 -456.82 259.89 -456.35 258.66 C-455.26 256.05 -454.24 255.05 -452.29 253.1 C-451.98 252.25 -451.67 251.41 -451.35 250.54 C-450.29 248.1 -450.29 248.1 -448.16 246.79 C-447.23 246.44 -447.23 246.44 -446.29 246.1 C-446.29 244.45 -446.29 242.8 -446.29 241.1 C-445.63 241.1 -444.97 241.1 -444.29 241.1 C-444.29 240.44 -444.29 239.78 -444.29 239.1 C-443.63 238.77 -442.97 238.44 -442.29 238.1 C-442 237.29 -441.71 236.49 -441.41 235.66 C-440.29 233.1 -440.29 233.1 -438.16 231.79 C-437.23 231.44 -437.23 231.44 -436.29 231.1 C-436.37 230.33 -436.45 229.57 -436.54 228.79 C-436.45 227.9 -436.37 227.01 -436.29 226.1 C-434.97 225.07 -433.64 224.07 -432.29 223.1 C-431.16 221.36 -430.2 219.56 -429.23 217.74 C-428.15 215.87 -426.88 214.55 -425.29 213.1 C-424.63 212.11 -423.97 211.12 -423.29 210.1 C-421.39 207.64 -419.55 205.35 -417.29 203.22 C-415.11 201.11 -415.11 201.11 -413.72 198.04 C-411.36 193.62 -407.75 190.35 -404.17 186.92 C-401.89 184.73 -400.05 182.75 -398.29 180.1 C-394.55 175.06 -390.08 170.75 -385.65 166.33 C-384.82 165.5 -383.99 164.66 -383.13 163.8 C-381.37 162.05 -379.62 160.29 -377.86 158.54 C-375.16 155.85 -372.47 153.15 -369.77 150.45 C-368.07 148.74 -366.36 147.04 -364.65 145.33 C-363.84 144.52 -363.04 143.71 -362.2 142.88 C-361.46 142.13 -360.71 141.39 -359.94 140.62 C-359.28 139.96 -358.62 139.3 -357.94 138.63 C-356.29 137.1 -356.29 137.1 -354.29 136.1 C-349.88 132.89 -346.23 129.04 -342.47 125.12 C-339.57 122.43 -337.01 121.34 -333.29 120.1 C-333.29 119.44 -333.29 118.78 -333.29 118.1 C-331.3 116.41 -329.3 114.74 -327.29 113.1 C-326.96 112.44 -326.63 111.78 -326.29 111.1 C-324.64 111.1 -322.99 111.1 -321.29 111.1 C-320.94 110.23 -320.94 110.23 -320.6 109.35 C-318.01 104.91 -313.6 102.66 -309.29 100.1 C-308.63 99.44 -307.97 98.78 -307.29 98.1 C-305.97 98.1 -304.65 98.1 -303.29 98.1 C-302.88 97.2 -302.88 97.2 -302.47 96.29 C-301.25 94.03 -300.35 92.63 -298.29 91.1 C-295.6 90.91 -295.6 90.91 -293.29 91.1 C-292.96 90.11 -292.63 89.12 -292.29 88.1 C-290.97 88.1 -289.65 88.1 -288.29 88.1 C-288.08 87.5 -287.87 86.9 -287.66 86.29 C-285.77 83.28 -283.45 82.58 -280.29 81.1 C-279.77 80.56 -279.25 80.03 -278.72 79.47 C-276.77 77.6 -274.9 77.58 -272.29 77.1 C-271.96 76.44 -271.63 75.78 -271.29 75.1 C-269.31 74.05 -267.31 73.05 -265.29 72.1 C-264.63 71.77 -263.97 71.44 -263.29 71.1 C-261.8 70.6 -261.8 70.6 -260.29 70.1 C-260.29 69.44 -260.29 68.78 -260.29 68.1 C-259.56 67.82 -258.83 67.53 -258.08 67.24 C-255.51 66.19 -253.07 65.04 -250.6 63.79 C-249.73 63.35 -248.86 62.91 -247.96 62.45 C-246.64 61.78 -246.64 61.78 -245.29 61.1 C-242.79 59.85 -240.3 58.6 -237.8 57.36 C-236.07 56.49 -234.34 55.6 -232.61 54.71 C-231.74 54.26 -230.87 53.81 -229.97 53.35 C-229.19 52.94 -228.41 52.53 -227.61 52.11 C-225.17 51.05 -222.9 50.52 -220.29 50.1 C-220.29 49.44 -220.29 48.78 -220.29 48.1 C-219.57 47.82 -218.86 47.54 -218.13 47.26 C-217.21 46.9 -216.29 46.53 -215.35 46.16 C-214.43 45.8 -213.51 45.44 -212.57 45.07 C-210.36 44.3 -210.36 44.3 -209.29 43.1 C-207.29 43.06 -205.28 43.06 -203.29 43.1 C-203.29 42.44 -203.29 41.78 -203.29 41.1 C-200.98 40.44 -198.67 39.78 -196.29 39.1 C-196.29 38.77 -196.29 38.44 -196.29 38.1 C-192.67 36.78 -190.19 36.1 -186.29 36.1 C-186.29 35.44 -186.29 34.78 -186.29 34.1 C-185.64 34 -185 33.9 -184.34 33.8 C-180.06 33.06 -176.36 32.39 -172.66 30.04 C-169.6 28.28 -168.47 27.83 -165.16 27.54 C-161.38 27.38 -161.38 27.38 -158.91 25.66 C-155.57 23.67 -152.44 23.24 -148.64 22.57 C-146.17 22.15 -146.17 22.15 -143.54 20.97 C-140.7 19.87 -138.3 19.96 -135.29 20.1 C-135.29 19.44 -135.29 18.78 -135.29 18.1 C-134.36 18.02 -134.36 18.02 -133.42 17.95 C-132.21 17.84 -132.21 17.84 -130.97 17.72 C-130.17 17.65 -129.37 17.58 -128.55 17.51 C-126.01 17.2 -126.01 17.2 -123.29 15.1 C-119.69 14.27 -117.82 13.92 -114.29 15.1 C-114.29 14.44 -114.29 13.78 -114.29 13.1 C-113.37 12.96 -112.45 12.83 -111.51 12.7 C-110.32 12.52 -109.13 12.34 -107.91 12.16 C-106.73 11.99 -105.54 11.81 -104.32 11.63 C-101.38 11.26 -101.38 11.26 -99.29 10.1 C-97.41 10.03 -95.54 10.01 -93.66 10.04 C-92.16 10.05 -92.16 10.05 -90.62 10.06 C-89.46 10.08 -89.46 10.08 -88.29 10.1 C-88.29 9.44 -88.29 8.78 -88.29 8.1 C-87.07 8.04 -87.07 8.04 -85.82 7.98 C-77.45 7.5 -69.42 6.37 -61.2 4.82 C-53.88 3.47 -46.77 2.86 -39.36 2.6 C-37.24 2.51 -35.13 2.43 -33.01 2.35 C-29.69 2.22 -26.38 2.1 -23.06 1.97 C-19.84 1.85 -16.63 1.72 -13.42 1.6 C-12.42 1.56 -11.42 1.53 -10.38 1.49 C-9.47 1.45 -8.55 1.42 -7.6 1.38 C-6.38 1.33 -6.38 1.33 -5.14 1.29 C-2.71 1.04 -2.58 0.11 0 0 Z M-465.29 274.1 C-464.29 276.1 -464.29 276.1 -464.29 276.1 Z M438.71 838.1 C439.71 840.1 439.71 840.1 439.71 840.1 Z M428.71 853.1 C428.38 853.76 428.05 854.42 427.71 855.1 C428.37 855.1 429.03 855.1 429.71 855.1 C429.38 854.44 429.05 853.78 428.71 853.1 Z M415.71 868.1 C416.71 870.1 416.71 870.1 416.71 870.1 Z M400.71 886.1 C401.71 888.1 401.71 888.1 401.71 888.1 Z M398.71 889.1 C399.04 889.76 399.37 890.42 399.71 891.1 C400.04 890.44 400.37 889.78 400.71 889.1 C400.05 889.1 399.39 889.1 398.71 889.1 Z M346.71 938.1 C347.04 938.76 347.37 939.42 347.71 940.1 C348.04 939.44 348.37 938.78 348.71 938.1 C348.05 938.1 347.39 938.1 346.71 938.1 Z M319.71 962.1 C319.38 962.76 319.05 963.42 318.71 964.1 C319.37 964.1 320.03 964.1 320.71 964.1 C320.38 963.44 320.05 962.78 319.71 962.1 Z M-298.29 976.1 C-297.29 978.1 -297.29 978.1 -297.29 978.1 Z " fill="#1396F0" transform="translate(638.28515625,103.90234375)"/>
<path d="M0 0 C1.45 -0.01 2.9 -0.02 4.36 -0.03 C7.4 -0.04 10.44 -0.05 13.48 -0.05 C17.32 -0.06 21.17 -0.1 25.02 -0.14 C28.02 -0.17 31.02 -0.18 34.02 -0.18 C35.44 -0.19 36.85 -0.2 38.27 -0.22 C55.17 -0.45 69.21 3.86 81.69 15.43 C93.03 27.26 97.6 40 97.52 56.13 C97.53 57.83 97.53 57.83 97.54 59.57 C97.56 63.33 97.56 67.1 97.56 70.86 C97.56 73.57 97.58 76.29 97.59 79 C97.61 84.82 97.62 90.64 97.63 96.46 C97.63 104.88 97.66 113.3 97.68 121.72 C97.73 135.37 97.76 149.03 97.78 162.69 C97.8 175.96 97.83 189.22 97.86 202.48 C97.86 203.3 97.87 204.12 97.87 204.96 C97.88 209.07 97.89 213.18 97.9 217.28 C98 251.31 98.07 285.34 98.12 319.37 C98.86 319.5 99.6 319.63 100.36 319.76 C101.33 319.94 102.31 320.11 103.31 320.29 C104.28 320.46 105.24 320.64 106.23 320.81 C120.12 323.5 131.64 329.39 140.03 341.01 C149.38 355.19 153.12 369.34 150 386.18 C146.43 401.37 138.09 412.57 125 420.93 C113.96 426.94 102.45 427.52 90.14 427.52 C88.54 427.52 88.54 427.52 86.92 427.53 C83.43 427.54 79.94 427.54 76.46 427.54 C74.01 427.54 71.57 427.55 69.13 427.55 C64.02 427.56 58.9 427.56 53.79 427.56 C47.27 427.56 40.75 427.57 34.23 427.59 C29.18 427.6 24.14 427.6 19.1 427.6 C16.69 427.6 14.29 427.61 11.89 427.61 C-9.72 427.68 -27.44 427.56 -44.88 413.37 C-45.61 412.78 -46.34 412.18 -47.1 411.57 C-56.73 402.9 -61.49 390.01 -62.88 377.37 C-63.44 362.47 -57.54 348.76 -48.22 337.35 C-39.61 328.07 -27.11 322.82 -14.88 320.37 C-12.89 320.37 -10.91 320.37 -8.88 320.37 C-9.21 249.75 -9.53 179.13 -9.88 106.37 C-13.17 106.37 -16.48 106.37 -19.88 106.37 C-32.72 103.97 -44.88 95.58 -52.88 85.37 C-60.72 72.87 -64.7 59.08 -61.88 44.37 C-58.02 29.94 -50.88 17.24 -38.06 9.18 C-25.59 2.09 -14.22 0.05 0 0 Z " fill="#FAFDFF" transform="translate(594.875,525.62890625)"/>
<path d="M0 0 C14.45 10.5 23.71 25.76 28 43 C30.7 62.43 27.49 80.8 16 97 C5.04 110.4 -9.63 119.74 -27 122 C-49.43 123.51 -66.64 118.85 -84 104 C-84.67 103.47 -85.33 102.93 -86.02 102.38 C-97.52 92.21 -103.32 76 -104.81 61.12 C-105.75 42.74 -99.08 24.43 -86.75 10.75 C-63.66 -13.88 -28.39 -17.77 0 0 Z " fill="#FAFDFF" transform="translate(677,337)"/>
<path d="M0 0 C0.66 0.66 1.32 1.32 2 2 C-8.89 12.89 -19.78 23.78 -31 35 C-31.66 34.34 -32.32 33.68 -33 33 C-22.11 22.11 -11.22 11.22 0 0 Z " fill="#5BB6F5" transform="translate(280,243)"/>
<path d="M0 0 C5.94 0 11.88 0 18 0 C18 0.33 18 0.66 18 1 C12.06 1 6.12 1 0 1 C0 0.67 0 0.34 0 0 Z " fill="#000002" transform="translate(671,1172)"/>
<path d="M0 0 C5.94 0 11.88 0 18 0 C18 0.33 18 0.66 18 1 C12.06 1 6.12 1 0 1 C0 0.67 0 0.34 0 0 Z " fill="#000002" transform="translate(591,1172)"/>
<path d="M0 0 C0.33 0 0.66 0 1 0 C1 5.94 1 11.88 1 18 C0.67 18 0.34 18 0 18 C0 12.06 0 6.12 0 0 Z " fill="#000002" transform="translate(1172,671)"/>
<path d="M0 0 C0.33 0 0.66 0 1 0 C1 5.94 1 11.88 1 18 C0.67 18 0.34 18 0 18 C0 12.06 0 6.12 0 0 Z " fill="#000002" transform="translate(1172,591)"/>
<path d="M0 0 C2.97 0 5.94 0 9 0 C9 0.33 9 0.66 9 1 C6.03 1 3.06 1 0 1 C0 0.67 0 0.34 0 0 Z " fill="#000002" transform="translate(552,1167)"/>
<path d="M0 0 C2.31 0 4.62 0 7 0 C7 0.33 7 0.66 7 1 C4.69 1 2.38 1 0 1 C0 0.67 0 0.34 0 0 Z " fill="#000002" transform="translate(721,1167)"/>
<path d="M0 0 C0.33 0 0.66 0 1 0 C1 2.31 1 4.62 1 7 C0.67 7 0.34 7 0 7 C0 4.69 0 2.38 0 0 Z " fill="#000002" transform="translate(1167,721)"/>
<path d="M0 0 C0.33 0 0.66 0 1 0 C1 2.31 1 4.62 1 7 C0.67 7 0.34 7 0 7 C0 4.69 0 2.38 0 0 Z " fill="#000002" transform="translate(1167,552)"/>
<path d="M0 0 C1.98 0 3.96 0 6 0 C6 0.33 6 0.66 6 1 C4.02 1 2.04 1 0 1 C0 0.67 0 0.34 0 0 Z " fill="#000002" transform="translate(701,1170)"/>
<path d="M0 0 C1.65 0 3.3 0 5 0 C5 0.33 5 0.66 5 1 C3.35 1 1.7 1 0 1 C0 0.67 0 0.34 0 0 Z " fill="#000002" transform="translate(749,1162)"/>
<path d="M0 0 C1.65 0 3.3 0 5 0 C5 0.33 5 0.66 5 1 C3.35 1 1.7 1 0 1 C0 0.67 0 0.34 0 0 Z " fill="#000002" transform="translate(526,1162)"/>
<path d="M0 0 C0.33 0 0.66 0 1 0 C1 1.65 1 3.3 1 5 C0.67 5 0.34 5 0 5 C0 3.35 0 1.7 0 0 Z " fill="#000002" transform="translate(1162,749)"/>
<path d="M0 0 C0.33 0 0.66 0 1 0 C1 1.65 1 3.3 1 5 C0.67 5 0.34 5 0 5 C0 3.35 0 1.7 0 0 Z " fill="#000002" transform="translate(1170,701)"/>
<path d="M0 0 C0.33 0 0.66 0 1 0 C1 1.65 1 3.3 1 5 C0.67 5 0.34 5 0 5 C0 3.35 0 1.7 0 0 Z " fill="#000002" transform="translate(1170,574)"/>
<path d="M0 0 C0.33 0 0.66 0 1 0 C1 1.65 1 3.3 1 5 C0.67 5 0.34 5 0 5 C0 3.35 0 1.7 0 0 Z " fill="#000002" transform="translate(1162,526)"/>
<path d="M0 0 C4 1 4 1 4 1 Z " fill="#000002" transform="translate(575,1170)"/>
<path d="M0 0 C4 1 4 1 4 1 Z " fill="#000002" transform="translate(771,1157)"/>
<path d="M0 0 C4 1 4 1 4 1 Z " fill="#000002" transform="translate(505,1157)"/>
<path d="M0 0 C4 1 4 1 4 1 Z " fill="#000002" transform="translate(789,1152)"/>
<path d="M0 0 C4 1 4 1 4 1 Z " fill="#000002" transform="translate(487,1152)"/>
<path d="M0 0 C0.66 0.33 1.32 0.66 2 1 C1.01 1 0.02 1 -1 1 C-0.67 0.67 -0.34 0.34 0 0 Z " fill="#FAFDFF" transform="translate(939,1081)"/>
<path d="M0 0 C0.66 0.33 1.32 0.66 2 1 C1.01 1 0.02 1 -1 1 C-0.67 0.67 -0.34 0.34 0 0 Z " fill="#FAFDFF" transform="translate(979,1051)"/>
<path d="M0 0 C0 3 0 3 0 3 Z " fill="#FAFDFF" transform="translate(1082,938)"/>
<path d="M0 0 C1 4 1 4 1 4 Z " fill="#000002" transform="translate(1152,789)"/>
<path d="M0 0 C1 4 1 4 1 4 Z " fill="#000002" transform="translate(1157,771)"/>
<path d="M0 0 C1 4 1 4 1 4 Z " fill="#000002" transform="translate(1157,505)"/>
<path d="M0 0 C1 4 1 4 1 4 Z " fill="#000002" transform="translate(1152,487)"/>
<path d="M0 0 C3 1 3 1 3 1 Z " fill="#000002" transform="translate(736,1165)"/>
<path d="M0 0 C3 1 3 1 3 1 Z " fill="#000002" transform="translate(846,1132)"/>
<path d="M0 0 C3 1 3 1 3 1 Z " fill="#000002" transform="translate(431,1132)"/>
<path d="" fill="#FAFDFF" transform="translate(0,0)"/>
<path d="" fill="#FAFDFF" transform="translate(0,0)"/>
<path d="" fill="#000002" transform="translate(0,0)"/>
<path d="" fill="#000002" transform="translate(0,0)"/>
<path d="" fill="#000002" transform="translate(0,0)"/>
<path d="M0 0 C3 1 3 1 3 1 Z " fill="#1397F1" transform="translate(647,104)"/>
<path d="M0 0 C3 1 3 1 3 1 Z " fill="#1397F1" transform="translate(626,104)"/>
<path d="M0 0 C2 1 2 1 2 1 Z " fill="#000002" transform="translate(542,1165)"/>
<path d="M0 0 C2 1 2 1 2 1 Z " fill="#000002" transform="translate(761,1160)"/>
<path d="M0 0 C2 1 2 1 2 1 Z " fill="#000002" transform="translate(807,1147)"/>
<path d="M0 0 C2 1 2 1 2 1 Z " fill="#000002" transform="translate(472,1147)"/>
<path d="M0 0 C2 1 2 1 2 1 Z " fill="#000002" transform="translate(821,1142)"/>
<path d="M0 0 C2 1 2 1 2 1 Z " fill="#000002" transform="translate(457,1142)"/>
<path d="M0 0 C2 1 2 1 2 1 Z " fill="#000002" transform="translate(834,1137)"/>
<path d="M0 0 C2 1 2 1 2 1 Z " fill="#000002" transform="translate(444,1137)"/>
<path d="M0 0 C2 1 2 1 2 1 Z " fill="#000002" transform="translate(409,1122)"/>
<path d="" fill="#FAFDFF" transform="translate(0,0)"/>
<path d="" fill="#FAFDFF" transform="translate(0,0)"/>
<path d="" fill="#FAFDFF" transform="translate(0,0)"/>
<path d="" fill="#FAFDFF" transform="translate(0,0)"/>
<path d="" fill="#FAFDFF" transform="translate(0,0)"/>
<path d="" fill="#000002" transform="translate(0,0)"/>
<path d="" fill="#000002" transform="translate(0,0)"/>
<path d="" fill="#000002" transform="translate(0,0)"/>
<path d="" fill="#000002" transform="translate(0,0)"/>
<path d="" fill="#000002" transform="translate(0,0)"/>
<path d="" fill="#000002" transform="translate(0,0)"/>
<path d="" fill="#000002" transform="translate(0,0)"/>
<path d="" fill="#000002" transform="translate(0,0)"/>
<path d="" fill="#000002" transform="translate(0,0)"/>
<path d="" fill="#000002" transform="translate(0,0)"/>
<path d="M0 0 C2 1 2 1 2 1 Z " fill="#1397F1" transform="translate(656,104)"/>
<path d="M0 0 C2 1 2 1 2 1 Z " fill="#1397F1" transform="translate(651,104)"/>
<path d="M0 0 C2 1 2 1 2 1 Z " fill="#1397F1" transform="translate(630,104)"/>
<path d="M0 0 C2 1 2 1 2 1 Z " fill="#1397F1" transform="translate(623,104)"/>
<path d="M0 0 C2 1 2 1 2 1 Z " fill="#1397F1" transform="translate(618,104)"/>
<path d="" fill="#FAFDFF" transform="translate(0,0)"/>
<path d="" fill="#000002" transform="translate(0,0)"/>
<path d="" fill="#000002" transform="translate(0,0)"/>
<path d="" fill="#000002" transform="translate(0,0)"/>
<path d="" fill="#000002" transform="translate(0,0)"/>
<path d="" fill="#000002" transform="translate(0,0)"/>
<path d="" fill="#000002" transform="translate(0,0)"/>
<path d="" fill="#000002" transform="translate(0,0)"/>
<path d="" fill="#000002" transform="translate(0,0)"/>
<path d="" fill="#000002" transform="translate(0,0)"/>
<path d="" fill="#000002" transform="translate(0,0)"/>
<path d="" fill="#000002" transform="translate(0,0)"/>
<path d="" fill="#000002" transform="translate(0,0)"/>
<path d="" fill="#000002" transform="translate(0,0)"/>
<path d="" fill="#000002" transform="translate(0,0)"/>
<path d="" fill="#000002" transform="translate(0,0)"/>
<path d="" fill="#000002" transform="translate(0,0)"/>
<path d="" fill="#000002" transform="translate(0,0)"/>
<path d="" fill="#FAFDFF" transform="translate(0,0)"/>
<path d="" fill="#000002" transform="translate(0,0)"/>
<path d="" fill="#000002" transform="translate(0,0)"/>
<path d="" fill="#000002" transform="translate(0,0)"/>
<path d="" fill="#000002" transform="translate(0,0)"/>
<path d="" fill="#000002" transform="translate(0,0)"/>
<path d="" fill="#000002" transform="translate(0,0)"/>
<path d="" fill="#1397F1" transform="translate(0,0)"/>
<path d="" fill="#FAFDFF" transform="translate(0,0)"/>
<path d="" fill="#000002" transform="translate(0,0)"/>
<path d="" fill="#000002" transform="translate(0,0)"/>
<path d="" fill="#FAFDFF" transform="translate(0,0)"/>
<path d="" fill="#FAFDFF" transform="translate(0,0)"/>
<path d="" fill="#FAFDFF" transform="translate(0,0)"/>
<path d="" fill="#FAFDFF" transform="translate(0,0)"/>
<path d="" fill="#FAFDFF" transform="translate(0,0)"/>
<path d="" fill="#000002" transform="translate(0,0)"/>
<path d="" fill="#1397F1" transform="translate(0,0)"/>
<path d="" fill="#000002" transform="translate(0,0)"/>
<path d="" fill="#FAFDFF" transform="translate(0,0)"/>
<path d="" fill="#1397F1" transform="translate(0,0)"/>
<path d="" fill="#000002" transform="translate(0,0)"/>
<path d="" fill="#000002" transform="translate(0,0)"/>
<path d="" fill="#000002" transform="translate(0,0)"/>
<path d="" fill="#000002" transform="translate(0,0)"/>
<path d="" fill="#000002" transform="translate(0,0)"/>
<path d="" fill="#1397F1" transform="translate(0,0)"/>
<path d="" fill="#000002" transform="translate(0,0)"/>
<path d="" fill="#000002" transform="translate(0,0)"/>
<path d="" fill="#000002" transform="translate(0,0)"/>
<path d="" fill="#000002" transform="translate(0,0)"/>
<path d="" fill="#000002" transform="translate(0,0)"/>
<path d="" fill="#000002" transform="translate(0,0)"/>
<path d="" fill="#000002" transform="translate(0,0)"/>
<path d="" fill="#000002" transform="translate(0,0)"/>
<path d="" fill="#000002" transform="translate(0,0)"/>
<path d="" fill="#1397F1" transform="translate(0,0)"/>
<path d="" fill="#1397F1" transform="translate(0,0)"/>
<path d="" fill="#000002" transform="translate(0,0)"/>
<path d="" fill="#000002" transform="translate(0,0)"/>
<path d="" fill="#000002" transform="translate(0,0)"/>
<path d="" fill="#000002" transform="translate(0,0)"/>
<path d="" fill="#1397F1" transform="translate(0,0)"/>
<path d="" fill="#1397F1" transform="translate(0,0)"/>
<path d="" fill="#FAFDFF" transform="translate(0,0)"/>
<path d="" fill="#1397F1" transform="translate(0,0)"/>
<path d="" fill="#000002" transform="translate(0,0)"/>
<path d="" fill="#000002" transform="translate(0,0)"/>
<path d="" fill="#FAFDFF" transform="translate(0,0)"/>
<path d="" fill="#000002" transform="translate(0,0)"/>
<path d="" fill="#1397F1" transform="translate(0,0)"/>
<path d="" fill="#1397F1" transform="translate(0,0)"/>
<path d="" fill="#1397F1" transform="translate(0,0)"/>
<path d="" fill="#1397F1" transform="translate(0,0)"/>
<path d="" fill="#1397F1" transform="translate(0,0)"/>
<path d="" fill="#1397F1" transform="translate(0,0)"/>
<path d="" fill="#1397F1" transform="translate(0,0)"/>
<path d="" fill="#000002" transform="translate(0,0)"/>
<path d="" fill="#000002" transform="translate(0,0)"/>
<path d="" fill="#1397F1" transform="translate(0,0)"/>
<path d="" fill="#1397F1" transform="translate(0,0)"/>
<path d="" fill="#1397F1" transform="translate(0,0)"/>
</svg>
